%TF.GenerationSoftware,KiCad,Pcbnew,8.0.4*%
%TF.CreationDate,2025-01-11T15:28:08+03:00*%
%TF.ProjectId,IoT Project,496f5420-5072-46f6-9a65-63742e6b6963,rev?*%
%TF.SameCoordinates,Original*%
%TF.FileFunction,Drillmap*%
%TF.FilePolarity,Positive*%
%FSLAX45Y45*%
G04 Gerber Fmt 4.5, Leading zero omitted, Abs format (unit mm)*
G04 Created by KiCad (PCBNEW 8.0.4) date 2025-01-11 15:28:08*
%MOMM*%
%LPD*%
G01*
G04 APERTURE LIST*
%ADD10C,0.050000*%
%ADD11C,0.200000*%
%ADD12C,0.100000*%
G04 APERTURE END LIST*
D10*
X9001777Y-8198223D02*
X9000000Y-5800000D01*
X15626256Y-8451256D02*
X9251777Y-8448223D01*
X15626333Y-5549560D02*
G75*
G02*
X15801335Y-5723299I1257J-173740D01*
G01*
X15801256Y-5723744D02*
X15801256Y-8276256D01*
X9251777Y-8448223D02*
G75*
G02*
X9001777Y-8198223I3J250003D01*
G01*
X9250000Y-5550000D02*
X15626256Y-5550000D01*
X9000000Y-5800000D02*
G75*
G02*
X9250000Y-5550000I250000J0D01*
G01*
X15801256Y-8276256D02*
G75*
G02*
X15626256Y-8451256I-174996J-4D01*
G01*
D11*
D12*
X14975000Y-6780000D02*
X15075000Y-6880000D01*
X15075000Y-6780000D02*
X14975000Y-6880000D01*
X14975000Y-7220000D02*
X15075000Y-7320000D01*
X15075000Y-7220000D02*
X14975000Y-7320000D01*
D11*
X9258277Y-8765240D02*
X9258277Y-8565240D01*
X9258277Y-8565240D02*
X9305896Y-8565240D01*
X9305896Y-8565240D02*
X9334467Y-8574764D01*
X9334467Y-8574764D02*
X9353515Y-8593812D01*
X9353515Y-8593812D02*
X9363039Y-8612859D01*
X9363039Y-8612859D02*
X9372563Y-8650954D01*
X9372563Y-8650954D02*
X9372563Y-8679526D01*
X9372563Y-8679526D02*
X9363039Y-8717621D01*
X9363039Y-8717621D02*
X9353515Y-8736669D01*
X9353515Y-8736669D02*
X9334467Y-8755716D01*
X9334467Y-8755716D02*
X9305896Y-8765240D01*
X9305896Y-8765240D02*
X9258277Y-8765240D01*
X9458277Y-8765240D02*
X9458277Y-8631907D01*
X9458277Y-8670002D02*
X9467801Y-8650954D01*
X9467801Y-8650954D02*
X9477324Y-8641431D01*
X9477324Y-8641431D02*
X9496372Y-8631907D01*
X9496372Y-8631907D02*
X9515420Y-8631907D01*
X9582086Y-8765240D02*
X9582086Y-8631907D01*
X9582086Y-8565240D02*
X9572563Y-8574764D01*
X9572563Y-8574764D02*
X9582086Y-8584288D01*
X9582086Y-8584288D02*
X9591610Y-8574764D01*
X9591610Y-8574764D02*
X9582086Y-8565240D01*
X9582086Y-8565240D02*
X9582086Y-8584288D01*
X9705896Y-8765240D02*
X9686848Y-8755716D01*
X9686848Y-8755716D02*
X9677324Y-8736669D01*
X9677324Y-8736669D02*
X9677324Y-8565240D01*
X9810658Y-8765240D02*
X9791610Y-8755716D01*
X9791610Y-8755716D02*
X9782086Y-8736669D01*
X9782086Y-8736669D02*
X9782086Y-8565240D01*
X10039229Y-8765240D02*
X10039229Y-8565240D01*
X10039229Y-8565240D02*
X10105896Y-8708097D01*
X10105896Y-8708097D02*
X10172563Y-8565240D01*
X10172563Y-8565240D02*
X10172563Y-8765240D01*
X10353515Y-8765240D02*
X10353515Y-8660478D01*
X10353515Y-8660478D02*
X10343991Y-8641431D01*
X10343991Y-8641431D02*
X10324944Y-8631907D01*
X10324944Y-8631907D02*
X10286848Y-8631907D01*
X10286848Y-8631907D02*
X10267801Y-8641431D01*
X10353515Y-8755716D02*
X10334467Y-8765240D01*
X10334467Y-8765240D02*
X10286848Y-8765240D01*
X10286848Y-8765240D02*
X10267801Y-8755716D01*
X10267801Y-8755716D02*
X10258277Y-8736669D01*
X10258277Y-8736669D02*
X10258277Y-8717621D01*
X10258277Y-8717621D02*
X10267801Y-8698573D01*
X10267801Y-8698573D02*
X10286848Y-8689050D01*
X10286848Y-8689050D02*
X10334467Y-8689050D01*
X10334467Y-8689050D02*
X10353515Y-8679526D01*
X10448753Y-8631907D02*
X10448753Y-8831907D01*
X10448753Y-8641431D02*
X10467801Y-8631907D01*
X10467801Y-8631907D02*
X10505896Y-8631907D01*
X10505896Y-8631907D02*
X10524944Y-8641431D01*
X10524944Y-8641431D02*
X10534467Y-8650954D01*
X10534467Y-8650954D02*
X10543991Y-8670002D01*
X10543991Y-8670002D02*
X10543991Y-8727145D01*
X10543991Y-8727145D02*
X10534467Y-8746192D01*
X10534467Y-8746192D02*
X10524944Y-8755716D01*
X10524944Y-8755716D02*
X10505896Y-8765240D01*
X10505896Y-8765240D02*
X10467801Y-8765240D01*
X10467801Y-8765240D02*
X10448753Y-8755716D01*
X10629705Y-8746192D02*
X10639229Y-8755716D01*
X10639229Y-8755716D02*
X10629705Y-8765240D01*
X10629705Y-8765240D02*
X10620182Y-8755716D01*
X10620182Y-8755716D02*
X10629705Y-8746192D01*
X10629705Y-8746192D02*
X10629705Y-8765240D01*
X10629705Y-8641431D02*
X10639229Y-8650954D01*
X10639229Y-8650954D02*
X10629705Y-8660478D01*
X10629705Y-8660478D02*
X10620182Y-8650954D01*
X10620182Y-8650954D02*
X10629705Y-8641431D01*
X10629705Y-8641431D02*
X10629705Y-8660478D01*
D12*
X8897500Y-9043756D02*
X8997500Y-9143756D01*
X8997500Y-9043756D02*
X8897500Y-9143756D01*
D11*
X9363039Y-9185240D02*
X9248753Y-9185240D01*
X9305896Y-9185240D02*
X9305896Y-8985240D01*
X9305896Y-8985240D02*
X9286848Y-9013812D01*
X9286848Y-9013812D02*
X9267801Y-9032859D01*
X9267801Y-9032859D02*
X9248753Y-9042383D01*
X9448753Y-9166192D02*
X9458277Y-9175716D01*
X9458277Y-9175716D02*
X9448753Y-9185240D01*
X9448753Y-9185240D02*
X9439229Y-9175716D01*
X9439229Y-9175716D02*
X9448753Y-9166192D01*
X9448753Y-9166192D02*
X9448753Y-9185240D01*
X9582086Y-8985240D02*
X9601134Y-8985240D01*
X9601134Y-8985240D02*
X9620182Y-8994764D01*
X9620182Y-8994764D02*
X9629705Y-9004288D01*
X9629705Y-9004288D02*
X9639229Y-9023335D01*
X9639229Y-9023335D02*
X9648753Y-9061431D01*
X9648753Y-9061431D02*
X9648753Y-9109050D01*
X9648753Y-9109050D02*
X9639229Y-9147145D01*
X9639229Y-9147145D02*
X9629705Y-9166192D01*
X9629705Y-9166192D02*
X9620182Y-9175716D01*
X9620182Y-9175716D02*
X9601134Y-9185240D01*
X9601134Y-9185240D02*
X9582086Y-9185240D01*
X9582086Y-9185240D02*
X9563039Y-9175716D01*
X9563039Y-9175716D02*
X9553515Y-9166192D01*
X9553515Y-9166192D02*
X9543991Y-9147145D01*
X9543991Y-9147145D02*
X9534467Y-9109050D01*
X9534467Y-9109050D02*
X9534467Y-9061431D01*
X9534467Y-9061431D02*
X9543991Y-9023335D01*
X9543991Y-9023335D02*
X9553515Y-9004288D01*
X9553515Y-9004288D02*
X9563039Y-8994764D01*
X9563039Y-8994764D02*
X9582086Y-8985240D01*
X9772563Y-8985240D02*
X9791610Y-8985240D01*
X9791610Y-8985240D02*
X9810658Y-8994764D01*
X9810658Y-8994764D02*
X9820182Y-9004288D01*
X9820182Y-9004288D02*
X9829705Y-9023335D01*
X9829705Y-9023335D02*
X9839229Y-9061431D01*
X9839229Y-9061431D02*
X9839229Y-9109050D01*
X9839229Y-9109050D02*
X9829705Y-9147145D01*
X9829705Y-9147145D02*
X9820182Y-9166192D01*
X9820182Y-9166192D02*
X9810658Y-9175716D01*
X9810658Y-9175716D02*
X9791610Y-9185240D01*
X9791610Y-9185240D02*
X9772563Y-9185240D01*
X9772563Y-9185240D02*
X9753515Y-9175716D01*
X9753515Y-9175716D02*
X9743991Y-9166192D01*
X9743991Y-9166192D02*
X9734467Y-9147145D01*
X9734467Y-9147145D02*
X9724944Y-9109050D01*
X9724944Y-9109050D02*
X9724944Y-9061431D01*
X9724944Y-9061431D02*
X9734467Y-9023335D01*
X9734467Y-9023335D02*
X9743991Y-9004288D01*
X9743991Y-9004288D02*
X9753515Y-8994764D01*
X9753515Y-8994764D02*
X9772563Y-8985240D01*
X9963039Y-8985240D02*
X9982086Y-8985240D01*
X9982086Y-8985240D02*
X10001134Y-8994764D01*
X10001134Y-8994764D02*
X10010658Y-9004288D01*
X10010658Y-9004288D02*
X10020182Y-9023335D01*
X10020182Y-9023335D02*
X10029705Y-9061431D01*
X10029705Y-9061431D02*
X10029705Y-9109050D01*
X10029705Y-9109050D02*
X10020182Y-9147145D01*
X10020182Y-9147145D02*
X10010658Y-9166192D01*
X10010658Y-9166192D02*
X10001134Y-9175716D01*
X10001134Y-9175716D02*
X9982086Y-9185240D01*
X9982086Y-9185240D02*
X9963039Y-9185240D01*
X9963039Y-9185240D02*
X9943991Y-9175716D01*
X9943991Y-9175716D02*
X9934467Y-9166192D01*
X9934467Y-9166192D02*
X9924944Y-9147145D01*
X9924944Y-9147145D02*
X9915420Y-9109050D01*
X9915420Y-9109050D02*
X9915420Y-9061431D01*
X9915420Y-9061431D02*
X9924944Y-9023335D01*
X9924944Y-9023335D02*
X9934467Y-9004288D01*
X9934467Y-9004288D02*
X9943991Y-8994764D01*
X9943991Y-8994764D02*
X9963039Y-8985240D01*
X10115420Y-9185240D02*
X10115420Y-9051907D01*
X10115420Y-9070954D02*
X10124944Y-9061431D01*
X10124944Y-9061431D02*
X10143991Y-9051907D01*
X10143991Y-9051907D02*
X10172563Y-9051907D01*
X10172563Y-9051907D02*
X10191610Y-9061431D01*
X10191610Y-9061431D02*
X10201134Y-9080478D01*
X10201134Y-9080478D02*
X10201134Y-9185240D01*
X10201134Y-9080478D02*
X10210658Y-9061431D01*
X10210658Y-9061431D02*
X10229705Y-9051907D01*
X10229705Y-9051907D02*
X10258277Y-9051907D01*
X10258277Y-9051907D02*
X10277325Y-9061431D01*
X10277325Y-9061431D02*
X10286848Y-9080478D01*
X10286848Y-9080478D02*
X10286848Y-9185240D01*
X10382086Y-9185240D02*
X10382086Y-9051907D01*
X10382086Y-9070954D02*
X10391610Y-9061431D01*
X10391610Y-9061431D02*
X10410658Y-9051907D01*
X10410658Y-9051907D02*
X10439229Y-9051907D01*
X10439229Y-9051907D02*
X10458277Y-9061431D01*
X10458277Y-9061431D02*
X10467801Y-9080478D01*
X10467801Y-9080478D02*
X10467801Y-9185240D01*
X10467801Y-9080478D02*
X10477325Y-9061431D01*
X10477325Y-9061431D02*
X10496372Y-9051907D01*
X10496372Y-9051907D02*
X10524944Y-9051907D01*
X10524944Y-9051907D02*
X10543991Y-9061431D01*
X10543991Y-9061431D02*
X10553515Y-9080478D01*
X10553515Y-9080478D02*
X10553515Y-9185240D01*
X10943991Y-8975716D02*
X10772563Y-9232859D01*
X11201134Y-8985240D02*
X11220182Y-8985240D01*
X11220182Y-8985240D02*
X11239229Y-8994764D01*
X11239229Y-8994764D02*
X11248753Y-9004288D01*
X11248753Y-9004288D02*
X11258277Y-9023335D01*
X11258277Y-9023335D02*
X11267801Y-9061431D01*
X11267801Y-9061431D02*
X11267801Y-9109050D01*
X11267801Y-9109050D02*
X11258277Y-9147145D01*
X11258277Y-9147145D02*
X11248753Y-9166192D01*
X11248753Y-9166192D02*
X11239229Y-9175716D01*
X11239229Y-9175716D02*
X11220182Y-9185240D01*
X11220182Y-9185240D02*
X11201134Y-9185240D01*
X11201134Y-9185240D02*
X11182087Y-9175716D01*
X11182087Y-9175716D02*
X11172563Y-9166192D01*
X11172563Y-9166192D02*
X11163039Y-9147145D01*
X11163039Y-9147145D02*
X11153515Y-9109050D01*
X11153515Y-9109050D02*
X11153515Y-9061431D01*
X11153515Y-9061431D02*
X11163039Y-9023335D01*
X11163039Y-9023335D02*
X11172563Y-9004288D01*
X11172563Y-9004288D02*
X11182087Y-8994764D01*
X11182087Y-8994764D02*
X11201134Y-8985240D01*
X11353515Y-9166192D02*
X11363039Y-9175716D01*
X11363039Y-9175716D02*
X11353515Y-9185240D01*
X11353515Y-9185240D02*
X11343991Y-9175716D01*
X11343991Y-9175716D02*
X11353515Y-9166192D01*
X11353515Y-9166192D02*
X11353515Y-9185240D01*
X11486848Y-8985240D02*
X11505896Y-8985240D01*
X11505896Y-8985240D02*
X11524944Y-8994764D01*
X11524944Y-8994764D02*
X11534467Y-9004288D01*
X11534467Y-9004288D02*
X11543991Y-9023335D01*
X11543991Y-9023335D02*
X11553515Y-9061431D01*
X11553515Y-9061431D02*
X11553515Y-9109050D01*
X11553515Y-9109050D02*
X11543991Y-9147145D01*
X11543991Y-9147145D02*
X11534467Y-9166192D01*
X11534467Y-9166192D02*
X11524944Y-9175716D01*
X11524944Y-9175716D02*
X11505896Y-9185240D01*
X11505896Y-9185240D02*
X11486848Y-9185240D01*
X11486848Y-9185240D02*
X11467801Y-9175716D01*
X11467801Y-9175716D02*
X11458277Y-9166192D01*
X11458277Y-9166192D02*
X11448753Y-9147145D01*
X11448753Y-9147145D02*
X11439229Y-9109050D01*
X11439229Y-9109050D02*
X11439229Y-9061431D01*
X11439229Y-9061431D02*
X11448753Y-9023335D01*
X11448753Y-9023335D02*
X11458277Y-9004288D01*
X11458277Y-9004288D02*
X11467801Y-8994764D01*
X11467801Y-8994764D02*
X11486848Y-8985240D01*
X11620182Y-8985240D02*
X11743991Y-8985240D01*
X11743991Y-8985240D02*
X11677325Y-9061431D01*
X11677325Y-9061431D02*
X11705896Y-9061431D01*
X11705896Y-9061431D02*
X11724944Y-9070954D01*
X11724944Y-9070954D02*
X11734467Y-9080478D01*
X11734467Y-9080478D02*
X11743991Y-9099526D01*
X11743991Y-9099526D02*
X11743991Y-9147145D01*
X11743991Y-9147145D02*
X11734467Y-9166192D01*
X11734467Y-9166192D02*
X11724944Y-9175716D01*
X11724944Y-9175716D02*
X11705896Y-9185240D01*
X11705896Y-9185240D02*
X11648753Y-9185240D01*
X11648753Y-9185240D02*
X11629706Y-9175716D01*
X11629706Y-9175716D02*
X11620182Y-9166192D01*
X11839229Y-9185240D02*
X11877325Y-9185240D01*
X11877325Y-9185240D02*
X11896372Y-9175716D01*
X11896372Y-9175716D02*
X11905896Y-9166192D01*
X11905896Y-9166192D02*
X11924944Y-9137621D01*
X11924944Y-9137621D02*
X11934467Y-9099526D01*
X11934467Y-9099526D02*
X11934467Y-9023335D01*
X11934467Y-9023335D02*
X11924944Y-9004288D01*
X11924944Y-9004288D02*
X11915420Y-8994764D01*
X11915420Y-8994764D02*
X11896372Y-8985240D01*
X11896372Y-8985240D02*
X11858277Y-8985240D01*
X11858277Y-8985240D02*
X11839229Y-8994764D01*
X11839229Y-8994764D02*
X11829706Y-9004288D01*
X11829706Y-9004288D02*
X11820182Y-9023335D01*
X11820182Y-9023335D02*
X11820182Y-9070954D01*
X11820182Y-9070954D02*
X11829706Y-9090002D01*
X11829706Y-9090002D02*
X11839229Y-9099526D01*
X11839229Y-9099526D02*
X11858277Y-9109050D01*
X11858277Y-9109050D02*
X11896372Y-9109050D01*
X11896372Y-9109050D02*
X11915420Y-9099526D01*
X11915420Y-9099526D02*
X11924944Y-9090002D01*
X11924944Y-9090002D02*
X11934467Y-9070954D01*
X12105896Y-9051907D02*
X12105896Y-9185240D01*
X12058277Y-8975716D02*
X12010658Y-9118573D01*
X12010658Y-9118573D02*
X12134467Y-9118573D01*
X12201134Y-8985240D02*
X12201134Y-9023335D01*
X12277325Y-8985240D02*
X12277325Y-9023335D01*
X12572563Y-9261431D02*
X12563039Y-9251907D01*
X12563039Y-9251907D02*
X12543991Y-9223335D01*
X12543991Y-9223335D02*
X12534468Y-9204288D01*
X12534468Y-9204288D02*
X12524944Y-9175716D01*
X12524944Y-9175716D02*
X12515420Y-9128097D01*
X12515420Y-9128097D02*
X12515420Y-9090002D01*
X12515420Y-9090002D02*
X12524944Y-9042383D01*
X12524944Y-9042383D02*
X12534468Y-9013812D01*
X12534468Y-9013812D02*
X12543991Y-8994764D01*
X12543991Y-8994764D02*
X12563039Y-8966192D01*
X12563039Y-8966192D02*
X12572563Y-8956669D01*
X12639229Y-9004288D02*
X12648753Y-8994764D01*
X12648753Y-8994764D02*
X12667801Y-8985240D01*
X12667801Y-8985240D02*
X12715420Y-8985240D01*
X12715420Y-8985240D02*
X12734468Y-8994764D01*
X12734468Y-8994764D02*
X12743991Y-9004288D01*
X12743991Y-9004288D02*
X12753515Y-9023335D01*
X12753515Y-9023335D02*
X12753515Y-9042383D01*
X12753515Y-9042383D02*
X12743991Y-9070954D01*
X12743991Y-9070954D02*
X12629706Y-9185240D01*
X12629706Y-9185240D02*
X12753515Y-9185240D01*
X12991610Y-9185240D02*
X12991610Y-8985240D01*
X13077325Y-9185240D02*
X13077325Y-9080478D01*
X13077325Y-9080478D02*
X13067801Y-9061431D01*
X13067801Y-9061431D02*
X13048753Y-9051907D01*
X13048753Y-9051907D02*
X13020182Y-9051907D01*
X13020182Y-9051907D02*
X13001134Y-9061431D01*
X13001134Y-9061431D02*
X12991610Y-9070954D01*
X13201134Y-9185240D02*
X13182087Y-9175716D01*
X13182087Y-9175716D02*
X13172563Y-9166192D01*
X13172563Y-9166192D02*
X13163039Y-9147145D01*
X13163039Y-9147145D02*
X13163039Y-9090002D01*
X13163039Y-9090002D02*
X13172563Y-9070954D01*
X13172563Y-9070954D02*
X13182087Y-9061431D01*
X13182087Y-9061431D02*
X13201134Y-9051907D01*
X13201134Y-9051907D02*
X13229706Y-9051907D01*
X13229706Y-9051907D02*
X13248753Y-9061431D01*
X13248753Y-9061431D02*
X13258277Y-9070954D01*
X13258277Y-9070954D02*
X13267801Y-9090002D01*
X13267801Y-9090002D02*
X13267801Y-9147145D01*
X13267801Y-9147145D02*
X13258277Y-9166192D01*
X13258277Y-9166192D02*
X13248753Y-9175716D01*
X13248753Y-9175716D02*
X13229706Y-9185240D01*
X13229706Y-9185240D02*
X13201134Y-9185240D01*
X13382087Y-9185240D02*
X13363039Y-9175716D01*
X13363039Y-9175716D02*
X13353515Y-9156669D01*
X13353515Y-9156669D02*
X13353515Y-8985240D01*
X13534468Y-9175716D02*
X13515420Y-9185240D01*
X13515420Y-9185240D02*
X13477325Y-9185240D01*
X13477325Y-9185240D02*
X13458277Y-9175716D01*
X13458277Y-9175716D02*
X13448753Y-9156669D01*
X13448753Y-9156669D02*
X13448753Y-9080478D01*
X13448753Y-9080478D02*
X13458277Y-9061431D01*
X13458277Y-9061431D02*
X13477325Y-9051907D01*
X13477325Y-9051907D02*
X13515420Y-9051907D01*
X13515420Y-9051907D02*
X13534468Y-9061431D01*
X13534468Y-9061431D02*
X13543991Y-9080478D01*
X13543991Y-9080478D02*
X13543991Y-9099526D01*
X13543991Y-9099526D02*
X13448753Y-9118573D01*
X13620182Y-9175716D02*
X13639230Y-9185240D01*
X13639230Y-9185240D02*
X13677325Y-9185240D01*
X13677325Y-9185240D02*
X13696372Y-9175716D01*
X13696372Y-9175716D02*
X13705896Y-9156669D01*
X13705896Y-9156669D02*
X13705896Y-9147145D01*
X13705896Y-9147145D02*
X13696372Y-9128097D01*
X13696372Y-9128097D02*
X13677325Y-9118573D01*
X13677325Y-9118573D02*
X13648753Y-9118573D01*
X13648753Y-9118573D02*
X13629706Y-9109050D01*
X13629706Y-9109050D02*
X13620182Y-9090002D01*
X13620182Y-9090002D02*
X13620182Y-9080478D01*
X13620182Y-9080478D02*
X13629706Y-9061431D01*
X13629706Y-9061431D02*
X13648753Y-9051907D01*
X13648753Y-9051907D02*
X13677325Y-9051907D01*
X13677325Y-9051907D02*
X13696372Y-9061431D01*
X13772563Y-9261431D02*
X13782087Y-9251907D01*
X13782087Y-9251907D02*
X13801134Y-9223335D01*
X13801134Y-9223335D02*
X13810658Y-9204288D01*
X13810658Y-9204288D02*
X13820182Y-9175716D01*
X13820182Y-9175716D02*
X13829706Y-9128097D01*
X13829706Y-9128097D02*
X13829706Y-9090002D01*
X13829706Y-9090002D02*
X13820182Y-9042383D01*
X13820182Y-9042383D02*
X13810658Y-9013812D01*
X13810658Y-9013812D02*
X13801134Y-8994764D01*
X13801134Y-8994764D02*
X13782087Y-8966192D01*
X13782087Y-8966192D02*
X13772563Y-8956669D01*
X14134468Y-9261431D02*
X14124944Y-9251907D01*
X14124944Y-9251907D02*
X14105896Y-9223335D01*
X14105896Y-9223335D02*
X14096372Y-9204288D01*
X14096372Y-9204288D02*
X14086849Y-9175716D01*
X14086849Y-9175716D02*
X14077325Y-9128097D01*
X14077325Y-9128097D02*
X14077325Y-9090002D01*
X14077325Y-9090002D02*
X14086849Y-9042383D01*
X14086849Y-9042383D02*
X14096372Y-9013812D01*
X14096372Y-9013812D02*
X14105896Y-8994764D01*
X14105896Y-8994764D02*
X14124944Y-8966192D01*
X14124944Y-8966192D02*
X14134468Y-8956669D01*
X14210658Y-9051907D02*
X14210658Y-9185240D01*
X14210658Y-9070954D02*
X14220182Y-9061431D01*
X14220182Y-9061431D02*
X14239230Y-9051907D01*
X14239230Y-9051907D02*
X14267801Y-9051907D01*
X14267801Y-9051907D02*
X14286849Y-9061431D01*
X14286849Y-9061431D02*
X14296372Y-9080478D01*
X14296372Y-9080478D02*
X14296372Y-9185240D01*
X14420182Y-9185240D02*
X14401134Y-9175716D01*
X14401134Y-9175716D02*
X14391611Y-9166192D01*
X14391611Y-9166192D02*
X14382087Y-9147145D01*
X14382087Y-9147145D02*
X14382087Y-9090002D01*
X14382087Y-9090002D02*
X14391611Y-9070954D01*
X14391611Y-9070954D02*
X14401134Y-9061431D01*
X14401134Y-9061431D02*
X14420182Y-9051907D01*
X14420182Y-9051907D02*
X14448753Y-9051907D01*
X14448753Y-9051907D02*
X14467801Y-9061431D01*
X14467801Y-9061431D02*
X14477325Y-9070954D01*
X14477325Y-9070954D02*
X14486849Y-9090002D01*
X14486849Y-9090002D02*
X14486849Y-9147145D01*
X14486849Y-9147145D02*
X14477325Y-9166192D01*
X14477325Y-9166192D02*
X14467801Y-9175716D01*
X14467801Y-9175716D02*
X14448753Y-9185240D01*
X14448753Y-9185240D02*
X14420182Y-9185240D01*
X14543992Y-9051907D02*
X14620182Y-9051907D01*
X14572563Y-8985240D02*
X14572563Y-9156669D01*
X14572563Y-9156669D02*
X14582087Y-9175716D01*
X14582087Y-9175716D02*
X14601134Y-9185240D01*
X14601134Y-9185240D02*
X14620182Y-9185240D01*
X14839230Y-9051907D02*
X14839230Y-9251907D01*
X14839230Y-9061431D02*
X14858277Y-9051907D01*
X14858277Y-9051907D02*
X14896373Y-9051907D01*
X14896373Y-9051907D02*
X14915420Y-9061431D01*
X14915420Y-9061431D02*
X14924944Y-9070954D01*
X14924944Y-9070954D02*
X14934468Y-9090002D01*
X14934468Y-9090002D02*
X14934468Y-9147145D01*
X14934468Y-9147145D02*
X14924944Y-9166192D01*
X14924944Y-9166192D02*
X14915420Y-9175716D01*
X14915420Y-9175716D02*
X14896373Y-9185240D01*
X14896373Y-9185240D02*
X14858277Y-9185240D01*
X14858277Y-9185240D02*
X14839230Y-9175716D01*
X15048753Y-9185240D02*
X15029706Y-9175716D01*
X15029706Y-9175716D02*
X15020182Y-9156669D01*
X15020182Y-9156669D02*
X15020182Y-8985240D01*
X15210658Y-9185240D02*
X15210658Y-9080478D01*
X15210658Y-9080478D02*
X15201134Y-9061431D01*
X15201134Y-9061431D02*
X15182087Y-9051907D01*
X15182087Y-9051907D02*
X15143992Y-9051907D01*
X15143992Y-9051907D02*
X15124944Y-9061431D01*
X15210658Y-9175716D02*
X15191611Y-9185240D01*
X15191611Y-9185240D02*
X15143992Y-9185240D01*
X15143992Y-9185240D02*
X15124944Y-9175716D01*
X15124944Y-9175716D02*
X15115420Y-9156669D01*
X15115420Y-9156669D02*
X15115420Y-9137621D01*
X15115420Y-9137621D02*
X15124944Y-9118573D01*
X15124944Y-9118573D02*
X15143992Y-9109050D01*
X15143992Y-9109050D02*
X15191611Y-9109050D01*
X15191611Y-9109050D02*
X15210658Y-9099526D01*
X15277325Y-9051907D02*
X15353515Y-9051907D01*
X15305896Y-8985240D02*
X15305896Y-9156669D01*
X15305896Y-9156669D02*
X15315420Y-9175716D01*
X15315420Y-9175716D02*
X15334468Y-9185240D01*
X15334468Y-9185240D02*
X15353515Y-9185240D01*
X15496373Y-9175716D02*
X15477325Y-9185240D01*
X15477325Y-9185240D02*
X15439230Y-9185240D01*
X15439230Y-9185240D02*
X15420182Y-9175716D01*
X15420182Y-9175716D02*
X15410658Y-9156669D01*
X15410658Y-9156669D02*
X15410658Y-9080478D01*
X15410658Y-9080478D02*
X15420182Y-9061431D01*
X15420182Y-9061431D02*
X15439230Y-9051907D01*
X15439230Y-9051907D02*
X15477325Y-9051907D01*
X15477325Y-9051907D02*
X15496373Y-9061431D01*
X15496373Y-9061431D02*
X15505896Y-9080478D01*
X15505896Y-9080478D02*
X15505896Y-9099526D01*
X15505896Y-9099526D02*
X15410658Y-9118573D01*
X15677325Y-9185240D02*
X15677325Y-8985240D01*
X15677325Y-9175716D02*
X15658277Y-9185240D01*
X15658277Y-9185240D02*
X15620182Y-9185240D01*
X15620182Y-9185240D02*
X15601134Y-9175716D01*
X15601134Y-9175716D02*
X15591611Y-9166192D01*
X15591611Y-9166192D02*
X15582087Y-9147145D01*
X15582087Y-9147145D02*
X15582087Y-9090002D01*
X15582087Y-9090002D02*
X15591611Y-9070954D01*
X15591611Y-9070954D02*
X15601134Y-9061431D01*
X15601134Y-9061431D02*
X15620182Y-9051907D01*
X15620182Y-9051907D02*
X15658277Y-9051907D01*
X15658277Y-9051907D02*
X15677325Y-9061431D01*
X15753515Y-9261431D02*
X15763039Y-9251907D01*
X15763039Y-9251907D02*
X15782087Y-9223335D01*
X15782087Y-9223335D02*
X15791611Y-9204288D01*
X15791611Y-9204288D02*
X15801134Y-9175716D01*
X15801134Y-9175716D02*
X15810658Y-9128097D01*
X15810658Y-9128097D02*
X15810658Y-9090002D01*
X15810658Y-9090002D02*
X15801134Y-9042383D01*
X15801134Y-9042383D02*
X15791611Y-9013812D01*
X15791611Y-9013812D02*
X15782087Y-8994764D01*
X15782087Y-8994764D02*
X15763039Y-8966192D01*
X15763039Y-8966192D02*
X15753515Y-8956669D01*
M02*
