%TF.GenerationSoftware,KiCad,Pcbnew,8.0.4*%
%TF.CreationDate,2025-01-11T15:27:39+03:00*%
%TF.ProjectId,IoT Project,496f5420-5072-46f6-9a65-63742e6b6963,rev?*%
%TF.SameCoordinates,Original*%
%TF.FileFunction,Copper,L2,Bot*%
%TF.FilePolarity,Positive*%
%FSLAX46Y46*%
G04 Gerber Fmt 4.6, Leading zero omitted, Abs format (unit mm)*
G04 Created by KiCad (PCBNEW 8.0.4) date 2025-01-11 15:27:39*
%MOMM*%
%LPD*%
G01*
G04 APERTURE LIST*
G04 Aperture macros list*
%AMRoundRect*
0 Rectangle with rounded corners*
0 $1 Rounding radius*
0 $2 $3 $4 $5 $6 $7 $8 $9 X,Y pos of 4 corners*
0 Add a 4 corners polygon primitive as box body*
4,1,4,$2,$3,$4,$5,$6,$7,$8,$9,$2,$3,0*
0 Add four circle primitives for the rounded corners*
1,1,$1+$1,$2,$3*
1,1,$1+$1,$4,$5*
1,1,$1+$1,$6,$7*
1,1,$1+$1,$8,$9*
0 Add four rect primitives between the rounded corners*
20,1,$1+$1,$2,$3,$4,$5,0*
20,1,$1+$1,$4,$5,$6,$7,0*
20,1,$1+$1,$6,$7,$8,$9,0*
20,1,$1+$1,$8,$9,$2,$3,0*%
G04 Aperture macros list end*
%ADD10C,0.100000*%
%TA.AperFunction,NonConductor*%
%ADD11C,0.100000*%
%TD*%
%TA.AperFunction,ComponentPad*%
%ADD12C,2.000000*%
%TD*%
%TA.AperFunction,ComponentPad*%
%ADD13R,1.700000X1.700000*%
%TD*%
%TA.AperFunction,ComponentPad*%
%ADD14O,1.700000X1.700000*%
%TD*%
%TA.AperFunction,ComponentPad*%
%ADD15R,1.220000X1.220000*%
%TD*%
%TA.AperFunction,ComponentPad*%
%ADD16C,1.220000*%
%TD*%
%TA.AperFunction,HeatsinkPad*%
%ADD17C,0.600000*%
%TD*%
%TA.AperFunction,SMDPad,CuDef*%
%ADD18RoundRect,0.150000X0.825000X0.150000X-0.825000X0.150000X-0.825000X-0.150000X0.825000X-0.150000X0*%
%TD*%
%TA.AperFunction,SMDPad,CuDef*%
%ADD19RoundRect,0.250000X-0.475000X0.250000X-0.475000X-0.250000X0.475000X-0.250000X0.475000X0.250000X0*%
%TD*%
%TA.AperFunction,SMDPad,CuDef*%
%ADD20RoundRect,0.150000X-0.587500X-0.150000X0.587500X-0.150000X0.587500X0.150000X-0.587500X0.150000X0*%
%TD*%
%TA.AperFunction,SMDPad,CuDef*%
%ADD21RoundRect,0.250000X-1.000000X-0.650000X1.000000X-0.650000X1.000000X0.650000X-1.000000X0.650000X0*%
%TD*%
%TA.AperFunction,ViaPad*%
%ADD22C,0.600000*%
%TD*%
%TA.AperFunction,ViaPad*%
%ADD23C,0.400000*%
%TD*%
%TA.AperFunction,Conductor*%
%ADD24C,0.200000*%
%TD*%
G04 APERTURE END LIST*
D10*
D11*
X141838972Y-83744884D02*
X141767544Y-83768693D01*
X141767544Y-83768693D02*
X141648496Y-83768693D01*
X141648496Y-83768693D02*
X141600877Y-83744884D01*
X141600877Y-83744884D02*
X141577068Y-83721074D01*
X141577068Y-83721074D02*
X141553258Y-83673455D01*
X141553258Y-83673455D02*
X141553258Y-83625836D01*
X141553258Y-83625836D02*
X141577068Y-83578217D01*
X141577068Y-83578217D02*
X141600877Y-83554407D01*
X141600877Y-83554407D02*
X141648496Y-83530598D01*
X141648496Y-83530598D02*
X141743734Y-83506788D01*
X141743734Y-83506788D02*
X141791353Y-83482979D01*
X141791353Y-83482979D02*
X141815163Y-83459169D01*
X141815163Y-83459169D02*
X141838972Y-83411550D01*
X141838972Y-83411550D02*
X141838972Y-83363931D01*
X141838972Y-83363931D02*
X141815163Y-83316312D01*
X141815163Y-83316312D02*
X141791353Y-83292503D01*
X141791353Y-83292503D02*
X141743734Y-83268693D01*
X141743734Y-83268693D02*
X141624687Y-83268693D01*
X141624687Y-83268693D02*
X141553258Y-83292503D01*
X141338973Y-83768693D02*
X141338973Y-83268693D01*
X141338973Y-83268693D02*
X141219925Y-83268693D01*
X141219925Y-83268693D02*
X141148497Y-83292503D01*
X141148497Y-83292503D02*
X141100878Y-83340122D01*
X141100878Y-83340122D02*
X141077068Y-83387741D01*
X141077068Y-83387741D02*
X141053259Y-83482979D01*
X141053259Y-83482979D02*
X141053259Y-83554407D01*
X141053259Y-83554407D02*
X141077068Y-83649645D01*
X141077068Y-83649645D02*
X141100878Y-83697264D01*
X141100878Y-83697264D02*
X141148497Y-83744884D01*
X141148497Y-83744884D02*
X141219925Y-83768693D01*
X141219925Y-83768693D02*
X141338973Y-83768693D01*
X140862782Y-83625836D02*
X140624687Y-83625836D01*
X140910401Y-83768693D02*
X140743735Y-83268693D01*
X140743735Y-83268693D02*
X140577068Y-83768693D01*
X139291355Y-83744884D02*
X139219927Y-83768693D01*
X139219927Y-83768693D02*
X139100879Y-83768693D01*
X139100879Y-83768693D02*
X139053260Y-83744884D01*
X139053260Y-83744884D02*
X139029451Y-83721074D01*
X139029451Y-83721074D02*
X139005641Y-83673455D01*
X139005641Y-83673455D02*
X139005641Y-83625836D01*
X139005641Y-83625836D02*
X139029451Y-83578217D01*
X139029451Y-83578217D02*
X139053260Y-83554407D01*
X139053260Y-83554407D02*
X139100879Y-83530598D01*
X139100879Y-83530598D02*
X139196117Y-83506788D01*
X139196117Y-83506788D02*
X139243736Y-83482979D01*
X139243736Y-83482979D02*
X139267546Y-83459169D01*
X139267546Y-83459169D02*
X139291355Y-83411550D01*
X139291355Y-83411550D02*
X139291355Y-83363931D01*
X139291355Y-83363931D02*
X139267546Y-83316312D01*
X139267546Y-83316312D02*
X139243736Y-83292503D01*
X139243736Y-83292503D02*
X139196117Y-83268693D01*
X139196117Y-83268693D02*
X139077070Y-83268693D01*
X139077070Y-83268693D02*
X139005641Y-83292503D01*
X138505642Y-83721074D02*
X138529451Y-83744884D01*
X138529451Y-83744884D02*
X138600880Y-83768693D01*
X138600880Y-83768693D02*
X138648499Y-83768693D01*
X138648499Y-83768693D02*
X138719927Y-83744884D01*
X138719927Y-83744884D02*
X138767546Y-83697264D01*
X138767546Y-83697264D02*
X138791356Y-83649645D01*
X138791356Y-83649645D02*
X138815165Y-83554407D01*
X138815165Y-83554407D02*
X138815165Y-83482979D01*
X138815165Y-83482979D02*
X138791356Y-83387741D01*
X138791356Y-83387741D02*
X138767546Y-83340122D01*
X138767546Y-83340122D02*
X138719927Y-83292503D01*
X138719927Y-83292503D02*
X138648499Y-83268693D01*
X138648499Y-83268693D02*
X138600880Y-83268693D01*
X138600880Y-83268693D02*
X138529451Y-83292503D01*
X138529451Y-83292503D02*
X138505642Y-83316312D01*
X138053261Y-83768693D02*
X138291356Y-83768693D01*
X138291356Y-83768693D02*
X138291356Y-83268693D01*
X136481833Y-83292503D02*
X136529452Y-83268693D01*
X136529452Y-83268693D02*
X136600881Y-83268693D01*
X136600881Y-83268693D02*
X136672309Y-83292503D01*
X136672309Y-83292503D02*
X136719928Y-83340122D01*
X136719928Y-83340122D02*
X136743738Y-83387741D01*
X136743738Y-83387741D02*
X136767547Y-83482979D01*
X136767547Y-83482979D02*
X136767547Y-83554407D01*
X136767547Y-83554407D02*
X136743738Y-83649645D01*
X136743738Y-83649645D02*
X136719928Y-83697264D01*
X136719928Y-83697264D02*
X136672309Y-83744884D01*
X136672309Y-83744884D02*
X136600881Y-83768693D01*
X136600881Y-83768693D02*
X136553262Y-83768693D01*
X136553262Y-83768693D02*
X136481833Y-83744884D01*
X136481833Y-83744884D02*
X136458024Y-83721074D01*
X136458024Y-83721074D02*
X136458024Y-83554407D01*
X136458024Y-83554407D02*
X136553262Y-83554407D01*
X136243738Y-83768693D02*
X136243738Y-83268693D01*
X136243738Y-83268693D02*
X135958024Y-83768693D01*
X135958024Y-83768693D02*
X135958024Y-83268693D01*
X135719928Y-83768693D02*
X135719928Y-83268693D01*
X135719928Y-83268693D02*
X135600880Y-83268693D01*
X135600880Y-83268693D02*
X135529452Y-83292503D01*
X135529452Y-83292503D02*
X135481833Y-83340122D01*
X135481833Y-83340122D02*
X135458023Y-83387741D01*
X135458023Y-83387741D02*
X135434214Y-83482979D01*
X135434214Y-83482979D02*
X135434214Y-83554407D01*
X135434214Y-83554407D02*
X135458023Y-83649645D01*
X135458023Y-83649645D02*
X135481833Y-83697264D01*
X135481833Y-83697264D02*
X135529452Y-83744884D01*
X135529452Y-83744884D02*
X135600880Y-83768693D01*
X135600880Y-83768693D02*
X135719928Y-83768693D01*
X134124691Y-83268693D02*
X133815167Y-83268693D01*
X133815167Y-83268693D02*
X133981834Y-83459169D01*
X133981834Y-83459169D02*
X133910405Y-83459169D01*
X133910405Y-83459169D02*
X133862786Y-83482979D01*
X133862786Y-83482979D02*
X133838977Y-83506788D01*
X133838977Y-83506788D02*
X133815167Y-83554407D01*
X133815167Y-83554407D02*
X133815167Y-83673455D01*
X133815167Y-83673455D02*
X133838977Y-83721074D01*
X133838977Y-83721074D02*
X133862786Y-83744884D01*
X133862786Y-83744884D02*
X133910405Y-83768693D01*
X133910405Y-83768693D02*
X134053262Y-83768693D01*
X134053262Y-83768693D02*
X134100881Y-83744884D01*
X134100881Y-83744884D02*
X134124691Y-83721074D01*
X133600882Y-83721074D02*
X133577072Y-83744884D01*
X133577072Y-83744884D02*
X133600882Y-83768693D01*
X133600882Y-83768693D02*
X133624691Y-83744884D01*
X133624691Y-83744884D02*
X133600882Y-83721074D01*
X133600882Y-83721074D02*
X133600882Y-83768693D01*
X133410406Y-83268693D02*
X133100882Y-83268693D01*
X133100882Y-83268693D02*
X133267549Y-83459169D01*
X133267549Y-83459169D02*
X133196120Y-83459169D01*
X133196120Y-83459169D02*
X133148501Y-83482979D01*
X133148501Y-83482979D02*
X133124692Y-83506788D01*
X133124692Y-83506788D02*
X133100882Y-83554407D01*
X133100882Y-83554407D02*
X133100882Y-83673455D01*
X133100882Y-83673455D02*
X133124692Y-83721074D01*
X133124692Y-83721074D02*
X133148501Y-83744884D01*
X133148501Y-83744884D02*
X133196120Y-83768693D01*
X133196120Y-83768693D02*
X133338977Y-83768693D01*
X133338977Y-83768693D02*
X133386596Y-83744884D01*
X133386596Y-83744884D02*
X133410406Y-83721074D01*
X132958025Y-83268693D02*
X132791359Y-83768693D01*
X132791359Y-83768693D02*
X132624692Y-83268693D01*
D10*
D11*
X103744360Y-56676334D02*
X104030074Y-56676334D01*
X103887217Y-56176334D02*
X103887217Y-56676334D01*
X104149121Y-56676334D02*
X104482454Y-56176334D01*
X104482454Y-56676334D02*
X104149121Y-56176334D01*
X106482452Y-56176334D02*
X106315786Y-56414429D01*
X106196738Y-56176334D02*
X106196738Y-56676334D01*
X106196738Y-56676334D02*
X106387214Y-56676334D01*
X106387214Y-56676334D02*
X106434833Y-56652524D01*
X106434833Y-56652524D02*
X106458643Y-56628715D01*
X106458643Y-56628715D02*
X106482452Y-56581096D01*
X106482452Y-56581096D02*
X106482452Y-56509667D01*
X106482452Y-56509667D02*
X106458643Y-56462048D01*
X106458643Y-56462048D02*
X106434833Y-56438239D01*
X106434833Y-56438239D02*
X106387214Y-56414429D01*
X106387214Y-56414429D02*
X106196738Y-56414429D01*
X106649119Y-56676334D02*
X106982452Y-56176334D01*
X106982452Y-56676334D02*
X106649119Y-56176334D01*
X108934831Y-56676334D02*
X108696736Y-56676334D01*
X108696736Y-56676334D02*
X108672927Y-56438239D01*
X108672927Y-56438239D02*
X108696736Y-56462048D01*
X108696736Y-56462048D02*
X108744355Y-56485858D01*
X108744355Y-56485858D02*
X108863403Y-56485858D01*
X108863403Y-56485858D02*
X108911022Y-56462048D01*
X108911022Y-56462048D02*
X108934831Y-56438239D01*
X108934831Y-56438239D02*
X108958641Y-56390620D01*
X108958641Y-56390620D02*
X108958641Y-56271572D01*
X108958641Y-56271572D02*
X108934831Y-56223953D01*
X108934831Y-56223953D02*
X108911022Y-56200144D01*
X108911022Y-56200144D02*
X108863403Y-56176334D01*
X108863403Y-56176334D02*
X108744355Y-56176334D01*
X108744355Y-56176334D02*
X108696736Y-56200144D01*
X108696736Y-56200144D02*
X108672927Y-56223953D01*
X109101498Y-56676334D02*
X109268164Y-56176334D01*
X109268164Y-56176334D02*
X109434831Y-56676334D01*
X111387210Y-56652524D02*
X111339591Y-56676334D01*
X111339591Y-56676334D02*
X111268162Y-56676334D01*
X111268162Y-56676334D02*
X111196734Y-56652524D01*
X111196734Y-56652524D02*
X111149115Y-56604905D01*
X111149115Y-56604905D02*
X111125305Y-56557286D01*
X111125305Y-56557286D02*
X111101496Y-56462048D01*
X111101496Y-56462048D02*
X111101496Y-56390620D01*
X111101496Y-56390620D02*
X111125305Y-56295382D01*
X111125305Y-56295382D02*
X111149115Y-56247763D01*
X111149115Y-56247763D02*
X111196734Y-56200144D01*
X111196734Y-56200144D02*
X111268162Y-56176334D01*
X111268162Y-56176334D02*
X111315781Y-56176334D01*
X111315781Y-56176334D02*
X111387210Y-56200144D01*
X111387210Y-56200144D02*
X111411019Y-56223953D01*
X111411019Y-56223953D02*
X111411019Y-56390620D01*
X111411019Y-56390620D02*
X111315781Y-56390620D01*
X111625305Y-56176334D02*
X111625305Y-56676334D01*
X111625305Y-56676334D02*
X111911019Y-56176334D01*
X111911019Y-56176334D02*
X111911019Y-56676334D01*
X112149115Y-56176334D02*
X112149115Y-56676334D01*
X112149115Y-56676334D02*
X112268163Y-56676334D01*
X112268163Y-56676334D02*
X112339591Y-56652524D01*
X112339591Y-56652524D02*
X112387210Y-56604905D01*
X112387210Y-56604905D02*
X112411020Y-56557286D01*
X112411020Y-56557286D02*
X112434829Y-56462048D01*
X112434829Y-56462048D02*
X112434829Y-56390620D01*
X112434829Y-56390620D02*
X112411020Y-56295382D01*
X112411020Y-56295382D02*
X112387210Y-56247763D01*
X112387210Y-56247763D02*
X112339591Y-56200144D01*
X112339591Y-56200144D02*
X112268163Y-56176334D01*
X112268163Y-56176334D02*
X112149115Y-56176334D01*
D10*
D11*
X128803258Y-83292503D02*
X128850877Y-83268693D01*
X128850877Y-83268693D02*
X128922306Y-83268693D01*
X128922306Y-83268693D02*
X128993734Y-83292503D01*
X128993734Y-83292503D02*
X129041353Y-83340122D01*
X129041353Y-83340122D02*
X129065163Y-83387741D01*
X129065163Y-83387741D02*
X129088972Y-83482979D01*
X129088972Y-83482979D02*
X129088972Y-83554407D01*
X129088972Y-83554407D02*
X129065163Y-83649645D01*
X129065163Y-83649645D02*
X129041353Y-83697264D01*
X129041353Y-83697264D02*
X128993734Y-83744884D01*
X128993734Y-83744884D02*
X128922306Y-83768693D01*
X128922306Y-83768693D02*
X128874687Y-83768693D01*
X128874687Y-83768693D02*
X128803258Y-83744884D01*
X128803258Y-83744884D02*
X128779449Y-83721074D01*
X128779449Y-83721074D02*
X128779449Y-83554407D01*
X128779449Y-83554407D02*
X128874687Y-83554407D01*
X128565163Y-83768693D02*
X128565163Y-83268693D01*
X128565163Y-83268693D02*
X128279449Y-83768693D01*
X128279449Y-83768693D02*
X128279449Y-83268693D01*
X128041353Y-83768693D02*
X128041353Y-83268693D01*
X128041353Y-83268693D02*
X127922305Y-83268693D01*
X127922305Y-83268693D02*
X127850877Y-83292503D01*
X127850877Y-83292503D02*
X127803258Y-83340122D01*
X127803258Y-83340122D02*
X127779448Y-83387741D01*
X127779448Y-83387741D02*
X127755639Y-83482979D01*
X127755639Y-83482979D02*
X127755639Y-83554407D01*
X127755639Y-83554407D02*
X127779448Y-83649645D01*
X127779448Y-83649645D02*
X127803258Y-83697264D01*
X127803258Y-83697264D02*
X127850877Y-83744884D01*
X127850877Y-83744884D02*
X127922305Y-83768693D01*
X127922305Y-83768693D02*
X128041353Y-83768693D01*
X125779450Y-83268693D02*
X126017545Y-83268693D01*
X126017545Y-83268693D02*
X126041354Y-83506788D01*
X126041354Y-83506788D02*
X126017545Y-83482979D01*
X126017545Y-83482979D02*
X125969926Y-83459169D01*
X125969926Y-83459169D02*
X125850878Y-83459169D01*
X125850878Y-83459169D02*
X125803259Y-83482979D01*
X125803259Y-83482979D02*
X125779450Y-83506788D01*
X125779450Y-83506788D02*
X125755640Y-83554407D01*
X125755640Y-83554407D02*
X125755640Y-83673455D01*
X125755640Y-83673455D02*
X125779450Y-83721074D01*
X125779450Y-83721074D02*
X125803259Y-83744884D01*
X125803259Y-83744884D02*
X125850878Y-83768693D01*
X125850878Y-83768693D02*
X125969926Y-83768693D01*
X125969926Y-83768693D02*
X126017545Y-83744884D01*
X126017545Y-83744884D02*
X126041354Y-83721074D01*
X125612783Y-83268693D02*
X125446117Y-83768693D01*
X125446117Y-83768693D02*
X125279450Y-83268693D01*
X123303262Y-83768693D02*
X123469928Y-83530598D01*
X123588976Y-83768693D02*
X123588976Y-83268693D01*
X123588976Y-83268693D02*
X123398500Y-83268693D01*
X123398500Y-83268693D02*
X123350881Y-83292503D01*
X123350881Y-83292503D02*
X123327071Y-83316312D01*
X123327071Y-83316312D02*
X123303262Y-83363931D01*
X123303262Y-83363931D02*
X123303262Y-83435360D01*
X123303262Y-83435360D02*
X123327071Y-83482979D01*
X123327071Y-83482979D02*
X123350881Y-83506788D01*
X123350881Y-83506788D02*
X123398500Y-83530598D01*
X123398500Y-83530598D02*
X123588976Y-83530598D01*
X123136595Y-83268693D02*
X122803262Y-83768693D01*
X122803262Y-83268693D02*
X123136595Y-83768693D01*
X121160406Y-83268693D02*
X120874692Y-83268693D01*
X121017549Y-83768693D02*
X121017549Y-83268693D01*
X120755645Y-83268693D02*
X120422312Y-83768693D01*
X120422312Y-83268693D02*
X120755645Y-83768693D01*
D12*
%TO.P,SW3,1,1*%
%TO.N,GND*%
X130000000Y-57750000D03*
X136500000Y-57750000D03*
%TO.P,SW3,2,2*%
%TO.N,/BTN*%
X130000000Y-62250000D03*
X136500000Y-62250000D03*
%TD*%
D13*
%TO.P,J3,1,Pin_1*%
%TO.N,GND*%
X128400000Y-81225000D03*
D14*
%TO.P,J3,2,Pin_2*%
%TO.N,5V*%
X125860000Y-81225000D03*
%TO.P,J3,3,Pin_3*%
%TO.N,/RXD1*%
X123320000Y-81225000D03*
%TO.P,J3,4,Pin_4*%
%TO.N,/TXD1*%
X120780000Y-81225000D03*
%TD*%
D12*
%TO.P,SW1,1,1*%
%TO.N,GND*%
X154000000Y-63000000D03*
X147500000Y-63000000D03*
%TO.P,SW1,2,2*%
%TO.N,ESP_EN*%
X154000000Y-58500000D03*
X147500000Y-58500000D03*
%TD*%
D15*
%TO.P,U4,1,VS*%
%TO.N,5V*%
X118572500Y-73300000D03*
D16*
%TO.P,U4,2,-IN*%
%TO.N,unconnected-(U4--IN-Pad2)*%
X121112500Y-73300000D03*
%TO.P,U4,3,-V*%
%TO.N,GND*%
X123652500Y-73300000D03*
%TO.P,U4,4,1MOHM_FB*%
%TO.N,/ADC0*%
X126192500Y-73300000D03*
%TO.P,U4,5,OUTPUT*%
X126192500Y-65670000D03*
%TO.P,U4,6*%
%TO.N,N/C*%
X123652500Y-65670000D03*
%TO.P,U4,7*%
X121112500Y-65670000D03*
%TO.P,U4,8,COMMON*%
%TO.N,GND*%
X118572500Y-65670000D03*
%TD*%
D13*
%TO.P,J4,1,Pin_1*%
%TO.N,3V3*%
X133720000Y-81200000D03*
D14*
%TO.P,J4,2,Pin_2*%
%TO.N,GND*%
X136260000Y-81200000D03*
%TO.P,J4,3,Pin_3*%
%TO.N,/SCL*%
X138800000Y-81200000D03*
%TO.P,J4,4,Pin_4*%
%TO.N,/SDA*%
X141340000Y-81200000D03*
%TD*%
D12*
%TO.P,SW2,1,1*%
%TO.N,GND*%
X147500000Y-78000000D03*
X154000000Y-78000000D03*
%TO.P,SW2,2,2*%
%TO.N,ESP_IO0*%
X147500000Y-82500000D03*
X154000000Y-82500000D03*
%TD*%
D13*
%TO.P,J2,1,Pin_1*%
%TO.N,GND*%
X112000000Y-58625000D03*
D14*
%TO.P,J2,2,Pin_2*%
%TO.N,5V*%
X109460000Y-58625000D03*
%TO.P,J2,3,Pin_3*%
%TO.N,/RXD2*%
X106920000Y-58625000D03*
%TO.P,J2,4,Pin_4*%
%TO.N,/TXD2*%
X104380000Y-58625000D03*
%TD*%
D17*
%TO.P,U3,39,GND*%
%TO.N,GND*%
X105000000Y-74150000D03*
X106400000Y-74150000D03*
X104300000Y-73450000D03*
X105700000Y-73450000D03*
X107100000Y-73450000D03*
X105000000Y-72775000D03*
X106400000Y-72775000D03*
X104300000Y-72050000D03*
X105700000Y-72050000D03*
X107100000Y-72050000D03*
X105000000Y-71350000D03*
X106400000Y-71350000D03*
%TD*%
D18*
%TO.P,U2,1,GND*%
%TO.N,GND*%
X144475000Y-65400000D03*
%TO.P,U2,2,TXD*%
%TO.N,RXD0*%
X144475000Y-66670000D03*
%TO.P,U2,3,RXD*%
%TO.N,TXD0*%
X144475000Y-67940000D03*
%TO.P,U2,4,V3*%
%TO.N,5V*%
X144475000Y-69210000D03*
%TO.P,U2,5,UD+*%
%TO.N,/USB_P*%
X144475000Y-70480000D03*
%TO.P,U2,6,UD-*%
%TO.N,/USB_N*%
X144475000Y-71750000D03*
%TO.P,U2,7,NC*%
%TO.N,unconnected-(U2-NC-Pad7)*%
X144475000Y-73020000D03*
%TO.P,U2,8,NC*%
%TO.N,unconnected-(U2-NC-Pad8)*%
X144475000Y-74290000D03*
%TO.P,U2,9,~{CTS}*%
%TO.N,unconnected-(U2-~{CTS}-Pad9)*%
X139525000Y-74290000D03*
%TO.P,U2,10,~{DSR}*%
%TO.N,unconnected-(U2-~{DSR}-Pad10)*%
X139525000Y-73020000D03*
%TO.P,U2,11,~{RI}*%
%TO.N,unconnected-(U2-~{RI}-Pad11)*%
X139525000Y-71750000D03*
%TO.P,U2,12,~{DCD}*%
%TO.N,unconnected-(U2-~{DCD}-Pad12)*%
X139525000Y-70480000D03*
%TO.P,U2,13,~{DTR}*%
%TO.N,Net-(Q1-G)*%
X139525000Y-69210000D03*
%TO.P,U2,14,~{RTS}*%
%TO.N,Net-(Q1-S)*%
X139525000Y-67940000D03*
%TO.P,U2,15,R232*%
%TO.N,unconnected-(U2-R232-Pad15)*%
X139525000Y-66670000D03*
%TO.P,U2,16,VCC*%
%TO.N,5V*%
X139525000Y-65400000D03*
%TD*%
D19*
%TO.P,C3,1*%
%TO.N,5V*%
X137100000Y-76400000D03*
%TO.P,C3,2*%
%TO.N,GND*%
X137100000Y-78300000D03*
%TD*%
D20*
%TO.P,Q1,1,G*%
%TO.N,Net-(Q1-G)*%
X134725000Y-67150000D03*
%TO.P,Q1,2,S*%
%TO.N,Net-(Q1-S)*%
X134725000Y-65250000D03*
%TO.P,Q1,3,D*%
%TO.N,ESP_EN*%
X136600000Y-66200000D03*
%TD*%
%TO.P,Q2,1,G*%
%TO.N,Net-(Q1-S)*%
X133000000Y-78350000D03*
%TO.P,Q2,2,S*%
%TO.N,Net-(Q1-G)*%
X133000000Y-76450000D03*
%TO.P,Q2,3,D*%
%TO.N,ESP_IO0*%
X134875000Y-77400000D03*
%TD*%
D21*
%TO.P,D2,1,K*%
%TO.N,5V*%
X140000000Y-77000000D03*
%TO.P,D2,2,A*%
%TO.N,Net-(D2-A)*%
X144000000Y-77000000D03*
%TD*%
D22*
%TO.N,GND*%
X111500000Y-82450000D03*
X101200000Y-57600000D03*
X106112500Y-82400000D03*
X115750000Y-76950000D03*
X97980000Y-62500000D03*
%TO.N,5V*%
X127425000Y-77000000D03*
X137100000Y-76400000D03*
X122090000Y-75515000D03*
X115900000Y-61350000D03*
X127425000Y-75650000D03*
X116950000Y-62400000D03*
X137600000Y-73850000D03*
%TO.N,ESP_EN*%
X102562500Y-82450000D03*
X125741303Y-75650000D03*
X132200000Y-67150000D03*
X138750000Y-63250000D03*
%TO.N,ESP_IO0*%
X114400000Y-63900000D03*
X130117670Y-78338349D03*
X134875000Y-77400000D03*
%TO.N,/BTN*%
X127579994Y-62734520D03*
X124800000Y-67200000D03*
X111950000Y-80000000D03*
D23*
%TO.N,3V3*%
X121350000Y-58300000D03*
X123700000Y-58800000D03*
D22*
X109600000Y-82450000D03*
X126525000Y-74725000D03*
X128507108Y-78757108D03*
X129500000Y-71800000D03*
X129300000Y-67100000D03*
%TO.N,Net-(D2-A)*%
X144000000Y-77000000D03*
%TO.N,/RXD1*%
X117765437Y-76983093D03*
X115740000Y-74420000D03*
%TO.N,/TXD1*%
X117800000Y-77782346D03*
X115740000Y-73150000D03*
%TO.N,/SCL*%
X126595000Y-68250000D03*
X125400000Y-57900000D03*
X127600000Y-63534272D03*
X108250000Y-64000000D03*
X117400000Y-60750000D03*
X100520000Y-62500000D03*
X114800000Y-59325000D03*
%TO.N,/SDA*%
X104330000Y-62500000D03*
X118325735Y-61474265D03*
X121750000Y-63550000D03*
%TO.N,Net-(Q1-G)*%
X137750000Y-69400000D03*
X136256671Y-68681671D03*
%TO.N,Net-(Q1-S)*%
X134700000Y-65250000D03*
X137700000Y-68550000D03*
%TO.N,Net-(U3-IO5)*%
X118031250Y-63756250D03*
X109400000Y-64000000D03*
%TO.N,Net-(U3-IO12)*%
X120475000Y-78000000D03*
X114490000Y-80000000D03*
%TO.N,RXD0*%
X103060000Y-62500000D03*
X138700735Y-61799265D03*
X140399632Y-61801102D03*
%TO.N,TXD0*%
X101790000Y-62500000D03*
%TO.N,/ADC0*%
X104330000Y-80000000D03*
%TO.N,/USB_N*%
X144475000Y-71750000D03*
%TO.N,/USB_P*%
X144475000Y-70480000D03*
%TD*%
D24*
%TO.N,GND*%
X145200000Y-65400000D02*
X147500000Y-63100000D01*
X144475000Y-65400000D02*
X145200000Y-65400000D01*
X147500000Y-63100000D02*
X147500000Y-63000000D01*
%TO.N,5V*%
X139870552Y-65400000D02*
X139525000Y-65400000D01*
X137700000Y-77000000D02*
X137100000Y-76400000D01*
X141860276Y-67389724D02*
X139870552Y-65400000D01*
X137600000Y-73850000D02*
X137760000Y-73690000D01*
X127425000Y-75650000D02*
X127425000Y-77000000D01*
X140000000Y-77000000D02*
X137700000Y-77000000D01*
X118390000Y-73205000D02*
X118375000Y-73205000D01*
X137600000Y-75900000D02*
X137100000Y-76400000D01*
X122090000Y-75515000D02*
X120651250Y-75515000D01*
X137760000Y-73690000D02*
X140470552Y-73690000D01*
X144475000Y-69210000D02*
X143680552Y-69210000D01*
X115900000Y-61350000D02*
X116950000Y-62400000D01*
X141000000Y-68250000D02*
X141860276Y-67389724D01*
X140470552Y-73690000D02*
X141000000Y-73160552D01*
X137600000Y-73850000D02*
X137600000Y-75900000D01*
X120651250Y-75515000D02*
X118572500Y-73436250D01*
X143680552Y-69210000D02*
X141860276Y-67389724D01*
X141000000Y-73160552D02*
X141000000Y-68250000D01*
X118572500Y-73436250D02*
X118572500Y-73300000D01*
%TO.N,ESP_EN*%
X121231372Y-79400000D02*
X119750000Y-79400000D01*
X132200000Y-67150000D02*
X133150000Y-66200000D01*
X138750000Y-63250000D02*
X138750000Y-64050000D01*
X119750000Y-79400000D02*
X115300000Y-83850000D01*
X115300000Y-83850000D02*
X103962500Y-83850000D01*
X124741303Y-76650000D02*
X123981372Y-76650000D01*
X133150000Y-66200000D02*
X136600000Y-66200000D01*
X103962500Y-83850000D02*
X102562500Y-82450000D01*
X125741303Y-75650000D02*
X124741303Y-76650000D01*
X138750000Y-64050000D02*
X136600000Y-66200000D01*
X123981372Y-76650000D02*
X121231372Y-79400000D01*
%TO.N,ESP_IO0*%
X114400000Y-63900000D02*
X115385785Y-63900000D01*
X122248529Y-64200000D02*
X122698529Y-63750000D01*
X127550000Y-65500000D02*
X127550000Y-74360784D01*
X119150000Y-63000000D02*
X120350000Y-64200000D01*
X115385785Y-63900000D02*
X116285785Y-63000000D01*
X120350000Y-64200000D02*
X122248529Y-64200000D01*
X116285785Y-63000000D02*
X119150000Y-63000000D01*
X130117670Y-76928454D02*
X130117670Y-78338349D01*
X122698529Y-63750000D02*
X125800000Y-63750000D01*
X125800000Y-63750000D02*
X127550000Y-65500000D01*
X127550000Y-74360784D02*
X130117670Y-76928454D01*
%TO.N,/BTN*%
X124800000Y-67200000D02*
X121800000Y-67200000D01*
X115800000Y-69600000D02*
X111950000Y-73450000D01*
X127579994Y-62734520D02*
X127639514Y-62675000D01*
X111950000Y-73450000D02*
X111950000Y-80000000D01*
X127639514Y-62675000D02*
X130000000Y-62675000D01*
X121800000Y-67200000D02*
X119400000Y-69600000D01*
X119400000Y-69600000D02*
X115800000Y-69600000D01*
%TO.N,3V3*%
X110400000Y-83250000D02*
X109600000Y-82450000D01*
X114984314Y-83250000D02*
X110400000Y-83250000D01*
X123010000Y-58800000D02*
X122510000Y-58300000D01*
X122510000Y-58300000D02*
X121350000Y-58300000D01*
X126525000Y-74725000D02*
X126525000Y-76948529D01*
X129300000Y-67100000D02*
X129450000Y-67250000D01*
X126525000Y-74725000D02*
X126332605Y-74917395D01*
X127851471Y-78275000D02*
X128025000Y-78275000D01*
X126525000Y-76948529D02*
X127851471Y-78275000D01*
X129450000Y-71750000D02*
X129500000Y-71800000D01*
X126332605Y-74917395D02*
X125148291Y-74917395D01*
X123700000Y-58800000D02*
X123010000Y-58800000D01*
X121065686Y-79000000D02*
X119234314Y-79000000D01*
X119234314Y-79000000D02*
X114984314Y-83250000D01*
X125148291Y-74917395D02*
X121065686Y-79000000D01*
X129450000Y-67250000D02*
X129450000Y-71750000D01*
X128025000Y-78275000D02*
X128507108Y-78757108D01*
%TO.N,/RXD1*%
X117250000Y-76467656D02*
X117765437Y-76983093D01*
X117250000Y-75200000D02*
X117250000Y-76467656D01*
X116470000Y-74420000D02*
X117250000Y-75200000D01*
X115740000Y-74420000D02*
X116470000Y-74420000D01*
%TO.N,/TXD1*%
X118365437Y-75515437D02*
X118365437Y-77434563D01*
X115740000Y-73150000D02*
X116000000Y-73150000D01*
X118365437Y-77434563D02*
X118017654Y-77782346D01*
X118017654Y-77782346D02*
X117800000Y-77782346D01*
X116000000Y-73150000D02*
X118365437Y-75515437D01*
%TO.N,/SCL*%
X138710000Y-81110000D02*
X138710000Y-81250000D01*
X123975000Y-59325000D02*
X114800000Y-59325000D01*
X137300000Y-79700000D02*
X138710000Y-81110000D01*
X126350000Y-62600000D02*
X120300000Y-62600000D01*
X126595000Y-68250000D02*
X127150000Y-68805000D01*
X100520000Y-62770000D02*
X100520000Y-62500000D01*
X125400000Y-57900000D02*
X123975000Y-59325000D01*
X108150000Y-63900000D02*
X101650000Y-63900000D01*
X117450000Y-60800000D02*
X117400000Y-60750000D01*
X129000000Y-76376470D02*
X129000000Y-78250000D01*
X101650000Y-63900000D02*
X100520000Y-62770000D01*
X127150000Y-68805000D02*
X127150000Y-74526470D01*
X127284272Y-63534272D02*
X126350000Y-62600000D01*
X120300000Y-62600000D02*
X118500000Y-60800000D01*
X127600000Y-63534272D02*
X127284272Y-63534272D01*
X130450000Y-79700000D02*
X137300000Y-79700000D01*
X129000000Y-78250000D02*
X130450000Y-79700000D01*
X118500000Y-60800000D02*
X117450000Y-60800000D01*
X108250000Y-64000000D02*
X108150000Y-63900000D01*
X127150000Y-74526470D02*
X129000000Y-76376470D01*
%TO.N,/SDA*%
X122332843Y-63550000D02*
X122682843Y-63200000D01*
X127950000Y-74195098D02*
X130517670Y-76762768D01*
X130517670Y-76762768D02*
X130517670Y-77767670D01*
X139390000Y-79250000D02*
X141250000Y-81110000D01*
X141250000Y-81110000D02*
X141250000Y-81250000D01*
X120450000Y-63550000D02*
X118374265Y-61474265D01*
X127950000Y-65300000D02*
X127950000Y-74195098D01*
X132000000Y-79250000D02*
X139390000Y-79250000D01*
X106080000Y-60750000D02*
X104330000Y-62500000D01*
X118325735Y-61474265D02*
X117275736Y-61474265D01*
X117275736Y-61474265D02*
X116551471Y-60750000D01*
X118374265Y-61474265D02*
X118325735Y-61474265D01*
X116551471Y-60750000D02*
X106080000Y-60750000D01*
X121750000Y-63550000D02*
X122332843Y-63550000D01*
X121750000Y-63550000D02*
X120450000Y-63550000D01*
X125850000Y-63200000D02*
X127950000Y-65300000D01*
X122682843Y-63200000D02*
X125850000Y-63200000D01*
X130517670Y-77767670D02*
X132000000Y-79250000D01*
%TO.N,Net-(Q1-G)*%
X136256671Y-68681671D02*
X134725000Y-67150000D01*
X133848340Y-76450000D02*
X133000000Y-76450000D01*
X136550000Y-68975000D02*
X136550000Y-73748340D01*
X136256671Y-68681671D02*
X136550000Y-68975000D01*
X137750000Y-69400000D02*
X137940000Y-69210000D01*
X136550000Y-73748340D02*
X133848340Y-76450000D01*
X137940000Y-69210000D02*
X139525000Y-69210000D01*
%TO.N,Net-(Q1-S)*%
X133000000Y-77864026D02*
X133000000Y-78350000D01*
X136950000Y-69100000D02*
X136950000Y-73914026D01*
X137700000Y-68550000D02*
X138310000Y-67940000D01*
X138310000Y-67940000D02*
X139525000Y-67940000D01*
X137700000Y-68550000D02*
X137500000Y-68550000D01*
X137500000Y-68550000D02*
X136950000Y-69100000D01*
X136950000Y-73914026D02*
X133000000Y-77864026D01*
%TO.N,Net-(U3-IO5)*%
X118031250Y-63756250D02*
X117287500Y-64500000D01*
X117287500Y-64500000D02*
X109700000Y-64500000D01*
X109700000Y-64500000D02*
X109400000Y-64200000D01*
%TO.N,Net-(U3-IO12)*%
X114490000Y-80000000D02*
X114590000Y-79900000D01*
X118400000Y-78050000D02*
X120425000Y-78050000D01*
X116550000Y-79900000D02*
X118400000Y-78050000D01*
X120425000Y-78050000D02*
X120475000Y-78000000D01*
X114590000Y-79900000D02*
X116550000Y-79900000D01*
%TO.N,RXD0*%
X140399632Y-61801102D02*
X140399632Y-62083946D01*
X116665686Y-60150000D02*
X116465686Y-60350000D01*
X137051470Y-60150000D02*
X116665686Y-60150000D01*
X140399632Y-62083946D02*
X141400000Y-63084314D01*
X142495686Y-65740552D02*
X143200000Y-65740552D01*
X143200000Y-65740552D02*
X144129448Y-66670000D01*
X105210000Y-60350000D02*
X103060000Y-62500000D01*
X144129448Y-66670000D02*
X144475000Y-66670000D01*
X116465686Y-60350000D02*
X105210000Y-60350000D01*
X141400000Y-63084314D02*
X141400000Y-64644866D01*
X141400000Y-64644866D02*
X142495686Y-65740552D01*
X138700735Y-61799265D02*
X137051470Y-60150000D01*
%TO.N,TXD0*%
X141000000Y-64810552D02*
X142330000Y-66140552D01*
X142330000Y-66140552D02*
X142390552Y-66140552D01*
X101790000Y-62500000D02*
X104340000Y-59950000D01*
X104340000Y-59950000D02*
X116300000Y-59950000D01*
X143200000Y-66950000D02*
X143200000Y-67010552D01*
X143200000Y-67010552D02*
X144129448Y-67940000D01*
X137500000Y-59750000D02*
X141000000Y-63250000D01*
X144129448Y-67940000D02*
X144475000Y-67940000D01*
X116500000Y-59750000D02*
X137500000Y-59750000D01*
X142390552Y-66140552D02*
X143200000Y-66950000D01*
X116300000Y-59950000D02*
X116500000Y-59750000D01*
X141000000Y-63250000D02*
X141000000Y-64810552D01*
%TO.N,/ADC0*%
X126192500Y-73300000D02*
X125582500Y-72690000D01*
X120892500Y-78600000D02*
X126192500Y-73300000D01*
X105580000Y-81250000D02*
X116065686Y-81250000D01*
X125582500Y-66280000D02*
X126192500Y-65670000D01*
X104330000Y-80000000D02*
X105580000Y-81250000D01*
X126010000Y-73482500D02*
X126010000Y-73380000D01*
X125582500Y-72690000D02*
X125582500Y-66280000D01*
X116065686Y-81250000D02*
X118715686Y-78600000D01*
X118715686Y-78600000D02*
X120892500Y-78600000D01*
%TD*%
%TA.AperFunction,Conductor*%
%TO.N,GND*%
G36*
X103431899Y-56020185D02*
G01*
X103477654Y-56072989D01*
X103488860Y-56124500D01*
X103488860Y-56935561D01*
X112693710Y-56935561D01*
X112693710Y-56124500D01*
X112713395Y-56057461D01*
X112766199Y-56011706D01*
X112817710Y-56000500D01*
X156324053Y-56000500D01*
X156332932Y-56000818D01*
X156340872Y-56001388D01*
X156451674Y-56009343D01*
X156470991Y-56012275D01*
X156641778Y-56052169D01*
X156660401Y-56058100D01*
X156822799Y-56124337D01*
X156840251Y-56133118D01*
X156990227Y-56224056D01*
X157006088Y-56235475D01*
X157139904Y-56348847D01*
X157153775Y-56362619D01*
X157268111Y-56495609D01*
X157279647Y-56511389D01*
X157371660Y-56660690D01*
X157380572Y-56678087D01*
X157447985Y-56840004D01*
X157454052Y-56858586D01*
X157495180Y-57029076D01*
X157498252Y-57048380D01*
X157511677Y-57218154D01*
X157512063Y-57227929D01*
X157512063Y-82689063D01*
X157512061Y-82689097D01*
X157512062Y-82757701D01*
X157511680Y-82767429D01*
X157497448Y-82948311D01*
X157494404Y-82967530D01*
X157453193Y-83139199D01*
X157447180Y-83157706D01*
X157379619Y-83320816D01*
X157370786Y-83338153D01*
X157278539Y-83488690D01*
X157267101Y-83504432D01*
X157152441Y-83638682D01*
X157138682Y-83652441D01*
X157004432Y-83767101D01*
X156988690Y-83778539D01*
X156838153Y-83870786D01*
X156820816Y-83879619D01*
X156657706Y-83947180D01*
X156639199Y-83953193D01*
X156467530Y-83994404D01*
X156448311Y-83997448D01*
X156267463Y-84011677D01*
X156257678Y-84012059D01*
X142222140Y-84005381D01*
X142155110Y-83985665D01*
X142109380Y-83932839D01*
X142098199Y-83881381D01*
X142098199Y-83009465D01*
X132365465Y-83009465D01*
X132365465Y-83876632D01*
X132345780Y-83943671D01*
X132292976Y-83989426D01*
X132241406Y-84000632D01*
X129471794Y-83999314D01*
X129404764Y-83979598D01*
X129359034Y-83926772D01*
X129347853Y-83875314D01*
X129347853Y-83009466D01*
X120163818Y-83009466D01*
X120163818Y-83870827D01*
X120144133Y-83937866D01*
X120091329Y-83983621D01*
X120039759Y-83994827D01*
X115881423Y-83992849D01*
X115814393Y-83973133D01*
X115768663Y-83920307D01*
X115758753Y-83851144D01*
X115787808Y-83787602D01*
X115793786Y-83781183D01*
X118349970Y-81225000D01*
X119724417Y-81225000D01*
X119744699Y-81430932D01*
X119767776Y-81507007D01*
X119804768Y-81628954D01*
X119902315Y-81811450D01*
X119902317Y-81811452D01*
X120033589Y-81971410D01*
X120056299Y-81990047D01*
X120193550Y-82102685D01*
X120376046Y-82200232D01*
X120574066Y-82260300D01*
X120574065Y-82260300D01*
X120592529Y-82262118D01*
X120780000Y-82280583D01*
X120985934Y-82260300D01*
X121183954Y-82200232D01*
X121366450Y-82102685D01*
X121526410Y-81971410D01*
X121657685Y-81811450D01*
X121755232Y-81628954D01*
X121815300Y-81430934D01*
X121835583Y-81225000D01*
X122264417Y-81225000D01*
X122284699Y-81430932D01*
X122307776Y-81507007D01*
X122344768Y-81628954D01*
X122442315Y-81811450D01*
X122442317Y-81811452D01*
X122573589Y-81971410D01*
X122596299Y-81990047D01*
X122733550Y-82102685D01*
X122916046Y-82200232D01*
X123114066Y-82260300D01*
X123114065Y-82260300D01*
X123132529Y-82262118D01*
X123320000Y-82280583D01*
X123525934Y-82260300D01*
X123723954Y-82200232D01*
X123906450Y-82102685D01*
X124066410Y-81971410D01*
X124197685Y-81811450D01*
X124295232Y-81628954D01*
X124355300Y-81430934D01*
X124375583Y-81225000D01*
X124804417Y-81225000D01*
X124824699Y-81430932D01*
X124847776Y-81507007D01*
X124884768Y-81628954D01*
X124982315Y-81811450D01*
X124982317Y-81811452D01*
X125113589Y-81971410D01*
X125136299Y-81990047D01*
X125273550Y-82102685D01*
X125456046Y-82200232D01*
X125654066Y-82260300D01*
X125654065Y-82260300D01*
X125672529Y-82262118D01*
X125860000Y-82280583D01*
X126065934Y-82260300D01*
X126263954Y-82200232D01*
X126446450Y-82102685D01*
X126606410Y-81971410D01*
X126737685Y-81811450D01*
X126816643Y-81663730D01*
X126865605Y-81613888D01*
X126933742Y-81598428D01*
X126999422Y-81622260D01*
X127041791Y-81677818D01*
X127050000Y-81722186D01*
X127050000Y-82122844D01*
X127056401Y-82182372D01*
X127056403Y-82182379D01*
X127106645Y-82317086D01*
X127106649Y-82317093D01*
X127192809Y-82432187D01*
X127192812Y-82432190D01*
X127307906Y-82518350D01*
X127307913Y-82518354D01*
X127442620Y-82568596D01*
X127442627Y-82568598D01*
X127502155Y-82574999D01*
X127502172Y-82575000D01*
X128150000Y-82575000D01*
X128150000Y-81658012D01*
X128207007Y-81690925D01*
X128334174Y-81725000D01*
X128465826Y-81725000D01*
X128592993Y-81690925D01*
X128650000Y-81658012D01*
X128650000Y-82575000D01*
X129297828Y-82575000D01*
X129297844Y-82574999D01*
X129357372Y-82568598D01*
X129357379Y-82568596D01*
X129492086Y-82518354D01*
X129492093Y-82518350D01*
X129607187Y-82432190D01*
X129607190Y-82432187D01*
X129693350Y-82317093D01*
X129693354Y-82317086D01*
X129743596Y-82182379D01*
X129743598Y-82182372D01*
X129749999Y-82122844D01*
X129750000Y-82122827D01*
X129750000Y-81475000D01*
X128833012Y-81475000D01*
X128865925Y-81417993D01*
X128900000Y-81290826D01*
X128900000Y-81159174D01*
X128865925Y-81032007D01*
X128833012Y-80975000D01*
X129750000Y-80975000D01*
X129750000Y-80327172D01*
X129749999Y-80327155D01*
X129743598Y-80267627D01*
X129743596Y-80267620D01*
X129693354Y-80132913D01*
X129693350Y-80132906D01*
X129607190Y-80017812D01*
X129607187Y-80017809D01*
X129492093Y-79931649D01*
X129492086Y-79931645D01*
X129357379Y-79881403D01*
X129357372Y-79881401D01*
X129297844Y-79875000D01*
X128650000Y-79875000D01*
X128650000Y-80791988D01*
X128592993Y-80759075D01*
X128465826Y-80725000D01*
X128334174Y-80725000D01*
X128207007Y-80759075D01*
X128150000Y-80791988D01*
X128150000Y-79875000D01*
X127502155Y-79875000D01*
X127442627Y-79881401D01*
X127442620Y-79881403D01*
X127307913Y-79931645D01*
X127307906Y-79931649D01*
X127192812Y-80017809D01*
X127192809Y-80017812D01*
X127106649Y-80132906D01*
X127106645Y-80132913D01*
X127056403Y-80267620D01*
X127056401Y-80267627D01*
X127050000Y-80327155D01*
X127050000Y-80727813D01*
X127030315Y-80794852D01*
X126977511Y-80840607D01*
X126908353Y-80850551D01*
X126844797Y-80821526D01*
X126816642Y-80786267D01*
X126805028Y-80764539D01*
X126737685Y-80638550D01*
X126642382Y-80522422D01*
X126606410Y-80478589D01*
X126446452Y-80347317D01*
X126446453Y-80347317D01*
X126446450Y-80347315D01*
X126263954Y-80249768D01*
X126065934Y-80189700D01*
X126065932Y-80189699D01*
X126065934Y-80189699D01*
X125860000Y-80169417D01*
X125654067Y-80189699D01*
X125456043Y-80249769D01*
X125345898Y-80308643D01*
X125273550Y-80347315D01*
X125273548Y-80347316D01*
X125273547Y-80347317D01*
X125113589Y-80478589D01*
X124982317Y-80638547D01*
X124982315Y-80638550D01*
X124951075Y-80696995D01*
X124884769Y-80821043D01*
X124824699Y-81019067D01*
X124804417Y-81225000D01*
X124375583Y-81225000D01*
X124355300Y-81019066D01*
X124295232Y-80821046D01*
X124197685Y-80638550D01*
X124102382Y-80522422D01*
X124066410Y-80478589D01*
X123906452Y-80347317D01*
X123906453Y-80347317D01*
X123906450Y-80347315D01*
X123723954Y-80249768D01*
X123525934Y-80189700D01*
X123525932Y-80189699D01*
X123525934Y-80189699D01*
X123320000Y-80169417D01*
X123114067Y-80189699D01*
X122916043Y-80249769D01*
X122805898Y-80308643D01*
X122733550Y-80347315D01*
X122733548Y-80347316D01*
X122733547Y-80347317D01*
X122573589Y-80478589D01*
X122442317Y-80638547D01*
X122442315Y-80638550D01*
X122411075Y-80696995D01*
X122344769Y-80821043D01*
X122284699Y-81019067D01*
X122264417Y-81225000D01*
X121835583Y-81225000D01*
X121815300Y-81019066D01*
X121755232Y-80821046D01*
X121657685Y-80638550D01*
X121562382Y-80522422D01*
X121526410Y-80478589D01*
X121366452Y-80347317D01*
X121366453Y-80347317D01*
X121366450Y-80347315D01*
X121183954Y-80249768D01*
X120985934Y-80189700D01*
X120985932Y-80189699D01*
X120985934Y-80189699D01*
X120780000Y-80169417D01*
X120574067Y-80189699D01*
X120376043Y-80249769D01*
X120265898Y-80308643D01*
X120193550Y-80347315D01*
X120193548Y-80347316D01*
X120193547Y-80347317D01*
X120033589Y-80478589D01*
X119902317Y-80638547D01*
X119902315Y-80638550D01*
X119871075Y-80696995D01*
X119804769Y-80821043D01*
X119744699Y-81019067D01*
X119724417Y-81225000D01*
X118349970Y-81225000D01*
X119838152Y-79736819D01*
X119899475Y-79703334D01*
X119925833Y-79700500D01*
X121270932Y-79700500D01*
X121270934Y-79700500D01*
X121347361Y-79680021D01*
X121415883Y-79640460D01*
X121471832Y-79584511D01*
X124069524Y-76986819D01*
X124130847Y-76953334D01*
X124157205Y-76950500D01*
X124780863Y-76950500D01*
X124780865Y-76950500D01*
X124857292Y-76930021D01*
X124925814Y-76890460D01*
X124981763Y-76834511D01*
X125629454Y-76186818D01*
X125690777Y-76153334D01*
X125717135Y-76150500D01*
X125813265Y-76150500D01*
X125813265Y-76150499D01*
X125920424Y-76119035D01*
X125951353Y-76109954D01*
X125951353Y-76109953D01*
X125951356Y-76109953D01*
X126033460Y-76057187D01*
X126100500Y-76037503D01*
X126167539Y-76057188D01*
X126213294Y-76109991D01*
X126224500Y-76161503D01*
X126224500Y-76988091D01*
X126227691Y-77000000D01*
X126244979Y-77064519D01*
X126244982Y-77064524D01*
X126284535Y-77133033D01*
X126284539Y-77133038D01*
X126284540Y-77133040D01*
X127611011Y-78459511D01*
X127666960Y-78515460D01*
X127666962Y-78515461D01*
X127666966Y-78515464D01*
X127726785Y-78550000D01*
X127735482Y-78555021D01*
X127811909Y-78575500D01*
X127849167Y-78575500D01*
X127916206Y-78595185D01*
X127936848Y-78611819D01*
X127967712Y-78642683D01*
X128001197Y-78704006D01*
X128002769Y-78748010D01*
X128001461Y-78757107D01*
X128021942Y-78899564D01*
X128072165Y-79009535D01*
X128081731Y-79030481D01*
X128175980Y-79139251D01*
X128297055Y-79217061D01*
X128297058Y-79217062D01*
X128297057Y-79217062D01*
X128435144Y-79257607D01*
X128435146Y-79257608D01*
X128435147Y-79257608D01*
X128579070Y-79257608D01*
X128579070Y-79257607D01*
X128717161Y-79217061D01*
X128838236Y-79139251D01*
X128932485Y-79030481D01*
X128990919Y-78902529D01*
X129036671Y-78849729D01*
X129103711Y-78830044D01*
X129170750Y-78849728D01*
X129191392Y-78866363D01*
X130265489Y-79940460D01*
X130334012Y-79980022D01*
X130410438Y-80000500D01*
X130489562Y-80000500D01*
X132631033Y-80000500D01*
X132698072Y-80020185D01*
X132743827Y-80072989D01*
X132753771Y-80142147D01*
X132730139Y-80193893D01*
X132732233Y-80195293D01*
X132681132Y-80271769D01*
X132681131Y-80271770D01*
X132669500Y-80330247D01*
X132669500Y-82069752D01*
X132681131Y-82128229D01*
X132681132Y-82128230D01*
X132725447Y-82194552D01*
X132791769Y-82238867D01*
X132791770Y-82238868D01*
X132850247Y-82250499D01*
X132850250Y-82250500D01*
X132850252Y-82250500D01*
X134589750Y-82250500D01*
X134589751Y-82250499D01*
X134604568Y-82247552D01*
X134648229Y-82238868D01*
X134648229Y-82238867D01*
X134648231Y-82238867D01*
X134714552Y-82194552D01*
X134758867Y-82128231D01*
X134758867Y-82128229D01*
X134758868Y-82128229D01*
X134768922Y-82077682D01*
X134770500Y-82069748D01*
X134770500Y-81759456D01*
X134790185Y-81692417D01*
X134842989Y-81646662D01*
X134912147Y-81636718D01*
X134975703Y-81665743D01*
X135006882Y-81707051D01*
X135086400Y-81877578D01*
X135221894Y-82071082D01*
X135388917Y-82238105D01*
X135582421Y-82373600D01*
X135796507Y-82473429D01*
X135796516Y-82473433D01*
X136010000Y-82530634D01*
X136010000Y-81633012D01*
X136067007Y-81665925D01*
X136194174Y-81700000D01*
X136325826Y-81700000D01*
X136452993Y-81665925D01*
X136510000Y-81633012D01*
X136510000Y-82530633D01*
X136624333Y-82499999D01*
X146294357Y-82499999D01*
X146294357Y-82500000D01*
X146314884Y-82721535D01*
X146314885Y-82721537D01*
X146375769Y-82935523D01*
X146375775Y-82935538D01*
X146474938Y-83134683D01*
X146474943Y-83134691D01*
X146609020Y-83312238D01*
X146773437Y-83462123D01*
X146773439Y-83462125D01*
X146962595Y-83579245D01*
X146962596Y-83579245D01*
X146962599Y-83579247D01*
X147170060Y-83659618D01*
X147388757Y-83700500D01*
X147388759Y-83700500D01*
X147611241Y-83700500D01*
X147611243Y-83700500D01*
X147829940Y-83659618D01*
X148037401Y-83579247D01*
X148226562Y-83462124D01*
X148390981Y-83312236D01*
X148525058Y-83134689D01*
X148624229Y-82935528D01*
X148685115Y-82721536D01*
X148705643Y-82500000D01*
X148705643Y-82499999D01*
X152794357Y-82499999D01*
X152794357Y-82500000D01*
X152814884Y-82721535D01*
X152814885Y-82721537D01*
X152875769Y-82935523D01*
X152875775Y-82935538D01*
X152974938Y-83134683D01*
X152974943Y-83134691D01*
X153109020Y-83312238D01*
X153273437Y-83462123D01*
X153273439Y-83462125D01*
X153462595Y-83579245D01*
X153462596Y-83579245D01*
X153462599Y-83579247D01*
X153670060Y-83659618D01*
X153888757Y-83700500D01*
X153888759Y-83700500D01*
X154111241Y-83700500D01*
X154111243Y-83700500D01*
X154329940Y-83659618D01*
X154537401Y-83579247D01*
X154726562Y-83462124D01*
X154890981Y-83312236D01*
X155025058Y-83134689D01*
X155124229Y-82935528D01*
X155185115Y-82721536D01*
X155205643Y-82500000D01*
X155185115Y-82278464D01*
X155124229Y-82064472D01*
X155087169Y-81990045D01*
X155025061Y-81865316D01*
X155025056Y-81865308D01*
X154890979Y-81687761D01*
X154726562Y-81537876D01*
X154726560Y-81537874D01*
X154537404Y-81420754D01*
X154537398Y-81420752D01*
X154329940Y-81340382D01*
X154111243Y-81299500D01*
X153888757Y-81299500D01*
X153670060Y-81340382D01*
X153538864Y-81391207D01*
X153462601Y-81420752D01*
X153462595Y-81420754D01*
X153273439Y-81537874D01*
X153273437Y-81537876D01*
X153109020Y-81687761D01*
X152974943Y-81865308D01*
X152974938Y-81865316D01*
X152875775Y-82064461D01*
X152875769Y-82064476D01*
X152814885Y-82278462D01*
X152814884Y-82278464D01*
X152794357Y-82499999D01*
X148705643Y-82499999D01*
X148685115Y-82278464D01*
X148624229Y-82064472D01*
X148587169Y-81990045D01*
X148525061Y-81865316D01*
X148525056Y-81865308D01*
X148390979Y-81687761D01*
X148226562Y-81537876D01*
X148226560Y-81537874D01*
X148037404Y-81420754D01*
X148037398Y-81420752D01*
X147829940Y-81340382D01*
X147611243Y-81299500D01*
X147388757Y-81299500D01*
X147170060Y-81340382D01*
X147038864Y-81391207D01*
X146962601Y-81420752D01*
X146962595Y-81420754D01*
X146773439Y-81537874D01*
X146773437Y-81537876D01*
X146609020Y-81687761D01*
X146474943Y-81865308D01*
X146474938Y-81865316D01*
X146375775Y-82064461D01*
X146375769Y-82064476D01*
X146314885Y-82278462D01*
X146314884Y-82278464D01*
X146294357Y-82499999D01*
X136624333Y-82499999D01*
X136723483Y-82473433D01*
X136723492Y-82473429D01*
X136937578Y-82373600D01*
X137131082Y-82238105D01*
X137298105Y-82071082D01*
X137433600Y-81877578D01*
X137533429Y-81663492D01*
X137533433Y-81663483D01*
X137566158Y-81541350D01*
X137602522Y-81481690D01*
X137665369Y-81451160D01*
X137734745Y-81459454D01*
X137788623Y-81503939D01*
X137804593Y-81537447D01*
X137824768Y-81603954D01*
X137922315Y-81786450D01*
X137956969Y-81828677D01*
X138053589Y-81946410D01*
X138106762Y-81990047D01*
X138213550Y-82077685D01*
X138396046Y-82175232D01*
X138594066Y-82235300D01*
X138594065Y-82235300D01*
X138612529Y-82237118D01*
X138800000Y-82255583D01*
X139005934Y-82235300D01*
X139203954Y-82175232D01*
X139386450Y-82077685D01*
X139546410Y-81946410D01*
X139677685Y-81786450D01*
X139775232Y-81603954D01*
X139835300Y-81405934D01*
X139855583Y-81200000D01*
X139835300Y-80994066D01*
X139775232Y-80796046D01*
X139677685Y-80613550D01*
X139566927Y-80478590D01*
X139546410Y-80453589D01*
X139416913Y-80347315D01*
X139386450Y-80322315D01*
X139203954Y-80224768D01*
X139005934Y-80164700D01*
X139005932Y-80164699D01*
X139005934Y-80164699D01*
X138800000Y-80144417D01*
X138594067Y-80164699D01*
X138396039Y-80224770D01*
X138381800Y-80232381D01*
X138313397Y-80246620D01*
X138248154Y-80221616D01*
X138235672Y-80210701D01*
X137787152Y-79762181D01*
X137753667Y-79700858D01*
X137758651Y-79631166D01*
X137800523Y-79575233D01*
X137865987Y-79550816D01*
X137874833Y-79550500D01*
X139214167Y-79550500D01*
X139281206Y-79570185D01*
X139301848Y-79586819D01*
X140350701Y-80635672D01*
X140384186Y-80696995D01*
X140379202Y-80766687D01*
X140372381Y-80781800D01*
X140364770Y-80796039D01*
X140304699Y-80994067D01*
X140284417Y-81200000D01*
X140304699Y-81405932D01*
X140318419Y-81451160D01*
X140364768Y-81603954D01*
X140462315Y-81786450D01*
X140496969Y-81828677D01*
X140593589Y-81946410D01*
X140646762Y-81990047D01*
X140753550Y-82077685D01*
X140936046Y-82175232D01*
X141134066Y-82235300D01*
X141134065Y-82235300D01*
X141152529Y-82237118D01*
X141340000Y-82255583D01*
X141545934Y-82235300D01*
X141743954Y-82175232D01*
X141926450Y-82077685D01*
X142086410Y-81946410D01*
X142217685Y-81786450D01*
X142315232Y-81603954D01*
X142375300Y-81405934D01*
X142395583Y-81200000D01*
X142375300Y-80994066D01*
X142315232Y-80796046D01*
X142217685Y-80613550D01*
X142106927Y-80478590D01*
X142086410Y-80453589D01*
X141956913Y-80347315D01*
X141926450Y-80322315D01*
X141743954Y-80224768D01*
X141545934Y-80164700D01*
X141545932Y-80164699D01*
X141545934Y-80164699D01*
X141340000Y-80144417D01*
X141134067Y-80164699D01*
X140936039Y-80224770D01*
X140921800Y-80232381D01*
X140853397Y-80246620D01*
X140788154Y-80221616D01*
X140775672Y-80210701D01*
X139574512Y-79009541D01*
X139574504Y-79009535D01*
X139505995Y-78969982D01*
X139505990Y-78969979D01*
X139480513Y-78963152D01*
X139429562Y-78949500D01*
X139429560Y-78949500D01*
X138404443Y-78949500D01*
X138337404Y-78929815D01*
X138291649Y-78877011D01*
X138281705Y-78807853D01*
X138286737Y-78786496D01*
X138314505Y-78702697D01*
X138314506Y-78702690D01*
X138324999Y-78599986D01*
X138325000Y-78599973D01*
X138325000Y-78550000D01*
X135875001Y-78550000D01*
X135875001Y-78599986D01*
X135885493Y-78702695D01*
X135913263Y-78786495D01*
X135915665Y-78856324D01*
X135879934Y-78916366D01*
X135817413Y-78947559D01*
X135795557Y-78949500D01*
X133933044Y-78949500D01*
X133866005Y-78929815D01*
X133820250Y-78877011D01*
X133810306Y-78807853D01*
X133839331Y-78744297D01*
X133845363Y-78737819D01*
X133876696Y-78706485D01*
X133876698Y-78706483D01*
X133928073Y-78601393D01*
X133938000Y-78533260D01*
X133938000Y-78166740D01*
X133928073Y-78098607D01*
X133876698Y-77993517D01*
X133876696Y-77993515D01*
X133876696Y-77993514D01*
X133793985Y-77910803D01*
X133688890Y-77859425D01*
X133687292Y-77858932D01*
X133685638Y-77857836D01*
X133680242Y-77855198D01*
X133680588Y-77854489D01*
X133629052Y-77820334D01*
X133600925Y-77756376D01*
X133611841Y-77687364D01*
X133636215Y-77652781D01*
X133732838Y-77556158D01*
X133794159Y-77522675D01*
X133863851Y-77527659D01*
X133919784Y-77569531D01*
X133943221Y-77625961D01*
X133946926Y-77651391D01*
X133998303Y-77756485D01*
X134081014Y-77839196D01*
X134081015Y-77839196D01*
X134081017Y-77839198D01*
X134186107Y-77890573D01*
X134220173Y-77895536D01*
X134254239Y-77900500D01*
X134254240Y-77900500D01*
X135495761Y-77900500D01*
X135518471Y-77897191D01*
X135563893Y-77890573D01*
X135668983Y-77839198D01*
X135670273Y-77837908D01*
X135672474Y-77836705D01*
X135677347Y-77833227D01*
X135677767Y-77833815D01*
X135731594Y-77804419D01*
X135801286Y-77809400D01*
X135857222Y-77851268D01*
X135881643Y-77916731D01*
X135881317Y-77938187D01*
X135875000Y-78000013D01*
X135875000Y-78050000D01*
X138324999Y-78050000D01*
X138324999Y-78000028D01*
X138324998Y-78000013D01*
X138314505Y-77897302D01*
X138259358Y-77730880D01*
X138259356Y-77730875D01*
X138167315Y-77581654D01*
X138097842Y-77512181D01*
X138064357Y-77450858D01*
X138069341Y-77381166D01*
X138111213Y-77325233D01*
X138176677Y-77300816D01*
X138185523Y-77300500D01*
X138425500Y-77300500D01*
X138492539Y-77320185D01*
X138538294Y-77372989D01*
X138549500Y-77424500D01*
X138549500Y-77704269D01*
X138552353Y-77734699D01*
X138552353Y-77734701D01*
X138595998Y-77859427D01*
X138597207Y-77862882D01*
X138677850Y-77972150D01*
X138787118Y-78052793D01*
X138821921Y-78064971D01*
X138915299Y-78097646D01*
X138945730Y-78100500D01*
X138945734Y-78100500D01*
X141054270Y-78100500D01*
X141084699Y-78097646D01*
X141084701Y-78097646D01*
X141156822Y-78072409D01*
X141212882Y-78052793D01*
X141322150Y-77972150D01*
X141402793Y-77862882D01*
X141425219Y-77798790D01*
X141447646Y-77734701D01*
X141447646Y-77734699D01*
X141450500Y-77704269D01*
X141450500Y-76295730D01*
X142549500Y-76295730D01*
X142549500Y-77704269D01*
X142552353Y-77734699D01*
X142552353Y-77734701D01*
X142595998Y-77859427D01*
X142597207Y-77862882D01*
X142677850Y-77972150D01*
X142787118Y-78052793D01*
X142821921Y-78064971D01*
X142915299Y-78097646D01*
X142945730Y-78100500D01*
X142945734Y-78100500D01*
X145054270Y-78100500D01*
X145084699Y-78097646D01*
X145084701Y-78097646D01*
X145156822Y-78072409D01*
X145212882Y-78052793D01*
X145284423Y-77999994D01*
X145994859Y-77999994D01*
X145994859Y-78000005D01*
X146015385Y-78247729D01*
X146015387Y-78247738D01*
X146076412Y-78488717D01*
X146176266Y-78716364D01*
X146276564Y-78869882D01*
X146976212Y-78170234D01*
X146987482Y-78212292D01*
X147059890Y-78337708D01*
X147162292Y-78440110D01*
X147287708Y-78512518D01*
X147329765Y-78523787D01*
X146629942Y-79223609D01*
X146676768Y-79260055D01*
X146676770Y-79260056D01*
X146895385Y-79378364D01*
X146895396Y-79378369D01*
X147130506Y-79459083D01*
X147375707Y-79500000D01*
X147624293Y-79500000D01*
X147869493Y-79459083D01*
X148104603Y-79378369D01*
X148104614Y-79378364D01*
X148323228Y-79260057D01*
X148323231Y-79260055D01*
X148370056Y-79223609D01*
X147670234Y-78523787D01*
X147712292Y-78512518D01*
X147837708Y-78440110D01*
X147940110Y-78337708D01*
X148012518Y-78212292D01*
X148023787Y-78170235D01*
X148723434Y-78869882D01*
X148823731Y-78716369D01*
X148923587Y-78488717D01*
X148984612Y-78247738D01*
X148984614Y-78247729D01*
X149005141Y-78000005D01*
X149005141Y-77999994D01*
X152494859Y-77999994D01*
X152494859Y-78000005D01*
X152515385Y-78247729D01*
X152515387Y-78247738D01*
X152576412Y-78488717D01*
X152676266Y-78716364D01*
X152776564Y-78869882D01*
X153476212Y-78170234D01*
X153487482Y-78212292D01*
X153559890Y-78337708D01*
X153662292Y-78440110D01*
X153787708Y-78512518D01*
X153829765Y-78523787D01*
X153129942Y-79223609D01*
X153176768Y-79260055D01*
X153176770Y-79260056D01*
X153395385Y-79378364D01*
X153395396Y-79378369D01*
X153630506Y-79459083D01*
X153875707Y-79500000D01*
X154124293Y-79500000D01*
X154369493Y-79459083D01*
X154604603Y-79378369D01*
X154604614Y-79378364D01*
X154823228Y-79260057D01*
X154823231Y-79260055D01*
X154870056Y-79223609D01*
X154170234Y-78523787D01*
X154212292Y-78512518D01*
X154337708Y-78440110D01*
X154440110Y-78337708D01*
X154512518Y-78212292D01*
X154523787Y-78170235D01*
X155223434Y-78869882D01*
X155323731Y-78716369D01*
X155423587Y-78488717D01*
X155484612Y-78247738D01*
X155484614Y-78247729D01*
X155505141Y-78000005D01*
X155505141Y-77999994D01*
X155484614Y-77752270D01*
X155484612Y-77752261D01*
X155423587Y-77511282D01*
X155323731Y-77283630D01*
X155223434Y-77130116D01*
X154523787Y-77829764D01*
X154512518Y-77787708D01*
X154440110Y-77662292D01*
X154337708Y-77559890D01*
X154212292Y-77487482D01*
X154170235Y-77476212D01*
X154870057Y-76776390D01*
X154870056Y-76776389D01*
X154823229Y-76739943D01*
X154604614Y-76621635D01*
X154604603Y-76621630D01*
X154369493Y-76540916D01*
X154124293Y-76500000D01*
X153875707Y-76500000D01*
X153630506Y-76540916D01*
X153395396Y-76621630D01*
X153395390Y-76621632D01*
X153176761Y-76739949D01*
X153129942Y-76776388D01*
X153129942Y-76776390D01*
X153829765Y-77476212D01*
X153787708Y-77487482D01*
X153662292Y-77559890D01*
X153559890Y-77662292D01*
X153487482Y-77787708D01*
X153476212Y-77829764D01*
X152776564Y-77130116D01*
X152676267Y-77283632D01*
X152576412Y-77511282D01*
X152515387Y-77752261D01*
X152515385Y-77752270D01*
X152494859Y-77999994D01*
X149005141Y-77999994D01*
X148984614Y-77752270D01*
X148984612Y-77752261D01*
X148923587Y-77511282D01*
X148823731Y-77283630D01*
X148723434Y-77130116D01*
X148023787Y-77829764D01*
X148012518Y-77787708D01*
X147940110Y-77662292D01*
X147837708Y-77559890D01*
X147712292Y-77487482D01*
X147670235Y-77476212D01*
X148370057Y-76776390D01*
X148370056Y-76776389D01*
X148323229Y-76739943D01*
X148104614Y-76621635D01*
X148104603Y-76621630D01*
X147869493Y-76540916D01*
X147624293Y-76500000D01*
X147375707Y-76500000D01*
X147130506Y-76540916D01*
X146895396Y-76621630D01*
X146895390Y-76621632D01*
X146676761Y-76739949D01*
X146629942Y-76776388D01*
X146629942Y-76776390D01*
X147329765Y-77476212D01*
X147287708Y-77487482D01*
X147162292Y-77559890D01*
X147059890Y-77662292D01*
X146987482Y-77787708D01*
X146976212Y-77829764D01*
X146276564Y-77130116D01*
X146176267Y-77283632D01*
X146076412Y-77511282D01*
X146015387Y-77752261D01*
X146015385Y-77752270D01*
X145994859Y-77999994D01*
X145284423Y-77999994D01*
X145322150Y-77972150D01*
X145402793Y-77862882D01*
X145425219Y-77798790D01*
X145447646Y-77734701D01*
X145447646Y-77734699D01*
X145450500Y-77704269D01*
X145450500Y-76295730D01*
X145447646Y-76265300D01*
X145447646Y-76265298D01*
X145408467Y-76153334D01*
X145402793Y-76137118D01*
X145322150Y-76027850D01*
X145212882Y-75947207D01*
X145212880Y-75947206D01*
X145084700Y-75902353D01*
X145054270Y-75899500D01*
X145054266Y-75899500D01*
X142945734Y-75899500D01*
X142945730Y-75899500D01*
X142915300Y-75902353D01*
X142915298Y-75902353D01*
X142787119Y-75947206D01*
X142787117Y-75947207D01*
X142677850Y-76027850D01*
X142597207Y-76137117D01*
X142597206Y-76137119D01*
X142552353Y-76265298D01*
X142552353Y-76265300D01*
X142549500Y-76295730D01*
X141450500Y-76295730D01*
X141447646Y-76265300D01*
X141447646Y-76265298D01*
X141408467Y-76153334D01*
X141402793Y-76137118D01*
X141322150Y-76027850D01*
X141212882Y-75947207D01*
X141212880Y-75947206D01*
X141084700Y-75902353D01*
X141054270Y-75899500D01*
X141054266Y-75899500D01*
X138945734Y-75899500D01*
X138945730Y-75899500D01*
X138915300Y-75902353D01*
X138915298Y-75902353D01*
X138787119Y-75947206D01*
X138787117Y-75947207D01*
X138677850Y-76027850D01*
X138597207Y-76137117D01*
X138597206Y-76137119D01*
X138552353Y-76265298D01*
X138552353Y-76265300D01*
X138549500Y-76295730D01*
X138549500Y-76575500D01*
X138529815Y-76642539D01*
X138477011Y-76688294D01*
X138425500Y-76699500D01*
X138149500Y-76699500D01*
X138082461Y-76679815D01*
X138036706Y-76627011D01*
X138025500Y-76575500D01*
X138025500Y-76095730D01*
X138022646Y-76065300D01*
X138022646Y-76065298D01*
X137985599Y-75959426D01*
X137977793Y-75937118D01*
X137977791Y-75937115D01*
X137977790Y-75937113D01*
X137924730Y-75865219D01*
X137900759Y-75799590D01*
X137900500Y-75791586D01*
X137900500Y-74313738D01*
X137920185Y-74246699D01*
X137930787Y-74232535D01*
X137931124Y-74232144D01*
X137931128Y-74232143D01*
X138025377Y-74123373D01*
X138027290Y-74119184D01*
X138052954Y-74062989D01*
X138098709Y-74010185D01*
X138165748Y-73990500D01*
X138225500Y-73990500D01*
X138292539Y-74010185D01*
X138338294Y-74062989D01*
X138349500Y-74114500D01*
X138349500Y-74473260D01*
X138359426Y-74541391D01*
X138410803Y-74646485D01*
X138493514Y-74729196D01*
X138493515Y-74729196D01*
X138493517Y-74729198D01*
X138598607Y-74780573D01*
X138632673Y-74785536D01*
X138666739Y-74790500D01*
X138666740Y-74790500D01*
X140383261Y-74790500D01*
X140405971Y-74787191D01*
X140451393Y-74780573D01*
X140556483Y-74729198D01*
X140639198Y-74646483D01*
X140690573Y-74541393D01*
X140700500Y-74473260D01*
X140700500Y-74106740D01*
X140700500Y-74106739D01*
X143299500Y-74106739D01*
X143299500Y-74473260D01*
X143309426Y-74541391D01*
X143360803Y-74646485D01*
X143443514Y-74729196D01*
X143443515Y-74729196D01*
X143443517Y-74729198D01*
X143548607Y-74780573D01*
X143582673Y-74785536D01*
X143616739Y-74790500D01*
X143616740Y-74790500D01*
X145333261Y-74790500D01*
X145355971Y-74787191D01*
X145401393Y-74780573D01*
X145506483Y-74729198D01*
X145589198Y-74646483D01*
X145640573Y-74541393D01*
X145650500Y-74473260D01*
X145650500Y-74106740D01*
X145649715Y-74101355D01*
X145640573Y-74038608D01*
X145640206Y-74037857D01*
X145589198Y-73933517D01*
X145589196Y-73933515D01*
X145589196Y-73933514D01*
X145506485Y-73850803D01*
X145401391Y-73799426D01*
X145333261Y-73789500D01*
X145333260Y-73789500D01*
X143616740Y-73789500D01*
X143616739Y-73789500D01*
X143548608Y-73799426D01*
X143443514Y-73850803D01*
X143360803Y-73933514D01*
X143309426Y-74038608D01*
X143299500Y-74106739D01*
X140700500Y-74106739D01*
X140699715Y-74101355D01*
X140690573Y-74038608D01*
X140690206Y-74037857D01*
X140682286Y-74021657D01*
X140670527Y-73952786D01*
X140697870Y-73888489D01*
X140706005Y-73879517D01*
X140711012Y-73874511D01*
X141240460Y-73345063D01*
X141280022Y-73276540D01*
X141300500Y-73200114D01*
X141300500Y-73120990D01*
X141300500Y-72836739D01*
X143299500Y-72836739D01*
X143299500Y-73203260D01*
X143309426Y-73271391D01*
X143360803Y-73376485D01*
X143443514Y-73459196D01*
X143443515Y-73459196D01*
X143443517Y-73459198D01*
X143548607Y-73510573D01*
X143582673Y-73515536D01*
X143616739Y-73520500D01*
X143616740Y-73520500D01*
X145333261Y-73520500D01*
X145355971Y-73517191D01*
X145401393Y-73510573D01*
X145506483Y-73459198D01*
X145589198Y-73376483D01*
X145640573Y-73271393D01*
X145650500Y-73203260D01*
X145650500Y-72836740D01*
X145641347Y-72773920D01*
X149499499Y-72773920D01*
X149528340Y-72918907D01*
X149528343Y-72918917D01*
X149584912Y-73055488D01*
X149584919Y-73055501D01*
X149667048Y-73178415D01*
X149667051Y-73178419D01*
X149771580Y-73282948D01*
X149771584Y-73282951D01*
X149894498Y-73365080D01*
X149894511Y-73365087D01*
X150027478Y-73420163D01*
X150031087Y-73421658D01*
X150031091Y-73421658D01*
X150031092Y-73421659D01*
X150176079Y-73450500D01*
X150176082Y-73450500D01*
X150323920Y-73450500D01*
X150460301Y-73423371D01*
X150468913Y-73421658D01*
X150574547Y-73377902D01*
X150605488Y-73365087D01*
X150605488Y-73365086D01*
X150605495Y-73365084D01*
X150728416Y-73282951D01*
X150832951Y-73178416D01*
X150915084Y-73055495D01*
X150971658Y-72918913D01*
X150990895Y-72822205D01*
X151000500Y-72773920D01*
X151000500Y-72626079D01*
X150971659Y-72481092D01*
X150971658Y-72481091D01*
X150971658Y-72481087D01*
X150971656Y-72481082D01*
X150915087Y-72344511D01*
X150915080Y-72344498D01*
X150832951Y-72221584D01*
X150832948Y-72221580D01*
X150728419Y-72117051D01*
X150728415Y-72117048D01*
X150605501Y-72034919D01*
X150605488Y-72034912D01*
X150468917Y-71978343D01*
X150468907Y-71978340D01*
X150323920Y-71949500D01*
X150323918Y-71949500D01*
X150176082Y-71949500D01*
X150176080Y-71949500D01*
X150031092Y-71978340D01*
X150031082Y-71978343D01*
X149894511Y-72034912D01*
X149894498Y-72034919D01*
X149771584Y-72117048D01*
X149771580Y-72117051D01*
X149667051Y-72221580D01*
X149667048Y-72221584D01*
X149584919Y-72344498D01*
X149584912Y-72344511D01*
X149528343Y-72481082D01*
X149528340Y-72481092D01*
X149499500Y-72626079D01*
X149499500Y-72626082D01*
X149499500Y-72773918D01*
X149499500Y-72773920D01*
X149499499Y-72773920D01*
X145641347Y-72773920D01*
X145640573Y-72768607D01*
X145589198Y-72663517D01*
X145589196Y-72663515D01*
X145589196Y-72663514D01*
X145506485Y-72580803D01*
X145401391Y-72529426D01*
X145333261Y-72519500D01*
X145333260Y-72519500D01*
X143616740Y-72519500D01*
X143616739Y-72519500D01*
X143548608Y-72529426D01*
X143443514Y-72580803D01*
X143360803Y-72663514D01*
X143309426Y-72768608D01*
X143299500Y-72836739D01*
X141300500Y-72836739D01*
X141300500Y-71566739D01*
X143299500Y-71566739D01*
X143299500Y-71933260D01*
X143309426Y-72001391D01*
X143360803Y-72106485D01*
X143443514Y-72189196D01*
X143443515Y-72189196D01*
X143443517Y-72189198D01*
X143548607Y-72240573D01*
X143582673Y-72245536D01*
X143616739Y-72250500D01*
X143616740Y-72250500D01*
X145333261Y-72250500D01*
X145355971Y-72247191D01*
X145401393Y-72240573D01*
X145506483Y-72189198D01*
X145589198Y-72106483D01*
X145640573Y-72001393D01*
X145650500Y-71933260D01*
X145650500Y-71566740D01*
X145640573Y-71498607D01*
X145589198Y-71393517D01*
X145589196Y-71393515D01*
X145589196Y-71393514D01*
X145506485Y-71310803D01*
X145401391Y-71259426D01*
X145333261Y-71249500D01*
X145333260Y-71249500D01*
X143616740Y-71249500D01*
X143616739Y-71249500D01*
X143548608Y-71259426D01*
X143443514Y-71310803D01*
X143360803Y-71393514D01*
X143309426Y-71498608D01*
X143299500Y-71566739D01*
X141300500Y-71566739D01*
X141300500Y-70296739D01*
X143299500Y-70296739D01*
X143299500Y-70663260D01*
X143309426Y-70731391D01*
X143360803Y-70836485D01*
X143443514Y-70919196D01*
X143443515Y-70919196D01*
X143443517Y-70919198D01*
X143548607Y-70970573D01*
X143582673Y-70975536D01*
X143616739Y-70980500D01*
X143616740Y-70980500D01*
X145333261Y-70980500D01*
X145355971Y-70977191D01*
X145401393Y-70970573D01*
X145506483Y-70919198D01*
X145589198Y-70836483D01*
X145640573Y-70731393D01*
X145650500Y-70663260D01*
X145650500Y-70296740D01*
X145640573Y-70228607D01*
X145589198Y-70123517D01*
X145589196Y-70123515D01*
X145589196Y-70123514D01*
X145506485Y-70040803D01*
X145401391Y-69989426D01*
X145333261Y-69979500D01*
X145333260Y-69979500D01*
X143616740Y-69979500D01*
X143616739Y-69979500D01*
X143548608Y-69989426D01*
X143443514Y-70040803D01*
X143360803Y-70123514D01*
X143309426Y-70228608D01*
X143299500Y-70296739D01*
X141300500Y-70296739D01*
X141300500Y-68425833D01*
X141320185Y-68358794D01*
X141336819Y-68338152D01*
X141772595Y-67902376D01*
X141833918Y-67868891D01*
X141903610Y-67873875D01*
X141947957Y-67902376D01*
X143263181Y-69217600D01*
X143296666Y-69278923D01*
X143299500Y-69305281D01*
X143299500Y-69393260D01*
X143309426Y-69461391D01*
X143309427Y-69461393D01*
X143349056Y-69542457D01*
X143360803Y-69566485D01*
X143443514Y-69649196D01*
X143443515Y-69649196D01*
X143443517Y-69649198D01*
X143548607Y-69700573D01*
X143582673Y-69705536D01*
X143616739Y-69710500D01*
X143616740Y-69710500D01*
X145333261Y-69710500D01*
X145355971Y-69707191D01*
X145401393Y-69700573D01*
X145506483Y-69649198D01*
X145589198Y-69566483D01*
X145640573Y-69461393D01*
X145650500Y-69393260D01*
X145650500Y-69026740D01*
X145640573Y-68958607D01*
X145589198Y-68853517D01*
X145589196Y-68853515D01*
X145589196Y-68853514D01*
X145506485Y-68770803D01*
X145401391Y-68719426D01*
X145333261Y-68709500D01*
X145333260Y-68709500D01*
X143656385Y-68709500D01*
X143589346Y-68689815D01*
X143568704Y-68673181D01*
X143547704Y-68652181D01*
X143514219Y-68590858D01*
X143519203Y-68521166D01*
X143561075Y-68465233D01*
X143626539Y-68440816D01*
X143635385Y-68440500D01*
X145333261Y-68440500D01*
X145367069Y-68435574D01*
X145401393Y-68430573D01*
X145506483Y-68379198D01*
X145511761Y-68373920D01*
X149499499Y-68373920D01*
X149528340Y-68518907D01*
X149528343Y-68518917D01*
X149584912Y-68655488D01*
X149584919Y-68655501D01*
X149667048Y-68778415D01*
X149667051Y-68778419D01*
X149771580Y-68882948D01*
X149771584Y-68882951D01*
X149894498Y-68965080D01*
X149894511Y-68965087D01*
X150026785Y-69019876D01*
X150031087Y-69021658D01*
X150031091Y-69021658D01*
X150031092Y-69021659D01*
X150176079Y-69050500D01*
X150176082Y-69050500D01*
X150323920Y-69050500D01*
X150421462Y-69031096D01*
X150468913Y-69021658D01*
X150605495Y-68965084D01*
X150728416Y-68882951D01*
X150832951Y-68778416D01*
X150915084Y-68655495D01*
X150971658Y-68518913D01*
X150988236Y-68435574D01*
X151000500Y-68373920D01*
X151000500Y-68226079D01*
X150971659Y-68081092D01*
X150971658Y-68081091D01*
X150971658Y-68081087D01*
X150965197Y-68065489D01*
X150915087Y-67944511D01*
X150915080Y-67944498D01*
X150832951Y-67821584D01*
X150832948Y-67821580D01*
X150728419Y-67717051D01*
X150728415Y-67717048D01*
X150605501Y-67634919D01*
X150605488Y-67634912D01*
X150468917Y-67578343D01*
X150468907Y-67578340D01*
X150323920Y-67549500D01*
X150323918Y-67549500D01*
X150176082Y-67549500D01*
X150176080Y-67549500D01*
X150031092Y-67578340D01*
X150031082Y-67578343D01*
X149894511Y-67634912D01*
X149894498Y-67634919D01*
X149771584Y-67717048D01*
X149771580Y-67717051D01*
X149667051Y-67821580D01*
X149667048Y-67821584D01*
X149584919Y-67944498D01*
X149584912Y-67944511D01*
X149528343Y-68081082D01*
X149528340Y-68081092D01*
X149499500Y-68226079D01*
X149499500Y-68226082D01*
X149499500Y-68373918D01*
X149499500Y-68373920D01*
X149499499Y-68373920D01*
X145511761Y-68373920D01*
X145589198Y-68296483D01*
X145640573Y-68191393D01*
X145650500Y-68123260D01*
X145650500Y-67756740D01*
X145640573Y-67688607D01*
X145589198Y-67583517D01*
X145589196Y-67583515D01*
X145589196Y-67583514D01*
X145506485Y-67500803D01*
X145401391Y-67449426D01*
X145333261Y-67439500D01*
X145333260Y-67439500D01*
X144105281Y-67439500D01*
X144038242Y-67419815D01*
X144017600Y-67403181D01*
X143996600Y-67382181D01*
X143963115Y-67320858D01*
X143968099Y-67251166D01*
X144009971Y-67195233D01*
X144075435Y-67170816D01*
X144084281Y-67170500D01*
X145333261Y-67170500D01*
X145355971Y-67167191D01*
X145401393Y-67160573D01*
X145506483Y-67109198D01*
X145589198Y-67026483D01*
X145640573Y-66921393D01*
X145650500Y-66853260D01*
X145650500Y-66486740D01*
X145640573Y-66418607D01*
X145589198Y-66313517D01*
X145589195Y-66313514D01*
X145589195Y-66313513D01*
X145583227Y-66305153D01*
X145584340Y-66304357D01*
X145556029Y-66252509D01*
X145561013Y-66182817D01*
X145602885Y-66126884D01*
X145614075Y-66119419D01*
X145701550Y-66067687D01*
X145701561Y-66067678D01*
X145817678Y-65951561D01*
X145817685Y-65951552D01*
X145901281Y-65810198D01*
X145947100Y-65652486D01*
X145947295Y-65650001D01*
X145947295Y-65650000D01*
X143585781Y-65650000D01*
X143518742Y-65630315D01*
X143498100Y-65613681D01*
X143384512Y-65500093D01*
X143384504Y-65500087D01*
X143315995Y-65460534D01*
X143315990Y-65460531D01*
X143290513Y-65453704D01*
X143239562Y-65440052D01*
X143239560Y-65440052D01*
X142671519Y-65440052D01*
X142604480Y-65420367D01*
X142583838Y-65403733D01*
X142330103Y-65149998D01*
X143002704Y-65149998D01*
X143002705Y-65150000D01*
X144225000Y-65150000D01*
X144725000Y-65150000D01*
X145947295Y-65150000D01*
X145947295Y-65149998D01*
X145947100Y-65147513D01*
X145901281Y-64989801D01*
X145817685Y-64848447D01*
X145817678Y-64848438D01*
X145701561Y-64732321D01*
X145701552Y-64732314D01*
X145560196Y-64648717D01*
X145560193Y-64648716D01*
X145402495Y-64602900D01*
X145402489Y-64602899D01*
X145365649Y-64600000D01*
X144725000Y-64600000D01*
X144725000Y-65150000D01*
X144225000Y-65150000D01*
X144225000Y-64600000D01*
X143584350Y-64600000D01*
X143547510Y-64602899D01*
X143547504Y-64602900D01*
X143389806Y-64648716D01*
X143389803Y-64648717D01*
X143248447Y-64732314D01*
X143248438Y-64732321D01*
X143132321Y-64848438D01*
X143132314Y-64848447D01*
X143048718Y-64989801D01*
X143002899Y-65147513D01*
X143002704Y-65149998D01*
X142330103Y-65149998D01*
X141736819Y-64556714D01*
X141703334Y-64495391D01*
X141700500Y-64469033D01*
X141700500Y-63044753D01*
X141699668Y-63041648D01*
X141688507Y-62999994D01*
X145994859Y-62999994D01*
X145994859Y-63000005D01*
X146015385Y-63247729D01*
X146015387Y-63247738D01*
X146076412Y-63488717D01*
X146176266Y-63716364D01*
X146276564Y-63869882D01*
X146976212Y-63170234D01*
X146987482Y-63212292D01*
X147059890Y-63337708D01*
X147162292Y-63440110D01*
X147287708Y-63512518D01*
X147329765Y-63523787D01*
X146629942Y-64223609D01*
X146676768Y-64260055D01*
X146676770Y-64260056D01*
X146895385Y-64378364D01*
X146895396Y-64378369D01*
X147130506Y-64459083D01*
X147375707Y-64500000D01*
X147624293Y-64500000D01*
X147869493Y-64459083D01*
X148104603Y-64378369D01*
X148104614Y-64378364D01*
X148323228Y-64260057D01*
X148323231Y-64260055D01*
X148370056Y-64223609D01*
X147670234Y-63523787D01*
X147712292Y-63512518D01*
X147837708Y-63440110D01*
X147940110Y-63337708D01*
X148012518Y-63212292D01*
X148023787Y-63170235D01*
X148723434Y-63869882D01*
X148823731Y-63716369D01*
X148923587Y-63488717D01*
X148984612Y-63247738D01*
X148984614Y-63247729D01*
X149005141Y-63000005D01*
X149005141Y-62999994D01*
X152494859Y-62999994D01*
X152494859Y-63000005D01*
X152515385Y-63247729D01*
X152515387Y-63247738D01*
X152576412Y-63488717D01*
X152676266Y-63716364D01*
X152776564Y-63869882D01*
X153476212Y-63170234D01*
X153487482Y-63212292D01*
X153559890Y-63337708D01*
X153662292Y-63440110D01*
X153787708Y-63512518D01*
X153829765Y-63523787D01*
X153129942Y-64223609D01*
X153176768Y-64260055D01*
X153176770Y-64260056D01*
X153395385Y-64378364D01*
X153395396Y-64378369D01*
X153630506Y-64459083D01*
X153875707Y-64500000D01*
X154124293Y-64500000D01*
X154369493Y-64459083D01*
X154604603Y-64378369D01*
X154604614Y-64378364D01*
X154823228Y-64260057D01*
X154823231Y-64260055D01*
X154870056Y-64223609D01*
X154170234Y-63523787D01*
X154212292Y-63512518D01*
X154337708Y-63440110D01*
X154440110Y-63337708D01*
X154512518Y-63212292D01*
X154523787Y-63170235D01*
X155223434Y-63869882D01*
X155323731Y-63716369D01*
X155423587Y-63488717D01*
X155484612Y-63247738D01*
X155484614Y-63247729D01*
X155505141Y-63000005D01*
X155505141Y-62999994D01*
X155484614Y-62752270D01*
X155484612Y-62752261D01*
X155423587Y-62511282D01*
X155323731Y-62283630D01*
X155223434Y-62130116D01*
X154523787Y-62829764D01*
X154512518Y-62787708D01*
X154440110Y-62662292D01*
X154337708Y-62559890D01*
X154212292Y-62487482D01*
X154170235Y-62476212D01*
X154870057Y-61776390D01*
X154870056Y-61776389D01*
X154823229Y-61739943D01*
X154604614Y-61621635D01*
X154604603Y-61621630D01*
X154369493Y-61540916D01*
X154124293Y-61500000D01*
X153875707Y-61500000D01*
X153630506Y-61540916D01*
X153395396Y-61621630D01*
X153395390Y-61621632D01*
X153176761Y-61739949D01*
X153129942Y-61776388D01*
X153129942Y-61776390D01*
X153829765Y-62476212D01*
X153787708Y-62487482D01*
X153662292Y-62559890D01*
X153559890Y-62662292D01*
X153487482Y-62787708D01*
X153476212Y-62829764D01*
X152776564Y-62130116D01*
X152676267Y-62283632D01*
X152576412Y-62511282D01*
X152515387Y-62752261D01*
X152515385Y-62752270D01*
X152494859Y-62999994D01*
X149005141Y-62999994D01*
X148984614Y-62752270D01*
X148984612Y-62752261D01*
X148923587Y-62511282D01*
X148823731Y-62283630D01*
X148723434Y-62130116D01*
X148023787Y-62829764D01*
X148012518Y-62787708D01*
X147940110Y-62662292D01*
X147837708Y-62559890D01*
X147712292Y-62487482D01*
X147670235Y-62476212D01*
X148370057Y-61776390D01*
X148370056Y-61776389D01*
X148323229Y-61739943D01*
X148104614Y-61621635D01*
X148104603Y-61621630D01*
X147869493Y-61540916D01*
X147624293Y-61500000D01*
X147375707Y-61500000D01*
X147130506Y-61540916D01*
X146895396Y-61621630D01*
X146895390Y-61621632D01*
X146676761Y-61739949D01*
X146629942Y-61776388D01*
X146629942Y-61776390D01*
X147329765Y-62476212D01*
X147287708Y-62487482D01*
X147162292Y-62559890D01*
X147059890Y-62662292D01*
X146987482Y-62787708D01*
X146976212Y-62829764D01*
X146276564Y-62130116D01*
X146176267Y-62283632D01*
X146076412Y-62511282D01*
X146015387Y-62752261D01*
X146015385Y-62752270D01*
X145994859Y-62999994D01*
X141688507Y-62999994D01*
X141680021Y-62968325D01*
X141675188Y-62959954D01*
X141640464Y-62899809D01*
X141640458Y-62899801D01*
X140882790Y-62142133D01*
X140849305Y-62080810D01*
X140854289Y-62011118D01*
X140857666Y-62002966D01*
X140884797Y-61943559D01*
X140905279Y-61801102D01*
X140884797Y-61658645D01*
X140825009Y-61527729D01*
X140730760Y-61418959D01*
X140609685Y-61341149D01*
X140609683Y-61341148D01*
X140609681Y-61341147D01*
X140609682Y-61341147D01*
X140471595Y-61300602D01*
X140471593Y-61300602D01*
X140327671Y-61300602D01*
X140327668Y-61300602D01*
X140189581Y-61341147D01*
X140068505Y-61418958D01*
X139974255Y-61527728D01*
X139974252Y-61527733D01*
X139963307Y-61551698D01*
X139917550Y-61604500D01*
X139850510Y-61624182D01*
X139783472Y-61604495D01*
X139762834Y-61587863D01*
X137684513Y-59509542D01*
X137684511Y-59509540D01*
X137672638Y-59502685D01*
X137672637Y-59502684D01*
X137615991Y-59469980D01*
X137615990Y-59469979D01*
X137586674Y-59462124D01*
X137539562Y-59449500D01*
X137539560Y-59449500D01*
X136912275Y-59449500D01*
X136845236Y-59429815D01*
X136799481Y-59377011D01*
X136789537Y-59307853D01*
X136818562Y-59244297D01*
X136872012Y-59208219D01*
X137104603Y-59128369D01*
X137104614Y-59128364D01*
X137323228Y-59010057D01*
X137323231Y-59010055D01*
X137370056Y-58973609D01*
X136670234Y-58273787D01*
X136712292Y-58262518D01*
X136837708Y-58190110D01*
X136940110Y-58087708D01*
X137012518Y-57962292D01*
X137023787Y-57920235D01*
X137723434Y-58619882D01*
X137801759Y-58499999D01*
X146294357Y-58499999D01*
X146294357Y-58500000D01*
X146314884Y-58721535D01*
X146314885Y-58721537D01*
X146375769Y-58935523D01*
X146375775Y-58935538D01*
X146474938Y-59134683D01*
X146474943Y-59134691D01*
X146609020Y-59312238D01*
X146773437Y-59462123D01*
X146773439Y-59462125D01*
X146962595Y-59579245D01*
X146962596Y-59579245D01*
X146962599Y-59579247D01*
X147170060Y-59659618D01*
X147388757Y-59700500D01*
X147388759Y-59700500D01*
X147611241Y-59700500D01*
X147611243Y-59700500D01*
X147829940Y-59659618D01*
X148037401Y-59579247D01*
X148226562Y-59462124D01*
X148390981Y-59312236D01*
X148525058Y-59134689D01*
X148528208Y-59128364D01*
X148624224Y-58935538D01*
X148624223Y-58935538D01*
X148624229Y-58935528D01*
X148685115Y-58721536D01*
X148705643Y-58500000D01*
X148705643Y-58499999D01*
X152794357Y-58499999D01*
X152794357Y-58500000D01*
X152814884Y-58721535D01*
X152814885Y-58721537D01*
X152875769Y-58935523D01*
X152875775Y-58935538D01*
X152974938Y-59134683D01*
X152974943Y-59134691D01*
X153109020Y-59312238D01*
X153273437Y-59462123D01*
X153273439Y-59462125D01*
X153462595Y-59579245D01*
X153462596Y-59579245D01*
X153462599Y-59579247D01*
X153670060Y-59659618D01*
X153888757Y-59700500D01*
X153888759Y-59700500D01*
X154111241Y-59700500D01*
X154111243Y-59700500D01*
X154329940Y-59659618D01*
X154537401Y-59579247D01*
X154726562Y-59462124D01*
X154890981Y-59312236D01*
X155025058Y-59134689D01*
X155028208Y-59128364D01*
X155124224Y-58935538D01*
X155124223Y-58935538D01*
X155124229Y-58935528D01*
X155185115Y-58721536D01*
X155205643Y-58500000D01*
X155198143Y-58419066D01*
X155185115Y-58278464D01*
X155185114Y-58278462D01*
X155174343Y-58240607D01*
X155124229Y-58064472D01*
X155122828Y-58061658D01*
X155025061Y-57865316D01*
X155025056Y-57865308D01*
X154890979Y-57687761D01*
X154726562Y-57537876D01*
X154726560Y-57537874D01*
X154537404Y-57420754D01*
X154537398Y-57420752D01*
X154529809Y-57417812D01*
X154329940Y-57340382D01*
X154111243Y-57299500D01*
X153888757Y-57299500D01*
X153670060Y-57340382D01*
X153538864Y-57391207D01*
X153462601Y-57420752D01*
X153462595Y-57420754D01*
X153273439Y-57537874D01*
X153273437Y-57537876D01*
X153109020Y-57687761D01*
X152974943Y-57865308D01*
X152974938Y-57865316D01*
X152875775Y-58064461D01*
X152875769Y-58064476D01*
X152814885Y-58278462D01*
X152814884Y-58278464D01*
X152794357Y-58499999D01*
X148705643Y-58499999D01*
X148698143Y-58419066D01*
X148685115Y-58278464D01*
X148685114Y-58278462D01*
X148674343Y-58240607D01*
X148624229Y-58064472D01*
X148622828Y-58061658D01*
X148525061Y-57865316D01*
X148525056Y-57865308D01*
X148390979Y-57687761D01*
X148226562Y-57537876D01*
X148226560Y-57537874D01*
X148037404Y-57420754D01*
X148037398Y-57420752D01*
X148029809Y-57417812D01*
X147829940Y-57340382D01*
X147611243Y-57299500D01*
X147388757Y-57299500D01*
X147170060Y-57340382D01*
X147038864Y-57391207D01*
X146962601Y-57420752D01*
X146962595Y-57420754D01*
X146773439Y-57537874D01*
X146773437Y-57537876D01*
X146609020Y-57687761D01*
X146474943Y-57865308D01*
X146474938Y-57865316D01*
X146375775Y-58064461D01*
X146375769Y-58064476D01*
X146314885Y-58278462D01*
X146314884Y-58278464D01*
X146294357Y-58499999D01*
X137801759Y-58499999D01*
X137823731Y-58466369D01*
X137923587Y-58238717D01*
X137984612Y-57997738D01*
X137984614Y-57997729D01*
X138005141Y-57750005D01*
X138005141Y-57749994D01*
X137984614Y-57502270D01*
X137984612Y-57502261D01*
X137923587Y-57261282D01*
X137823731Y-57033630D01*
X137723434Y-56880116D01*
X137023787Y-57579764D01*
X137012518Y-57537708D01*
X136940110Y-57412292D01*
X136837708Y-57309890D01*
X136712292Y-57237482D01*
X136670235Y-57226212D01*
X137370057Y-56526390D01*
X137370056Y-56526389D01*
X137323229Y-56489943D01*
X137104614Y-56371635D01*
X137104603Y-56371630D01*
X136869493Y-56290916D01*
X136624293Y-56250000D01*
X136375707Y-56250000D01*
X136130506Y-56290916D01*
X135895396Y-56371630D01*
X135895390Y-56371632D01*
X135676761Y-56489949D01*
X135629942Y-56526388D01*
X135629942Y-56526390D01*
X136329765Y-57226212D01*
X136287708Y-57237482D01*
X136162292Y-57309890D01*
X136059890Y-57412292D01*
X135987482Y-57537708D01*
X135976212Y-57579764D01*
X135276564Y-56880116D01*
X135176267Y-57033632D01*
X135076412Y-57261282D01*
X135015387Y-57502261D01*
X135015385Y-57502270D01*
X134994859Y-57749994D01*
X134994859Y-57750005D01*
X135015385Y-57997729D01*
X135015387Y-57997738D01*
X135076412Y-58238717D01*
X135176266Y-58466364D01*
X135276564Y-58619882D01*
X135976212Y-57920234D01*
X135987482Y-57962292D01*
X136059890Y-58087708D01*
X136162292Y-58190110D01*
X136287708Y-58262518D01*
X136329765Y-58273787D01*
X135629942Y-58973609D01*
X135676768Y-59010055D01*
X135676770Y-59010056D01*
X135895385Y-59128364D01*
X135895396Y-59128369D01*
X136127988Y-59208219D01*
X136185003Y-59248605D01*
X136211134Y-59313404D01*
X136198082Y-59382044D01*
X136149994Y-59432732D01*
X136087725Y-59449500D01*
X130412275Y-59449500D01*
X130345236Y-59429815D01*
X130299481Y-59377011D01*
X130289537Y-59307853D01*
X130318562Y-59244297D01*
X130372012Y-59208219D01*
X130604603Y-59128369D01*
X130604614Y-59128364D01*
X130823228Y-59010057D01*
X130823231Y-59010055D01*
X130870056Y-58973609D01*
X130170234Y-58273787D01*
X130212292Y-58262518D01*
X130337708Y-58190110D01*
X130440110Y-58087708D01*
X130512518Y-57962292D01*
X130523787Y-57920235D01*
X131223434Y-58619882D01*
X131323731Y-58466369D01*
X131423587Y-58238717D01*
X131484612Y-57997738D01*
X131484614Y-57997729D01*
X131505141Y-57750005D01*
X131505141Y-57749994D01*
X131484614Y-57502270D01*
X131484612Y-57502261D01*
X131423587Y-57261282D01*
X131323731Y-57033630D01*
X131223434Y-56880116D01*
X130523787Y-57579764D01*
X130512518Y-57537708D01*
X130440110Y-57412292D01*
X130337708Y-57309890D01*
X130212292Y-57237482D01*
X130170235Y-57226212D01*
X130870057Y-56526390D01*
X130870056Y-56526389D01*
X130823229Y-56489943D01*
X130604614Y-56371635D01*
X130604603Y-56371630D01*
X130369493Y-56290916D01*
X130124293Y-56250000D01*
X129875707Y-56250000D01*
X129630506Y-56290916D01*
X129395396Y-56371630D01*
X129395390Y-56371632D01*
X129176761Y-56489949D01*
X129129942Y-56526388D01*
X129129942Y-56526390D01*
X129829765Y-57226212D01*
X129787708Y-57237482D01*
X129662292Y-57309890D01*
X129559890Y-57412292D01*
X129487482Y-57537708D01*
X129476212Y-57579764D01*
X128776564Y-56880116D01*
X128676267Y-57033632D01*
X128576412Y-57261282D01*
X128515387Y-57502261D01*
X128515385Y-57502270D01*
X128494859Y-57749994D01*
X128494859Y-57750005D01*
X128515385Y-57997729D01*
X128515387Y-57997738D01*
X128576412Y-58238717D01*
X128676266Y-58466364D01*
X128776564Y-58619882D01*
X129476212Y-57920234D01*
X129487482Y-57962292D01*
X129559890Y-58087708D01*
X129662292Y-58190110D01*
X129787708Y-58262518D01*
X129829765Y-58273787D01*
X129129942Y-58973609D01*
X129176768Y-59010055D01*
X129176770Y-59010056D01*
X129395385Y-59128364D01*
X129395396Y-59128369D01*
X129627988Y-59208219D01*
X129685003Y-59248605D01*
X129711134Y-59313404D01*
X129698082Y-59382044D01*
X129649994Y-59432732D01*
X129587725Y-59449500D01*
X124574833Y-59449500D01*
X124507794Y-59429815D01*
X124462039Y-59377011D01*
X124452095Y-59307853D01*
X124481120Y-59244297D01*
X124487152Y-59237819D01*
X125288151Y-58436819D01*
X125349474Y-58403334D01*
X125375832Y-58400500D01*
X125471962Y-58400500D01*
X125471962Y-58400499D01*
X125610053Y-58359953D01*
X125731128Y-58282143D01*
X125825377Y-58173373D01*
X125885165Y-58042457D01*
X125905647Y-57900000D01*
X125885165Y-57757543D01*
X125825377Y-57626627D01*
X125731128Y-57517857D01*
X125610053Y-57440047D01*
X125610051Y-57440046D01*
X125610049Y-57440045D01*
X125610050Y-57440045D01*
X125471963Y-57399500D01*
X125471961Y-57399500D01*
X125328039Y-57399500D01*
X125328036Y-57399500D01*
X125189949Y-57440045D01*
X125068873Y-57517856D01*
X124974623Y-57626626D01*
X124974622Y-57626628D01*
X124914834Y-57757543D01*
X124894353Y-57900000D01*
X124894353Y-57900001D01*
X124895661Y-57909103D01*
X124885713Y-57978261D01*
X124860603Y-58014424D01*
X124245039Y-58629988D01*
X124183716Y-58663473D01*
X124114024Y-58658489D01*
X124058091Y-58616617D01*
X124046873Y-58598601D01*
X124028050Y-58561658D01*
X124028047Y-58561655D01*
X124028045Y-58561652D01*
X123938347Y-58471954D01*
X123938344Y-58471952D01*
X123938342Y-58471950D01*
X123825304Y-58414354D01*
X123825303Y-58414353D01*
X123825300Y-58414352D01*
X123700003Y-58394508D01*
X123699997Y-58394508D01*
X123574699Y-58414352D01*
X123574698Y-58414352D01*
X123497330Y-58453773D01*
X123461658Y-58471950D01*
X123461657Y-58471950D01*
X123461653Y-58471953D01*
X123456329Y-58475821D01*
X123390522Y-58499298D01*
X123383448Y-58499500D01*
X123185833Y-58499500D01*
X123118794Y-58479815D01*
X123098152Y-58463181D01*
X122694512Y-58059541D01*
X122694511Y-58059540D01*
X122664922Y-58042457D01*
X122664921Y-58042456D01*
X122625989Y-58019979D01*
X122549562Y-57999500D01*
X122549560Y-57999500D01*
X121666552Y-57999500D01*
X121599513Y-57979815D01*
X121593671Y-57975821D01*
X121588346Y-57971953D01*
X121588343Y-57971951D01*
X121588342Y-57971950D01*
X121475304Y-57914354D01*
X121475303Y-57914353D01*
X121475300Y-57914352D01*
X121350003Y-57894508D01*
X121349997Y-57894508D01*
X121224699Y-57914352D01*
X121224698Y-57914352D01*
X121149337Y-57952751D01*
X121111658Y-57971950D01*
X121111657Y-57971951D01*
X121111652Y-57971954D01*
X121021954Y-58061652D01*
X121021951Y-58061657D01*
X121021950Y-58061658D01*
X121008677Y-58087708D01*
X120964352Y-58174698D01*
X120964352Y-58174699D01*
X120944508Y-58299996D01*
X120944508Y-58300003D01*
X120964352Y-58425300D01*
X120964352Y-58425301D01*
X120964354Y-58425304D01*
X121021950Y-58538342D01*
X121021952Y-58538344D01*
X121021954Y-58538347D01*
X121111652Y-58628045D01*
X121111654Y-58628046D01*
X121111658Y-58628050D01*
X121224696Y-58685646D01*
X121224697Y-58685646D01*
X121224699Y-58685647D01*
X121349997Y-58705492D01*
X121350000Y-58705492D01*
X121350003Y-58705492D01*
X121475300Y-58685647D01*
X121475301Y-58685647D01*
X121475302Y-58685646D01*
X121475304Y-58685646D01*
X121588342Y-58628050D01*
X121588347Y-58628045D01*
X121593671Y-58624179D01*
X121659478Y-58600702D01*
X121666552Y-58600500D01*
X122334167Y-58600500D01*
X122401206Y-58620185D01*
X122421848Y-58636819D01*
X122597848Y-58812819D01*
X122631333Y-58874142D01*
X122626349Y-58943834D01*
X122584477Y-58999767D01*
X122519013Y-59024184D01*
X122510167Y-59024500D01*
X115258501Y-59024500D01*
X115191462Y-59004815D01*
X115164788Y-58981703D01*
X115131128Y-58942857D01*
X115010053Y-58865047D01*
X115010051Y-58865046D01*
X115010049Y-58865045D01*
X115010050Y-58865045D01*
X114871963Y-58824500D01*
X114871961Y-58824500D01*
X114728039Y-58824500D01*
X114728036Y-58824500D01*
X114589949Y-58865045D01*
X114468873Y-58942856D01*
X114468872Y-58942856D01*
X114468872Y-58942857D01*
X114456290Y-58957377D01*
X114374623Y-59051626D01*
X114374622Y-59051628D01*
X114314834Y-59182543D01*
X114294353Y-59325000D01*
X114314834Y-59467457D01*
X114314835Y-59467458D01*
X114317817Y-59473987D01*
X114327762Y-59543145D01*
X114298738Y-59606701D01*
X114239961Y-59644477D01*
X114205024Y-59649500D01*
X113474000Y-59649500D01*
X113406961Y-59629815D01*
X113361206Y-59577011D01*
X113350000Y-59525500D01*
X113350000Y-58875000D01*
X112433012Y-58875000D01*
X112465925Y-58817993D01*
X112500000Y-58690826D01*
X112500000Y-58559174D01*
X112465925Y-58432007D01*
X112433012Y-58375000D01*
X113350000Y-58375000D01*
X113350000Y-57727172D01*
X113349999Y-57727155D01*
X113343598Y-57667627D01*
X113343596Y-57667620D01*
X113293354Y-57532913D01*
X113293350Y-57532906D01*
X113207190Y-57417812D01*
X113207187Y-57417809D01*
X113092093Y-57331649D01*
X113092086Y-57331645D01*
X112957379Y-57281403D01*
X112957372Y-57281401D01*
X112897844Y-57275000D01*
X112250000Y-57275000D01*
X112250000Y-58191988D01*
X112192993Y-58159075D01*
X112065826Y-58125000D01*
X111934174Y-58125000D01*
X111807007Y-58159075D01*
X111750000Y-58191988D01*
X111750000Y-57275000D01*
X111102155Y-57275000D01*
X111042627Y-57281401D01*
X111042620Y-57281403D01*
X110907913Y-57331645D01*
X110907906Y-57331649D01*
X110792812Y-57417809D01*
X110792809Y-57417812D01*
X110706649Y-57532906D01*
X110706645Y-57532913D01*
X110656403Y-57667620D01*
X110656401Y-57667627D01*
X110650000Y-57727155D01*
X110650000Y-58127813D01*
X110630315Y-58194852D01*
X110577511Y-58240607D01*
X110508353Y-58250551D01*
X110444797Y-58221526D01*
X110416642Y-58186267D01*
X110409749Y-58173371D01*
X110337685Y-58038550D01*
X110235759Y-57914352D01*
X110206410Y-57878589D01*
X110058913Y-57757543D01*
X110046450Y-57747315D01*
X109863954Y-57649768D01*
X109665934Y-57589700D01*
X109665932Y-57589699D01*
X109665934Y-57589699D01*
X109460000Y-57569417D01*
X109254067Y-57589699D01*
X109056043Y-57649769D01*
X108984961Y-57687764D01*
X108873550Y-57747315D01*
X108873548Y-57747316D01*
X108873547Y-57747317D01*
X108713589Y-57878589D01*
X108582317Y-58038547D01*
X108582315Y-58038550D01*
X108568457Y-58064476D01*
X108484769Y-58221043D01*
X108424699Y-58419067D01*
X108404417Y-58625000D01*
X108424699Y-58830932D01*
X108424700Y-58830934D01*
X108484768Y-59028954D01*
X108582315Y-59211450D01*
X108582317Y-59211452D01*
X108713589Y-59371410D01*
X108784551Y-59429646D01*
X108823886Y-59487392D01*
X108825757Y-59557237D01*
X108789570Y-59617005D01*
X108726814Y-59647721D01*
X108705887Y-59649500D01*
X107674113Y-59649500D01*
X107607074Y-59629815D01*
X107561319Y-59577011D01*
X107551375Y-59507853D01*
X107580400Y-59444297D01*
X107595449Y-59429646D01*
X107666410Y-59371410D01*
X107714014Y-59313404D01*
X107797685Y-59211450D01*
X107895232Y-59028954D01*
X107955300Y-58830934D01*
X107975583Y-58625000D01*
X107955300Y-58419066D01*
X107895232Y-58221046D01*
X107797685Y-58038550D01*
X107695759Y-57914352D01*
X107666410Y-57878589D01*
X107518913Y-57757543D01*
X107506450Y-57747315D01*
X107323954Y-57649768D01*
X107125934Y-57589700D01*
X107125932Y-57589699D01*
X107125934Y-57589699D01*
X106920000Y-57569417D01*
X106714067Y-57589699D01*
X106516043Y-57649769D01*
X106444961Y-57687764D01*
X106333550Y-57747315D01*
X106333548Y-57747316D01*
X106333547Y-57747317D01*
X106173589Y-57878589D01*
X106042317Y-58038547D01*
X106042315Y-58038550D01*
X106028457Y-58064476D01*
X105944769Y-58221043D01*
X105884699Y-58419067D01*
X105864417Y-58625000D01*
X105884699Y-58830932D01*
X105884700Y-58830934D01*
X105944768Y-59028954D01*
X106042315Y-59211450D01*
X106042317Y-59211452D01*
X106173589Y-59371410D01*
X106244551Y-59429646D01*
X106283886Y-59487392D01*
X106285757Y-59557237D01*
X106249570Y-59617005D01*
X106186814Y-59647721D01*
X106165887Y-59649500D01*
X105134113Y-59649500D01*
X105067074Y-59629815D01*
X105021319Y-59577011D01*
X105011375Y-59507853D01*
X105040400Y-59444297D01*
X105055449Y-59429646D01*
X105126410Y-59371410D01*
X105174014Y-59313404D01*
X105257685Y-59211450D01*
X105355232Y-59028954D01*
X105415300Y-58830934D01*
X105435583Y-58625000D01*
X105415300Y-58419066D01*
X105355232Y-58221046D01*
X105257685Y-58038550D01*
X105155759Y-57914352D01*
X105126410Y-57878589D01*
X104978913Y-57757543D01*
X104966450Y-57747315D01*
X104783954Y-57649768D01*
X104585934Y-57589700D01*
X104585932Y-57589699D01*
X104585934Y-57589699D01*
X104380000Y-57569417D01*
X104174067Y-57589699D01*
X103976043Y-57649769D01*
X103904961Y-57687764D01*
X103793550Y-57747315D01*
X103793548Y-57747316D01*
X103793547Y-57747317D01*
X103633589Y-57878589D01*
X103502317Y-58038547D01*
X103502315Y-58038550D01*
X103488457Y-58064476D01*
X103404769Y-58221043D01*
X103344699Y-58419067D01*
X103324417Y-58625000D01*
X103344699Y-58830932D01*
X103344700Y-58830934D01*
X103404768Y-59028954D01*
X103502315Y-59211450D01*
X103502317Y-59211452D01*
X103633589Y-59371410D01*
X103730209Y-59450702D01*
X103793550Y-59502685D01*
X103976046Y-59600232D01*
X103999619Y-59607382D01*
X104058057Y-59645680D01*
X104086513Y-59709492D01*
X104075953Y-59778559D01*
X104051304Y-59813724D01*
X101901847Y-61963181D01*
X101840524Y-61996666D01*
X101814166Y-61999500D01*
X101718036Y-61999500D01*
X101579949Y-62040045D01*
X101458873Y-62117856D01*
X101364623Y-62226626D01*
X101364622Y-62226628D01*
X101304834Y-62357543D01*
X101284353Y-62500000D01*
X101304834Y-62642456D01*
X101358306Y-62759541D01*
X101364623Y-62773373D01*
X101458872Y-62882143D01*
X101579947Y-62959953D01*
X101579950Y-62959954D01*
X101579949Y-62959954D01*
X101687107Y-62991417D01*
X101716353Y-63000005D01*
X101718036Y-63000499D01*
X101718038Y-63000500D01*
X101718039Y-63000500D01*
X101861962Y-63000500D01*
X101861962Y-63000499D01*
X102000053Y-62959953D01*
X102121128Y-62882143D01*
X102215377Y-62773373D01*
X102275165Y-62642457D01*
X102295647Y-62500000D01*
X102294339Y-62490905D01*
X102304279Y-62421749D01*
X102329392Y-62385577D01*
X102347904Y-62367065D01*
X102409225Y-62333582D01*
X102478917Y-62338566D01*
X102534850Y-62380438D01*
X102559267Y-62445902D01*
X102558321Y-62472391D01*
X102554353Y-62499994D01*
X102554353Y-62499999D01*
X102574834Y-62642456D01*
X102628306Y-62759541D01*
X102634623Y-62773373D01*
X102728872Y-62882143D01*
X102849947Y-62959953D01*
X102849950Y-62959954D01*
X102849949Y-62959954D01*
X102957107Y-62991417D01*
X102986353Y-63000005D01*
X102988036Y-63000499D01*
X102988038Y-63000500D01*
X102988039Y-63000500D01*
X103131962Y-63000500D01*
X103131962Y-63000499D01*
X103270053Y-62959953D01*
X103391128Y-62882143D01*
X103485377Y-62773373D01*
X103545165Y-62642457D01*
X103565647Y-62500000D01*
X103564339Y-62490905D01*
X103574279Y-62421749D01*
X103599392Y-62385577D01*
X103617904Y-62367065D01*
X103679225Y-62333582D01*
X103748917Y-62338566D01*
X103804850Y-62380438D01*
X103829267Y-62445902D01*
X103828321Y-62472391D01*
X103824353Y-62499994D01*
X103824353Y-62499999D01*
X103844834Y-62642456D01*
X103898306Y-62759541D01*
X103904623Y-62773373D01*
X103998872Y-62882143D01*
X104119947Y-62959953D01*
X104119950Y-62959954D01*
X104119949Y-62959954D01*
X104227107Y-62991417D01*
X104256353Y-63000005D01*
X104258036Y-63000499D01*
X104258038Y-63000500D01*
X104258039Y-63000500D01*
X104401962Y-63000500D01*
X104401962Y-63000499D01*
X104540053Y-62959953D01*
X104661128Y-62882143D01*
X104755377Y-62773373D01*
X104815165Y-62642457D01*
X104835647Y-62500000D01*
X104834339Y-62490905D01*
X104844279Y-62421749D01*
X104869392Y-62385577D01*
X106168152Y-61086819D01*
X106229475Y-61053334D01*
X106255833Y-61050500D01*
X115295302Y-61050500D01*
X115362341Y-61070185D01*
X115408096Y-61122989D01*
X115418040Y-61192147D01*
X115415116Y-61205587D01*
X115394353Y-61350000D01*
X115414834Y-61492456D01*
X115466004Y-61604500D01*
X115474623Y-61623373D01*
X115568872Y-61732143D01*
X115689947Y-61809953D01*
X115689950Y-61809954D01*
X115689949Y-61809954D01*
X115797107Y-61841417D01*
X115825280Y-61849690D01*
X115828036Y-61850499D01*
X115828038Y-61850500D01*
X115924167Y-61850500D01*
X115991206Y-61870185D01*
X116011848Y-61886819D01*
X116410604Y-62285575D01*
X116444089Y-62346898D01*
X116445661Y-62390902D01*
X116444353Y-62399999D01*
X116466097Y-62551235D01*
X116464279Y-62551496D01*
X116464278Y-62610438D01*
X116426502Y-62669215D01*
X116362945Y-62698238D01*
X116345302Y-62699500D01*
X116246223Y-62699500D01*
X116215652Y-62707691D01*
X116169793Y-62719979D01*
X116169792Y-62719980D01*
X116134323Y-62740459D01*
X116101277Y-62759537D01*
X116101272Y-62759541D01*
X115297633Y-63563181D01*
X115236310Y-63596666D01*
X115209952Y-63599500D01*
X114858501Y-63599500D01*
X114791462Y-63579815D01*
X114764788Y-63556703D01*
X114758980Y-63550000D01*
X114731128Y-63517857D01*
X114610053Y-63440047D01*
X114610051Y-63440046D01*
X114610049Y-63440045D01*
X114610050Y-63440045D01*
X114471963Y-63399500D01*
X114471961Y-63399500D01*
X114328039Y-63399500D01*
X114328036Y-63399500D01*
X114189949Y-63440045D01*
X114068873Y-63517856D01*
X113974623Y-63626626D01*
X113974622Y-63626628D01*
X113914834Y-63757543D01*
X113894353Y-63900000D01*
X113916097Y-64051235D01*
X113914279Y-64051496D01*
X113914278Y-64110438D01*
X113876502Y-64169215D01*
X113812945Y-64198238D01*
X113795302Y-64199500D01*
X110020067Y-64199500D01*
X109953028Y-64179815D01*
X109907273Y-64127011D01*
X109897329Y-64057853D01*
X109898243Y-64051496D01*
X109905647Y-64000000D01*
X109885165Y-63857543D01*
X109825377Y-63726627D01*
X109731128Y-63617857D01*
X109610053Y-63540047D01*
X109610051Y-63540046D01*
X109610049Y-63540045D01*
X109610050Y-63540045D01*
X109471963Y-63499500D01*
X109471961Y-63499500D01*
X109328039Y-63499500D01*
X109328036Y-63499500D01*
X109189949Y-63540045D01*
X109068873Y-63617856D01*
X108974623Y-63726626D01*
X108974622Y-63726628D01*
X108937794Y-63807270D01*
X108892039Y-63860074D01*
X108824999Y-63879758D01*
X108757960Y-63860073D01*
X108712206Y-63807270D01*
X108688906Y-63756251D01*
X108675377Y-63726627D01*
X108581128Y-63617857D01*
X108460053Y-63540047D01*
X108460051Y-63540046D01*
X108460049Y-63540045D01*
X108460050Y-63540045D01*
X108321963Y-63499500D01*
X108321961Y-63499500D01*
X108178039Y-63499500D01*
X108178036Y-63499500D01*
X108039950Y-63540045D01*
X108039948Y-63540045D01*
X107978064Y-63579816D01*
X107911026Y-63599500D01*
X101825833Y-63599500D01*
X101758794Y-63579815D01*
X101738152Y-63563181D01*
X101007185Y-62832214D01*
X100973700Y-62770891D01*
X100978684Y-62701199D01*
X100982059Y-62693050D01*
X101005165Y-62642457D01*
X101025647Y-62500000D01*
X101005165Y-62357543D01*
X100945377Y-62226627D01*
X100851128Y-62117857D01*
X100730053Y-62040047D01*
X100730051Y-62040046D01*
X100730049Y-62040045D01*
X100730050Y-62040045D01*
X100591963Y-61999500D01*
X100591961Y-61999500D01*
X100448039Y-61999500D01*
X100448036Y-61999500D01*
X100309949Y-62040045D01*
X100188873Y-62117856D01*
X100094623Y-62226626D01*
X100094622Y-62226628D01*
X100034834Y-62357543D01*
X100014353Y-62500000D01*
X100034834Y-62642456D01*
X100094622Y-62773371D01*
X100094625Y-62773377D01*
X100188869Y-62882140D01*
X100188872Y-62882143D01*
X100241292Y-62915831D01*
X100273114Y-62949204D01*
X100274596Y-62948068D01*
X100279541Y-62954513D01*
X100848400Y-63523371D01*
X101409540Y-64084511D01*
X101465489Y-64140460D01*
X101465491Y-64140461D01*
X101465495Y-64140464D01*
X101515294Y-64169215D01*
X101534011Y-64180021D01*
X101610438Y-64200500D01*
X101689562Y-64200500D01*
X107711653Y-64200500D01*
X107778692Y-64220185D01*
X107818857Y-64266537D01*
X107819829Y-64265913D01*
X107824168Y-64272665D01*
X107824446Y-64272986D01*
X107824623Y-64273373D01*
X107918872Y-64382143D01*
X108039947Y-64459953D01*
X108039950Y-64459954D01*
X108039949Y-64459954D01*
X108108293Y-64480021D01*
X108176336Y-64500000D01*
X108178036Y-64500499D01*
X108178038Y-64500500D01*
X108178039Y-64500500D01*
X108321962Y-64500500D01*
X108321962Y-64500499D01*
X108460053Y-64459953D01*
X108581128Y-64382143D01*
X108675377Y-64273373D01*
X108712206Y-64192728D01*
X108757961Y-64139926D01*
X108825000Y-64120241D01*
X108892040Y-64139926D01*
X108937793Y-64192728D01*
X108974623Y-64273373D01*
X109068872Y-64382143D01*
X109189947Y-64459953D01*
X109223334Y-64469756D01*
X109276081Y-64501052D01*
X109459540Y-64684511D01*
X109515489Y-64740460D01*
X109515491Y-64740461D01*
X109515495Y-64740464D01*
X109574034Y-64774261D01*
X109584011Y-64780021D01*
X109660438Y-64800500D01*
X109660440Y-64800500D01*
X117327060Y-64800500D01*
X117327062Y-64800500D01*
X117403489Y-64780021D01*
X117472011Y-64740460D01*
X117527960Y-64684511D01*
X117919401Y-64293068D01*
X117980724Y-64259584D01*
X118007082Y-64256750D01*
X118103212Y-64256750D01*
X118103212Y-64256749D01*
X118216080Y-64223609D01*
X118241300Y-64216204D01*
X118241300Y-64216203D01*
X118241303Y-64216203D01*
X118362378Y-64138393D01*
X118456627Y-64029623D01*
X118516415Y-63898707D01*
X118536897Y-63756250D01*
X118516415Y-63613793D01*
X118456627Y-63482877D01*
X118453492Y-63476012D01*
X118443548Y-63406853D01*
X118472573Y-63343298D01*
X118531351Y-63305523D01*
X118566286Y-63300500D01*
X118974167Y-63300500D01*
X119041206Y-63320185D01*
X119061848Y-63336819D01*
X120109540Y-64384511D01*
X120165489Y-64440460D01*
X120165491Y-64440461D01*
X120165495Y-64440464D01*
X120231674Y-64478672D01*
X120234011Y-64480021D01*
X120310438Y-64500500D01*
X120310440Y-64500500D01*
X122288089Y-64500500D01*
X122288091Y-64500500D01*
X122364518Y-64480021D01*
X122433040Y-64440460D01*
X122488989Y-64384511D01*
X122786681Y-64086819D01*
X122848004Y-64053334D01*
X122874362Y-64050500D01*
X125624167Y-64050500D01*
X125691206Y-64070185D01*
X125711848Y-64086819D01*
X126268275Y-64643246D01*
X126301760Y-64704569D01*
X126296776Y-64774261D01*
X126254904Y-64830194D01*
X126194478Y-64854147D01*
X126011010Y-64874819D01*
X125838612Y-64935143D01*
X125683963Y-65032316D01*
X125554816Y-65161463D01*
X125457643Y-65316112D01*
X125397319Y-65488510D01*
X125376871Y-65669997D01*
X125376871Y-65670002D01*
X125397319Y-65851490D01*
X125397320Y-65851494D01*
X125420504Y-65917750D01*
X125424065Y-65987529D01*
X125391144Y-66046384D01*
X125342041Y-66095487D01*
X125342035Y-66095495D01*
X125302482Y-66164004D01*
X125302479Y-66164009D01*
X125282000Y-66240439D01*
X125282000Y-66687727D01*
X125262315Y-66754766D01*
X125209511Y-66800521D01*
X125140353Y-66810465D01*
X125090961Y-66792043D01*
X125010050Y-66740045D01*
X124871963Y-66699500D01*
X124871961Y-66699500D01*
X124728039Y-66699500D01*
X124728036Y-66699500D01*
X124589949Y-66740045D01*
X124468873Y-66817856D01*
X124468872Y-66817856D01*
X124468872Y-66817857D01*
X124436779Y-66854895D01*
X124435212Y-66856703D01*
X124376433Y-66894477D01*
X124341499Y-66899500D01*
X121760438Y-66899500D01*
X121684010Y-66919978D01*
X121615489Y-66959540D01*
X121615486Y-66959542D01*
X119311848Y-69263181D01*
X119250525Y-69296666D01*
X119224167Y-69299500D01*
X115760438Y-69299500D01*
X115729867Y-69307691D01*
X115684008Y-69319979D01*
X115684007Y-69319980D01*
X115648538Y-69340459D01*
X115615492Y-69359537D01*
X115615487Y-69359541D01*
X111709541Y-73265487D01*
X111709535Y-73265495D01*
X111669982Y-73334004D01*
X111669979Y-73334009D01*
X111649500Y-73410439D01*
X111649500Y-79536260D01*
X111629815Y-79603299D01*
X111619213Y-79617462D01*
X111524625Y-79726622D01*
X111524622Y-79726628D01*
X111464834Y-79857543D01*
X111444353Y-80000000D01*
X111464834Y-80142456D01*
X111505902Y-80232381D01*
X111524623Y-80273373D01*
X111618872Y-80382143D01*
X111739947Y-80459953D01*
X111739950Y-80459954D01*
X111739949Y-80459954D01*
X111847107Y-80491417D01*
X111875280Y-80499690D01*
X111878036Y-80500499D01*
X111878038Y-80500500D01*
X111878039Y-80500500D01*
X112021962Y-80500500D01*
X112021962Y-80500499D01*
X112160053Y-80459953D01*
X112281128Y-80382143D01*
X112375377Y-80273373D01*
X112435165Y-80142457D01*
X112455647Y-80000000D01*
X112435165Y-79857543D01*
X112375377Y-79726627D01*
X112375375Y-79726625D01*
X112375374Y-79726622D01*
X112280787Y-79617462D01*
X112251762Y-79553906D01*
X112250500Y-79536260D01*
X112250500Y-73625833D01*
X112270185Y-73558794D01*
X112286819Y-73538152D01*
X115888152Y-69936819D01*
X115949475Y-69903334D01*
X115975833Y-69900500D01*
X119439560Y-69900500D01*
X119439562Y-69900500D01*
X119515989Y-69880021D01*
X119584511Y-69840460D01*
X119640460Y-69784511D01*
X121888152Y-67536819D01*
X121949475Y-67503334D01*
X121975833Y-67500500D01*
X124341499Y-67500500D01*
X124408538Y-67520185D01*
X124435211Y-67543296D01*
X124468872Y-67582143D01*
X124589947Y-67659953D01*
X124589950Y-67659954D01*
X124589949Y-67659954D01*
X124728036Y-67700499D01*
X124728038Y-67700500D01*
X124728039Y-67700500D01*
X124871962Y-67700500D01*
X124871962Y-67700499D01*
X125007305Y-67660760D01*
X125010050Y-67659954D01*
X125010051Y-67659954D01*
X125024762Y-67650500D01*
X125090960Y-67607956D01*
X125158000Y-67588272D01*
X125225039Y-67607956D01*
X125270794Y-67660760D01*
X125282000Y-67712272D01*
X125282000Y-72729562D01*
X125290826Y-72762499D01*
X125302479Y-72805990D01*
X125302480Y-72805991D01*
X125311694Y-72821950D01*
X125320233Y-72836740D01*
X125342039Y-72874509D01*
X125342041Y-72874512D01*
X125391143Y-72923614D01*
X125424628Y-72984937D01*
X125420504Y-73052248D01*
X125397320Y-73118505D01*
X125376871Y-73299997D01*
X125376871Y-73300002D01*
X125397319Y-73481490D01*
X125397320Y-73481493D01*
X125420504Y-73547749D01*
X125424065Y-73617528D01*
X125391143Y-73676384D01*
X121164647Y-77902880D01*
X121103324Y-77936365D01*
X121033632Y-77931381D01*
X120977699Y-77889509D01*
X120965387Y-77864907D01*
X120963849Y-77865610D01*
X120951787Y-77839198D01*
X120900377Y-77726627D01*
X120806128Y-77617857D01*
X120685053Y-77540047D01*
X120685051Y-77540046D01*
X120685049Y-77540045D01*
X120685050Y-77540045D01*
X120546963Y-77499500D01*
X120546961Y-77499500D01*
X120403039Y-77499500D01*
X120403036Y-77499500D01*
X120264949Y-77540045D01*
X120143873Y-77617856D01*
X120143872Y-77617856D01*
X120143872Y-77617857D01*
X120141987Y-77620032D01*
X120066887Y-77706703D01*
X120008109Y-77744477D01*
X119973174Y-77749500D01*
X118745370Y-77749500D01*
X118678331Y-77729815D01*
X118632576Y-77677011D01*
X118622632Y-77607853D01*
X118637983Y-77563499D01*
X118645457Y-77550553D01*
X118645458Y-77550552D01*
X118665937Y-77474125D01*
X118665937Y-75475875D01*
X118645458Y-75399448D01*
X118645454Y-75399441D01*
X118605901Y-75330932D01*
X118605895Y-75330924D01*
X118549948Y-75274977D01*
X116192778Y-72917806D01*
X116167663Y-72881632D01*
X116165379Y-72876631D01*
X116165376Y-72876626D01*
X116150942Y-72859968D01*
X116071128Y-72767857D01*
X115950053Y-72690047D01*
X115950051Y-72690046D01*
X115950049Y-72690045D01*
X115950050Y-72690045D01*
X115882623Y-72670247D01*
X117762000Y-72670247D01*
X117762000Y-73929752D01*
X117773631Y-73988229D01*
X117773632Y-73988230D01*
X117817947Y-74054552D01*
X117884269Y-74098867D01*
X117884270Y-74098868D01*
X117942747Y-74110499D01*
X117942750Y-74110500D01*
X117942752Y-74110500D01*
X118770417Y-74110500D01*
X118837456Y-74130185D01*
X118858098Y-74146819D01*
X120410790Y-75699511D01*
X120466739Y-75755460D01*
X120466741Y-75755461D01*
X120466745Y-75755464D01*
X120523743Y-75788371D01*
X120535261Y-75795021D01*
X120611688Y-75815500D01*
X120690812Y-75815500D01*
X121631499Y-75815500D01*
X121698538Y-75835185D01*
X121725211Y-75858296D01*
X121758872Y-75897143D01*
X121879947Y-75974953D01*
X121879950Y-75974954D01*
X121879949Y-75974954D01*
X122018036Y-76015499D01*
X122018038Y-76015500D01*
X122018039Y-76015500D01*
X122161962Y-76015500D01*
X122161962Y-76015499D01*
X122300053Y-75974953D01*
X122421128Y-75897143D01*
X122515377Y-75788373D01*
X122575165Y-75657457D01*
X122595647Y-75515000D01*
X122575165Y-75372543D01*
X122515377Y-75241627D01*
X122421128Y-75132857D01*
X122300053Y-75055047D01*
X122300051Y-75055046D01*
X122300049Y-75055045D01*
X122300050Y-75055045D01*
X122161963Y-75014500D01*
X122161961Y-75014500D01*
X122018039Y-75014500D01*
X122018036Y-75014500D01*
X121879949Y-75055045D01*
X121758873Y-75132856D01*
X121725212Y-75171703D01*
X121666433Y-75209477D01*
X121631499Y-75214500D01*
X120827083Y-75214500D01*
X120760044Y-75194815D01*
X120739402Y-75178181D01*
X119419319Y-73858098D01*
X119385834Y-73796775D01*
X119383000Y-73770417D01*
X119383000Y-73299997D01*
X120296871Y-73299997D01*
X120296871Y-73300002D01*
X120317319Y-73481489D01*
X120377643Y-73653887D01*
X120428610Y-73735000D01*
X120474816Y-73808536D01*
X120603964Y-73937684D01*
X120758612Y-74034856D01*
X120931005Y-74095179D01*
X120931008Y-74095179D01*
X120931010Y-74095180D01*
X121112497Y-74115629D01*
X121112500Y-74115629D01*
X121112503Y-74115629D01*
X121293989Y-74095180D01*
X121293990Y-74095179D01*
X121293995Y-74095179D01*
X121466388Y-74034856D01*
X121621036Y-73937684D01*
X121750184Y-73808536D01*
X121847356Y-73653888D01*
X121907679Y-73481495D01*
X121909211Y-73467904D01*
X121928129Y-73300002D01*
X121928129Y-73299999D01*
X122537745Y-73299999D01*
X122537745Y-73300000D01*
X122556725Y-73504835D01*
X122556726Y-73504838D01*
X122613019Y-73702691D01*
X122613022Y-73702697D01*
X122704716Y-73886843D01*
X122704719Y-73886848D01*
X122707894Y-73891051D01*
X123222609Y-73376336D01*
X123247144Y-73467904D01*
X123304413Y-73567097D01*
X123385403Y-73648087D01*
X123484596Y-73705356D01*
X123576162Y-73729890D01*
X123064549Y-74241503D01*
X123064549Y-74241504D01*
X123155607Y-74297886D01*
X123155611Y-74297888D01*
X123347430Y-74372198D01*
X123549645Y-74410000D01*
X123755355Y-74410000D01*
X123957569Y-74372198D01*
X124149386Y-74297889D01*
X124240449Y-74241503D01*
X123728838Y-73729890D01*
X123820404Y-73705356D01*
X123919597Y-73648087D01*
X124000587Y-73567097D01*
X124057856Y-73467904D01*
X124082390Y-73376337D01*
X124597104Y-73891051D01*
X124597105Y-73891051D01*
X124600280Y-73886848D01*
X124600284Y-73886841D01*
X124691977Y-73702697D01*
X124691980Y-73702691D01*
X124748273Y-73504838D01*
X124748274Y-73504835D01*
X124767255Y-73300000D01*
X124767255Y-73299999D01*
X124748274Y-73095164D01*
X124748273Y-73095161D01*
X124691980Y-72897308D01*
X124691977Y-72897302D01*
X124600283Y-72713156D01*
X124600280Y-72713151D01*
X124597105Y-72708948D01*
X124597104Y-72708947D01*
X124082390Y-73223661D01*
X124057856Y-73132096D01*
X124000587Y-73032903D01*
X123919597Y-72951913D01*
X123820404Y-72894644D01*
X123728837Y-72870109D01*
X124240450Y-72358495D01*
X124149389Y-72302112D01*
X124149388Y-72302111D01*
X123957569Y-72227801D01*
X123755355Y-72190000D01*
X123549645Y-72190000D01*
X123347430Y-72227801D01*
X123155613Y-72302110D01*
X123155607Y-72302113D01*
X123064549Y-72358494D01*
X123064548Y-72358495D01*
X123576163Y-72870109D01*
X123484596Y-72894644D01*
X123385403Y-72951913D01*
X123304413Y-73032903D01*
X123247144Y-73132096D01*
X123222609Y-73223662D01*
X122707894Y-72708948D01*
X122704714Y-72713159D01*
X122613022Y-72897302D01*
X122613019Y-72897308D01*
X122556726Y-73095161D01*
X122556725Y-73095164D01*
X122537745Y-73299999D01*
X121928129Y-73299999D01*
X121928129Y-73299997D01*
X121907680Y-73118510D01*
X121907679Y-73118508D01*
X121907679Y-73118505D01*
X121847356Y-72946112D01*
X121750184Y-72791464D01*
X121621036Y-72662316D01*
X121607766Y-72653978D01*
X121466387Y-72565143D01*
X121293989Y-72504819D01*
X121112503Y-72484371D01*
X121112497Y-72484371D01*
X120931010Y-72504819D01*
X120758612Y-72565143D01*
X120603963Y-72662316D01*
X120474816Y-72791463D01*
X120377643Y-72946112D01*
X120317319Y-73118510D01*
X120296871Y-73299997D01*
X119383000Y-73299997D01*
X119383000Y-72670249D01*
X119382999Y-72670247D01*
X119371368Y-72611770D01*
X119371367Y-72611769D01*
X119327052Y-72545447D01*
X119260730Y-72501132D01*
X119260729Y-72501131D01*
X119202252Y-72489500D01*
X119202248Y-72489500D01*
X117942752Y-72489500D01*
X117942747Y-72489500D01*
X117884270Y-72501131D01*
X117884269Y-72501132D01*
X117817947Y-72545447D01*
X117773632Y-72611769D01*
X117773631Y-72611770D01*
X117762000Y-72670247D01*
X115882623Y-72670247D01*
X115811963Y-72649500D01*
X115811961Y-72649500D01*
X115668039Y-72649500D01*
X115668036Y-72649500D01*
X115529949Y-72690045D01*
X115408873Y-72767856D01*
X115314623Y-72876626D01*
X115314622Y-72876628D01*
X115254834Y-73007543D01*
X115234353Y-73150000D01*
X115254834Y-73292456D01*
X115299403Y-73390047D01*
X115314623Y-73423373D01*
X115408872Y-73532143D01*
X115529947Y-73609953D01*
X115529950Y-73609954D01*
X115529949Y-73609954D01*
X115668036Y-73650499D01*
X115668038Y-73650500D01*
X115668039Y-73650500D01*
X115811961Y-73650500D01*
X115945115Y-73611403D01*
X116014981Y-73611403D01*
X116067728Y-73642699D01*
X116332848Y-73907819D01*
X116366333Y-73969142D01*
X116361349Y-74038834D01*
X116319477Y-74094767D01*
X116254013Y-74119184D01*
X116245167Y-74119500D01*
X116198501Y-74119500D01*
X116131462Y-74099815D01*
X116104788Y-74076703D01*
X116071128Y-74037857D01*
X115950053Y-73960047D01*
X115950051Y-73960046D01*
X115950049Y-73960045D01*
X115950050Y-73960045D01*
X115811963Y-73919500D01*
X115811961Y-73919500D01*
X115668039Y-73919500D01*
X115668036Y-73919500D01*
X115529949Y-73960045D01*
X115408873Y-74037856D01*
X115408872Y-74037856D01*
X115408872Y-74037857D01*
X115402143Y-74045623D01*
X115314623Y-74146626D01*
X115314622Y-74146628D01*
X115254834Y-74277543D01*
X115234353Y-74420000D01*
X115254834Y-74562456D01*
X115314622Y-74693371D01*
X115314623Y-74693373D01*
X115408872Y-74802143D01*
X115529947Y-74879953D01*
X115529950Y-74879954D01*
X115529949Y-74879954D01*
X115668036Y-74920499D01*
X115668038Y-74920500D01*
X115668039Y-74920500D01*
X115811962Y-74920500D01*
X115811962Y-74920499D01*
X115950053Y-74879953D01*
X116071128Y-74802143D01*
X116104788Y-74763296D01*
X116163567Y-74725523D01*
X116198501Y-74720500D01*
X116294167Y-74720500D01*
X116361206Y-74740185D01*
X116381848Y-74756819D01*
X116913181Y-75288152D01*
X116946666Y-75349475D01*
X116949500Y-75375833D01*
X116949500Y-76507218D01*
X116954518Y-76525945D01*
X116969979Y-76583646D01*
X116969980Y-76583647D01*
X116991910Y-76621632D01*
X117001558Y-76638342D01*
X117009540Y-76652167D01*
X117009542Y-76652169D01*
X117226041Y-76868668D01*
X117259526Y-76929991D01*
X117261098Y-76973995D01*
X117259790Y-76983092D01*
X117280271Y-77125549D01*
X117332750Y-77240460D01*
X117340060Y-77256466D01*
X117396378Y-77321462D01*
X117425403Y-77385016D01*
X117415459Y-77454174D01*
X117396379Y-77483865D01*
X117374623Y-77508973D01*
X117374622Y-77508974D01*
X117314834Y-77639889D01*
X117294353Y-77782346D01*
X117314834Y-77924802D01*
X117349189Y-78000028D01*
X117374623Y-78055719D01*
X117468872Y-78164489D01*
X117577860Y-78234531D01*
X117623614Y-78287334D01*
X117633558Y-78356493D01*
X117604533Y-78420048D01*
X117598501Y-78426527D01*
X116461848Y-79563181D01*
X116400525Y-79596666D01*
X116374167Y-79599500D01*
X114828974Y-79599500D01*
X114761936Y-79579816D01*
X114700050Y-79540045D01*
X114561963Y-79499500D01*
X114561961Y-79499500D01*
X114418039Y-79499500D01*
X114418036Y-79499500D01*
X114279949Y-79540045D01*
X114158873Y-79617856D01*
X114064623Y-79726626D01*
X114064622Y-79726628D01*
X114004834Y-79857543D01*
X113984353Y-80000000D01*
X114004834Y-80142456D01*
X114045902Y-80232381D01*
X114064623Y-80273373D01*
X114158872Y-80382143D01*
X114279947Y-80459953D01*
X114279950Y-80459954D01*
X114279949Y-80459954D01*
X114387107Y-80491417D01*
X114415280Y-80499690D01*
X114418036Y-80500499D01*
X114418038Y-80500500D01*
X114418039Y-80500500D01*
X114561962Y-80500500D01*
X114561962Y-80500499D01*
X114700053Y-80459953D01*
X114821128Y-80382143D01*
X114915377Y-80273373D01*
X114915553Y-80272986D01*
X114915831Y-80272665D01*
X114920171Y-80265913D01*
X114921142Y-80266537D01*
X114961309Y-80220184D01*
X115028347Y-80200500D01*
X116390853Y-80200500D01*
X116457892Y-80220185D01*
X116503647Y-80272989D01*
X116513591Y-80342147D01*
X116484566Y-80405703D01*
X116478534Y-80412181D01*
X115977534Y-80913181D01*
X115916211Y-80946666D01*
X115889853Y-80949500D01*
X105755833Y-80949500D01*
X105688794Y-80929815D01*
X105668152Y-80913181D01*
X104869395Y-80114424D01*
X104835910Y-80053101D01*
X104834339Y-80009094D01*
X104835647Y-80000000D01*
X104815165Y-79857543D01*
X104755377Y-79726627D01*
X104661128Y-79617857D01*
X104540053Y-79540047D01*
X104540051Y-79540046D01*
X104540049Y-79540045D01*
X104540050Y-79540045D01*
X104401963Y-79499500D01*
X104401961Y-79499500D01*
X104258039Y-79499500D01*
X104258036Y-79499500D01*
X104119949Y-79540045D01*
X103998873Y-79617856D01*
X103904623Y-79726626D01*
X103904622Y-79726628D01*
X103844834Y-79857543D01*
X103824353Y-80000000D01*
X103844834Y-80142456D01*
X103885902Y-80232381D01*
X103904623Y-80273373D01*
X103998872Y-80382143D01*
X104119947Y-80459953D01*
X104119950Y-80459954D01*
X104119949Y-80459954D01*
X104227107Y-80491417D01*
X104255280Y-80499690D01*
X104258036Y-80500499D01*
X104258038Y-80500500D01*
X104354167Y-80500500D01*
X104421206Y-80520185D01*
X104441848Y-80536819D01*
X105339540Y-81434511D01*
X105395489Y-81490460D01*
X105395491Y-81490461D01*
X105395495Y-81490464D01*
X105418835Y-81503939D01*
X105464011Y-81530021D01*
X105540438Y-81550500D01*
X105540440Y-81550500D01*
X115959481Y-81550500D01*
X116026520Y-81570185D01*
X116072275Y-81622989D01*
X116082219Y-81692147D01*
X116053194Y-81755703D01*
X116047162Y-81762181D01*
X114896162Y-82913181D01*
X114834839Y-82946666D01*
X114808481Y-82949500D01*
X110575833Y-82949500D01*
X110508794Y-82929815D01*
X110488152Y-82913181D01*
X110139395Y-82564424D01*
X110105910Y-82503101D01*
X110104339Y-82459094D01*
X110105647Y-82450000D01*
X110085165Y-82307543D01*
X110025377Y-82176627D01*
X109931128Y-82067857D01*
X109810053Y-81990047D01*
X109810051Y-81990046D01*
X109810049Y-81990045D01*
X109810050Y-81990045D01*
X109671963Y-81949500D01*
X109671961Y-81949500D01*
X109528039Y-81949500D01*
X109528036Y-81949500D01*
X109389949Y-81990045D01*
X109268873Y-82067856D01*
X109268872Y-82067856D01*
X109268872Y-82067857D01*
X109267232Y-82069750D01*
X109174623Y-82176626D01*
X109174622Y-82176628D01*
X109114834Y-82307543D01*
X109094353Y-82450000D01*
X109114834Y-82592456D01*
X109174622Y-82723371D01*
X109174623Y-82723373D01*
X109268872Y-82832143D01*
X109389947Y-82909953D01*
X109389950Y-82909954D01*
X109389949Y-82909954D01*
X109497107Y-82941417D01*
X109525280Y-82949690D01*
X109528036Y-82950499D01*
X109528038Y-82950500D01*
X109624167Y-82950500D01*
X109691206Y-82970185D01*
X109711848Y-82986819D01*
X110062848Y-83337819D01*
X110096333Y-83399142D01*
X110091349Y-83468834D01*
X110049477Y-83524767D01*
X109984013Y-83549184D01*
X109975167Y-83549500D01*
X104138333Y-83549500D01*
X104071294Y-83529815D01*
X104050652Y-83513181D01*
X103101895Y-82564424D01*
X103068410Y-82503101D01*
X103066839Y-82459094D01*
X103068147Y-82450000D01*
X103047665Y-82307543D01*
X102987877Y-82176627D01*
X102893628Y-82067857D01*
X102772553Y-81990047D01*
X102772551Y-81990046D01*
X102772549Y-81990045D01*
X102772550Y-81990045D01*
X102634463Y-81949500D01*
X102634461Y-81949500D01*
X102490539Y-81949500D01*
X102490536Y-81949500D01*
X102352449Y-81990045D01*
X102231373Y-82067856D01*
X102231372Y-82067856D01*
X102231372Y-82067857D01*
X102229732Y-82069750D01*
X102137123Y-82176626D01*
X102137122Y-82176628D01*
X102077334Y-82307543D01*
X102056853Y-82450000D01*
X102077334Y-82592456D01*
X102137122Y-82723371D01*
X102137123Y-82723373D01*
X102231372Y-82832143D01*
X102352447Y-82909953D01*
X102352450Y-82909954D01*
X102352449Y-82909954D01*
X102459607Y-82941417D01*
X102487780Y-82949690D01*
X102490536Y-82950499D01*
X102490538Y-82950500D01*
X102586667Y-82950500D01*
X102653706Y-82970185D01*
X102674348Y-82986819D01*
X103462746Y-83775217D01*
X103496231Y-83836540D01*
X103491247Y-83906232D01*
X103449375Y-83962165D01*
X103383911Y-83986582D01*
X103375006Y-83986898D01*
X96803941Y-83983771D01*
X96736911Y-83964055D01*
X96691181Y-83911229D01*
X96680000Y-83859771D01*
X96680000Y-74866660D01*
X104636892Y-74866660D01*
X104636892Y-74866661D01*
X104650692Y-74875333D01*
X104650691Y-74875333D01*
X104820861Y-74934878D01*
X104999997Y-74955062D01*
X105000003Y-74955062D01*
X105179138Y-74934878D01*
X105179141Y-74934877D01*
X105349305Y-74875334D01*
X105349306Y-74875334D01*
X105363106Y-74866661D01*
X105363106Y-74866660D01*
X106036892Y-74866660D01*
X106036892Y-74866661D01*
X106050692Y-74875333D01*
X106050691Y-74875333D01*
X106220861Y-74934878D01*
X106399997Y-74955062D01*
X106400003Y-74955062D01*
X106579138Y-74934878D01*
X106579141Y-74934877D01*
X106749305Y-74875334D01*
X106749306Y-74875334D01*
X106763106Y-74866661D01*
X106763106Y-74866660D01*
X106400001Y-74503553D01*
X106400000Y-74503553D01*
X106036892Y-74866660D01*
X105363106Y-74866660D01*
X105000001Y-74503553D01*
X105000000Y-74503553D01*
X104636892Y-74866660D01*
X96680000Y-74866660D01*
X96680000Y-74166660D01*
X103936892Y-74166660D01*
X103936892Y-74166661D01*
X103950692Y-74175333D01*
X103950691Y-74175333D01*
X104120862Y-74234878D01*
X104121644Y-74235057D01*
X104122097Y-74235310D01*
X104127431Y-74237177D01*
X104127104Y-74238111D01*
X104182623Y-74269166D01*
X104211952Y-74322874D01*
X104212822Y-74322570D01*
X104214670Y-74327852D01*
X104214940Y-74328346D01*
X104215121Y-74329142D01*
X104274663Y-74499300D01*
X104274663Y-74499301D01*
X104283338Y-74513107D01*
X104646446Y-74150000D01*
X104616609Y-74120163D01*
X104850000Y-74120163D01*
X104850000Y-74179837D01*
X104872836Y-74234968D01*
X104915032Y-74277164D01*
X104970163Y-74300000D01*
X105029837Y-74300000D01*
X105084968Y-74277164D01*
X105127164Y-74234968D01*
X105150000Y-74179837D01*
X105150000Y-74150000D01*
X105353553Y-74150000D01*
X105700000Y-74496446D01*
X105700001Y-74496446D01*
X106046446Y-74150000D01*
X106016609Y-74120163D01*
X106250000Y-74120163D01*
X106250000Y-74179837D01*
X106272836Y-74234968D01*
X106315032Y-74277164D01*
X106370163Y-74300000D01*
X106429837Y-74300000D01*
X106484968Y-74277164D01*
X106527164Y-74234968D01*
X106550000Y-74179837D01*
X106550000Y-74150000D01*
X106753553Y-74150000D01*
X107116660Y-74513106D01*
X107116661Y-74513106D01*
X107125334Y-74499306D01*
X107125334Y-74499305D01*
X107184876Y-74329144D01*
X107185056Y-74328358D01*
X107185311Y-74327901D01*
X107187177Y-74322570D01*
X107188110Y-74322896D01*
X107219164Y-74267379D01*
X107272875Y-74238049D01*
X107272570Y-74237177D01*
X107277870Y-74235322D01*
X107278358Y-74235056D01*
X107279144Y-74234876D01*
X107449305Y-74175334D01*
X107449306Y-74175334D01*
X107463106Y-74166661D01*
X107463106Y-74166660D01*
X107100000Y-73803553D01*
X107052753Y-73850801D01*
X107052752Y-73850803D01*
X106753553Y-74150000D01*
X106550000Y-74150000D01*
X106550000Y-74120163D01*
X106527164Y-74065032D01*
X106484968Y-74022836D01*
X106429837Y-74000000D01*
X106370163Y-74000000D01*
X106315032Y-74022836D01*
X106272836Y-74065032D01*
X106250000Y-74120163D01*
X106016609Y-74120163D01*
X105747247Y-73850801D01*
X105700000Y-73803553D01*
X105652753Y-73850801D01*
X105652752Y-73850803D01*
X105353553Y-74150000D01*
X105150000Y-74150000D01*
X105150000Y-74120163D01*
X105127164Y-74065032D01*
X105084968Y-74022836D01*
X105029837Y-74000000D01*
X104970163Y-74000000D01*
X104915032Y-74022836D01*
X104872836Y-74065032D01*
X104850000Y-74120163D01*
X104616609Y-74120163D01*
X104299999Y-73803553D01*
X104299998Y-73803553D01*
X103936892Y-74166660D01*
X96680000Y-74166660D01*
X96680000Y-73449997D01*
X103494938Y-73449997D01*
X103494938Y-73450002D01*
X103515121Y-73629138D01*
X103574665Y-73799304D01*
X103583338Y-73813107D01*
X103946446Y-73450000D01*
X103946446Y-73449999D01*
X103916610Y-73420163D01*
X104150000Y-73420163D01*
X104150000Y-73479837D01*
X104172836Y-73534968D01*
X104215032Y-73577164D01*
X104270163Y-73600000D01*
X104329837Y-73600000D01*
X104384968Y-73577164D01*
X104427164Y-73534968D01*
X104450000Y-73479837D01*
X104450000Y-73462499D01*
X104666053Y-73462499D01*
X105000000Y-73796446D01*
X105307387Y-73489059D01*
X105307387Y-73489058D01*
X105333946Y-73462499D01*
X105291610Y-73420163D01*
X105550000Y-73420163D01*
X105550000Y-73479837D01*
X105572836Y-73534968D01*
X105615032Y-73577164D01*
X105670163Y-73600000D01*
X105729837Y-73600000D01*
X105784968Y-73577164D01*
X105827164Y-73534968D01*
X105850000Y-73479837D01*
X105850000Y-73462499D01*
X106066053Y-73462499D01*
X106400000Y-73796446D01*
X106707387Y-73489059D01*
X106707387Y-73489058D01*
X106733946Y-73462499D01*
X106691610Y-73420163D01*
X106950000Y-73420163D01*
X106950000Y-73479837D01*
X106972836Y-73534968D01*
X107015032Y-73577164D01*
X107070163Y-73600000D01*
X107129837Y-73600000D01*
X107184968Y-73577164D01*
X107227164Y-73534968D01*
X107250000Y-73479837D01*
X107250000Y-73450000D01*
X107453553Y-73450000D01*
X107816660Y-73813106D01*
X107816661Y-73813106D01*
X107825334Y-73799306D01*
X107825334Y-73799305D01*
X107884877Y-73629141D01*
X107884878Y-73629138D01*
X107905062Y-73450002D01*
X107905062Y-73449997D01*
X107884878Y-73270861D01*
X107825333Y-73100692D01*
X107816661Y-73086892D01*
X107816660Y-73086892D01*
X107453553Y-73450000D01*
X107250000Y-73450000D01*
X107250000Y-73420163D01*
X107227164Y-73365032D01*
X107184968Y-73322836D01*
X107129837Y-73300000D01*
X107070163Y-73300000D01*
X107015032Y-73322836D01*
X106972836Y-73365032D01*
X106950000Y-73420163D01*
X106691610Y-73420163D01*
X106400001Y-73128553D01*
X106400000Y-73128553D01*
X106066053Y-73462499D01*
X105850000Y-73462499D01*
X105850000Y-73420163D01*
X105827164Y-73365032D01*
X105784968Y-73322836D01*
X105729837Y-73300000D01*
X105670163Y-73300000D01*
X105615032Y-73322836D01*
X105572836Y-73365032D01*
X105550000Y-73420163D01*
X105291610Y-73420163D01*
X105000001Y-73128553D01*
X105000000Y-73128553D01*
X104666053Y-73462499D01*
X104450000Y-73462499D01*
X104450000Y-73420163D01*
X104427164Y-73365032D01*
X104384968Y-73322836D01*
X104329837Y-73300000D01*
X104270163Y-73300000D01*
X104215032Y-73322836D01*
X104172836Y-73365032D01*
X104150000Y-73420163D01*
X103916610Y-73420163D01*
X103583338Y-73086891D01*
X103583337Y-73086891D01*
X103574667Y-73100691D01*
X103574662Y-73100701D01*
X103515122Y-73270858D01*
X103515121Y-73270861D01*
X103494938Y-73449997D01*
X96680000Y-73449997D01*
X96680000Y-72749999D01*
X103953553Y-72749999D01*
X103953553Y-72750000D01*
X104300000Y-73096446D01*
X104300001Y-73096446D01*
X104633946Y-72762499D01*
X104633946Y-72762498D01*
X104616611Y-72745163D01*
X104850000Y-72745163D01*
X104850000Y-72804837D01*
X104872836Y-72859968D01*
X104915032Y-72902164D01*
X104970163Y-72925000D01*
X105029837Y-72925000D01*
X105084968Y-72902164D01*
X105127164Y-72859968D01*
X105150000Y-72804837D01*
X105150000Y-72762498D01*
X105366053Y-72762498D01*
X105366053Y-72762499D01*
X105700000Y-73096446D01*
X105700001Y-73096446D01*
X106033946Y-72762499D01*
X106033946Y-72762498D01*
X106016611Y-72745163D01*
X106250000Y-72745163D01*
X106250000Y-72804837D01*
X106272836Y-72859968D01*
X106315032Y-72902164D01*
X106370163Y-72925000D01*
X106429837Y-72925000D01*
X106484968Y-72902164D01*
X106527164Y-72859968D01*
X106550000Y-72804837D01*
X106550000Y-72762498D01*
X106766053Y-72762498D01*
X106766053Y-72762499D01*
X107100000Y-73096446D01*
X107446446Y-72750000D01*
X107446446Y-72749999D01*
X107112501Y-72416053D01*
X107112500Y-72416053D01*
X106766053Y-72762498D01*
X106550000Y-72762498D01*
X106550000Y-72745163D01*
X106527164Y-72690032D01*
X106484968Y-72647836D01*
X106429837Y-72625000D01*
X106370163Y-72625000D01*
X106315032Y-72647836D01*
X106272836Y-72690032D01*
X106250000Y-72745163D01*
X106016611Y-72745163D01*
X105700001Y-72428553D01*
X105700000Y-72428553D01*
X105366053Y-72762498D01*
X105150000Y-72762498D01*
X105150000Y-72745163D01*
X105127164Y-72690032D01*
X105084968Y-72647836D01*
X105029837Y-72625000D01*
X104970163Y-72625000D01*
X104915032Y-72647836D01*
X104872836Y-72690032D01*
X104850000Y-72745163D01*
X104616611Y-72745163D01*
X104287499Y-72416053D01*
X104287498Y-72416053D01*
X103953553Y-72749999D01*
X96680000Y-72749999D01*
X96680000Y-72049997D01*
X103494938Y-72049997D01*
X103494938Y-72050002D01*
X103515121Y-72229138D01*
X103574665Y-72399304D01*
X103583338Y-72413107D01*
X103946446Y-72050000D01*
X103946446Y-72049999D01*
X103916610Y-72020163D01*
X104150000Y-72020163D01*
X104150000Y-72079837D01*
X104172836Y-72134968D01*
X104215032Y-72177164D01*
X104270163Y-72200000D01*
X104329837Y-72200000D01*
X104384968Y-72177164D01*
X104427164Y-72134968D01*
X104450000Y-72079837D01*
X104450000Y-72049999D01*
X104653553Y-72049999D01*
X104653553Y-72050000D01*
X105000000Y-72396446D01*
X105000001Y-72396446D01*
X105346446Y-72050000D01*
X105316609Y-72020163D01*
X105550000Y-72020163D01*
X105550000Y-72079837D01*
X105572836Y-72134968D01*
X105615032Y-72177164D01*
X105670163Y-72200000D01*
X105729837Y-72200000D01*
X105784968Y-72177164D01*
X105827164Y-72134968D01*
X105850000Y-72079837D01*
X105850000Y-72049999D01*
X106053553Y-72049999D01*
X106053553Y-72050000D01*
X106400000Y-72396446D01*
X106400001Y-72396446D01*
X106746446Y-72050000D01*
X106716609Y-72020163D01*
X106950000Y-72020163D01*
X106950000Y-72079837D01*
X106972836Y-72134968D01*
X107015032Y-72177164D01*
X107070163Y-72200000D01*
X107129837Y-72200000D01*
X107184968Y-72177164D01*
X107227164Y-72134968D01*
X107250000Y-72079837D01*
X107250000Y-72050000D01*
X107453553Y-72050000D01*
X107816660Y-72413106D01*
X107816661Y-72413106D01*
X107825334Y-72399306D01*
X107825334Y-72399305D01*
X107884877Y-72229141D01*
X107884878Y-72229138D01*
X107905062Y-72050002D01*
X107905062Y-72049997D01*
X107884878Y-71870861D01*
X107825333Y-71700692D01*
X107816661Y-71686892D01*
X107816660Y-71686892D01*
X107453553Y-72050000D01*
X107250000Y-72050000D01*
X107250000Y-72020163D01*
X107227164Y-71965032D01*
X107184968Y-71922836D01*
X107129837Y-71900000D01*
X107070163Y-71900000D01*
X107015032Y-71922836D01*
X106972836Y-71965032D01*
X106950000Y-72020163D01*
X106716609Y-72020163D01*
X106465760Y-71769314D01*
X106400000Y-71703553D01*
X106334240Y-71769314D01*
X106334239Y-71769314D01*
X106053553Y-72049999D01*
X105850000Y-72049999D01*
X105850000Y-72020163D01*
X105827164Y-71965032D01*
X105784968Y-71922836D01*
X105729837Y-71900000D01*
X105670163Y-71900000D01*
X105615032Y-71922836D01*
X105572836Y-71965032D01*
X105550000Y-72020163D01*
X105316609Y-72020163D01*
X105065760Y-71769314D01*
X105000000Y-71703553D01*
X104934240Y-71769314D01*
X104934239Y-71769314D01*
X104653553Y-72049999D01*
X104450000Y-72049999D01*
X104450000Y-72020163D01*
X104427164Y-71965032D01*
X104384968Y-71922836D01*
X104329837Y-71900000D01*
X104270163Y-71900000D01*
X104215032Y-71922836D01*
X104172836Y-71965032D01*
X104150000Y-72020163D01*
X103916610Y-72020163D01*
X103583338Y-71686891D01*
X103583337Y-71686891D01*
X103574667Y-71700691D01*
X103574662Y-71700701D01*
X103515122Y-71870858D01*
X103515121Y-71870861D01*
X103494938Y-72049997D01*
X96680000Y-72049997D01*
X96680000Y-71333337D01*
X103936891Y-71333337D01*
X103936891Y-71333338D01*
X104299998Y-71696446D01*
X104299999Y-71696446D01*
X104602928Y-71393518D01*
X104646446Y-71349998D01*
X104616611Y-71320163D01*
X104850000Y-71320163D01*
X104850000Y-71379837D01*
X104872836Y-71434968D01*
X104915032Y-71477164D01*
X104970163Y-71500000D01*
X105029837Y-71500000D01*
X105084968Y-71477164D01*
X105127164Y-71434968D01*
X105150000Y-71379837D01*
X105150000Y-71349998D01*
X105353553Y-71349998D01*
X105353553Y-71349999D01*
X105700000Y-71696446D01*
X106002928Y-71393518D01*
X106046446Y-71349998D01*
X106016611Y-71320163D01*
X106250000Y-71320163D01*
X106250000Y-71379837D01*
X106272836Y-71434968D01*
X106315032Y-71477164D01*
X106370163Y-71500000D01*
X106429837Y-71500000D01*
X106484968Y-71477164D01*
X106527164Y-71434968D01*
X106550000Y-71379837D01*
X106550000Y-71349998D01*
X106753553Y-71349998D01*
X106753553Y-71349999D01*
X107100000Y-71696446D01*
X107100001Y-71696446D01*
X107463107Y-71333338D01*
X107449301Y-71324663D01*
X107279142Y-71265121D01*
X107278346Y-71264940D01*
X107277883Y-71264681D01*
X107272570Y-71262822D01*
X107272895Y-71261890D01*
X107217370Y-71230827D01*
X107188049Y-71177125D01*
X107187177Y-71177431D01*
X107185321Y-71172128D01*
X107185057Y-71171644D01*
X107184878Y-71170862D01*
X107125333Y-71000692D01*
X107116661Y-70986892D01*
X107116660Y-70986892D01*
X106753553Y-71349998D01*
X106550000Y-71349998D01*
X106550000Y-71320163D01*
X106527164Y-71265032D01*
X106484968Y-71222836D01*
X106429837Y-71200000D01*
X106370163Y-71200000D01*
X106315032Y-71222836D01*
X106272836Y-71265032D01*
X106250000Y-71320163D01*
X106016611Y-71320163D01*
X105700001Y-71003553D01*
X105700000Y-71003553D01*
X105353553Y-71349998D01*
X105150000Y-71349998D01*
X105150000Y-71320163D01*
X105127164Y-71265032D01*
X105084968Y-71222836D01*
X105029837Y-71200000D01*
X104970163Y-71200000D01*
X104915032Y-71222836D01*
X104872836Y-71265032D01*
X104850000Y-71320163D01*
X104616611Y-71320163D01*
X104283338Y-70986891D01*
X104283337Y-70986891D01*
X104274667Y-71000691D01*
X104274662Y-71000701D01*
X104215119Y-71170866D01*
X104214939Y-71171656D01*
X104214682Y-71172113D01*
X104212823Y-71177429D01*
X104211891Y-71177103D01*
X104180824Y-71232631D01*
X104127124Y-71261952D01*
X104127429Y-71262823D01*
X104122145Y-71264671D01*
X104121656Y-71264939D01*
X104120866Y-71265119D01*
X103950701Y-71324662D01*
X103950691Y-71324667D01*
X103936891Y-71333337D01*
X96680000Y-71333337D01*
X96680000Y-70633337D01*
X104636891Y-70633337D01*
X104636891Y-70633338D01*
X105000000Y-70996446D01*
X105000001Y-70996446D01*
X105363107Y-70633338D01*
X105363105Y-70633337D01*
X106036891Y-70633337D01*
X106036891Y-70633338D01*
X106400000Y-70996446D01*
X106400001Y-70996446D01*
X106763107Y-70633338D01*
X106749304Y-70624665D01*
X106579138Y-70565121D01*
X106400003Y-70544938D01*
X106399997Y-70544938D01*
X106220861Y-70565121D01*
X106220858Y-70565122D01*
X106050701Y-70624662D01*
X106050691Y-70624667D01*
X106036891Y-70633337D01*
X105363105Y-70633337D01*
X105349304Y-70624665D01*
X105179138Y-70565121D01*
X105000003Y-70544938D01*
X104999997Y-70544938D01*
X104820861Y-70565121D01*
X104820858Y-70565122D01*
X104650701Y-70624662D01*
X104650691Y-70624667D01*
X104636891Y-70633337D01*
X96680000Y-70633337D01*
X96680000Y-65669999D01*
X117457745Y-65669999D01*
X117457745Y-65670000D01*
X117476725Y-65874835D01*
X117476726Y-65874838D01*
X117533019Y-66072691D01*
X117533022Y-66072697D01*
X117624716Y-66256843D01*
X117624719Y-66256848D01*
X117627894Y-66261051D01*
X118142609Y-65746336D01*
X118167144Y-65837904D01*
X118224413Y-65937097D01*
X118305403Y-66018087D01*
X118404596Y-66075356D01*
X118496162Y-66099890D01*
X117984549Y-66611503D01*
X117984549Y-66611504D01*
X118075607Y-66667886D01*
X118075611Y-66667888D01*
X118267430Y-66742198D01*
X118469645Y-66780000D01*
X118675355Y-66780000D01*
X118877569Y-66742198D01*
X119069386Y-66667889D01*
X119160449Y-66611503D01*
X118648838Y-66099890D01*
X118740404Y-66075356D01*
X118839597Y-66018087D01*
X118920587Y-65937097D01*
X118977856Y-65837904D01*
X119002390Y-65746337D01*
X119517104Y-66261051D01*
X119517105Y-66261051D01*
X119520280Y-66256848D01*
X119520284Y-66256841D01*
X119611977Y-66072697D01*
X119611980Y-66072691D01*
X119668273Y-65874838D01*
X119668274Y-65874835D01*
X119687255Y-65670000D01*
X119687255Y-65669999D01*
X119687255Y-65669997D01*
X120296871Y-65669997D01*
X120296871Y-65670002D01*
X120317319Y-65851489D01*
X120377643Y-66023887D01*
X120418452Y-66088834D01*
X120474816Y-66178536D01*
X120603964Y-66307684D01*
X120758612Y-66404856D01*
X120931005Y-66465179D01*
X120931008Y-66465179D01*
X120931010Y-66465180D01*
X121112497Y-66485629D01*
X121112500Y-66485629D01*
X121112503Y-66485629D01*
X121293989Y-66465180D01*
X121293990Y-66465179D01*
X121293995Y-66465179D01*
X121466388Y-66404856D01*
X121621036Y-66307684D01*
X121750184Y-66178536D01*
X121847356Y-66023888D01*
X121907679Y-65851495D01*
X121908579Y-65843512D01*
X121928129Y-65670002D01*
X121928129Y-65669997D01*
X122836871Y-65669997D01*
X122836871Y-65670002D01*
X122857319Y-65851489D01*
X122917643Y-66023887D01*
X122958452Y-66088834D01*
X123014816Y-66178536D01*
X123143964Y-66307684D01*
X123298612Y-66404856D01*
X123471005Y-66465179D01*
X123471008Y-66465179D01*
X123471010Y-66465180D01*
X123652497Y-66485629D01*
X123652500Y-66485629D01*
X123652503Y-66485629D01*
X123833989Y-66465180D01*
X123833990Y-66465179D01*
X123833995Y-66465179D01*
X124006388Y-66404856D01*
X124161036Y-66307684D01*
X124290184Y-66178536D01*
X124387356Y-66023888D01*
X124447679Y-65851495D01*
X124448579Y-65843512D01*
X124468129Y-65670002D01*
X124468129Y-65669997D01*
X124447680Y-65488510D01*
X124447679Y-65488508D01*
X124447679Y-65488505D01*
X124387356Y-65316112D01*
X124290184Y-65161464D01*
X124161036Y-65032316D01*
X124107389Y-64998607D01*
X124006387Y-64935143D01*
X123833989Y-64874819D01*
X123652503Y-64854371D01*
X123652497Y-64854371D01*
X123471010Y-64874819D01*
X123298612Y-64935143D01*
X123143963Y-65032316D01*
X123014816Y-65161463D01*
X122917643Y-65316112D01*
X122857319Y-65488510D01*
X122836871Y-65669997D01*
X121928129Y-65669997D01*
X121907680Y-65488510D01*
X121907679Y-65488508D01*
X121907679Y-65488505D01*
X121847356Y-65316112D01*
X121750184Y-65161464D01*
X121621036Y-65032316D01*
X121567389Y-64998607D01*
X121466387Y-64935143D01*
X121293989Y-64874819D01*
X121112503Y-64854371D01*
X121112497Y-64854371D01*
X120931010Y-64874819D01*
X120758612Y-64935143D01*
X120603963Y-65032316D01*
X120474816Y-65161463D01*
X120377643Y-65316112D01*
X120317319Y-65488510D01*
X120296871Y-65669997D01*
X119687255Y-65669997D01*
X119668274Y-65465164D01*
X119668273Y-65465161D01*
X119611980Y-65267308D01*
X119611977Y-65267302D01*
X119520283Y-65083156D01*
X119520280Y-65083151D01*
X119517105Y-65078948D01*
X119517104Y-65078947D01*
X119002390Y-65593661D01*
X118977856Y-65502096D01*
X118920587Y-65402903D01*
X118839597Y-65321913D01*
X118740404Y-65264644D01*
X118648837Y-65240109D01*
X119160450Y-64728495D01*
X119069389Y-64672112D01*
X119069388Y-64672111D01*
X118877569Y-64597801D01*
X118675355Y-64560000D01*
X118469645Y-64560000D01*
X118267430Y-64597801D01*
X118075613Y-64672110D01*
X118075607Y-64672113D01*
X117984549Y-64728494D01*
X117984548Y-64728495D01*
X118496163Y-65240109D01*
X118404596Y-65264644D01*
X118305403Y-65321913D01*
X118224413Y-65402903D01*
X118167144Y-65502096D01*
X118142609Y-65593662D01*
X117627894Y-65078948D01*
X117624714Y-65083159D01*
X117533022Y-65267302D01*
X117533019Y-65267308D01*
X117476726Y-65465161D01*
X117476725Y-65465164D01*
X117457745Y-65669999D01*
X96680000Y-65669999D01*
X96680000Y-56124500D01*
X96699685Y-56057461D01*
X96752489Y-56011706D01*
X96804000Y-56000500D01*
X103364860Y-56000500D01*
X103431899Y-56020185D01*
G37*
%TD.AperFunction*%
%TD*%
M02*
