%TF.GenerationSoftware,KiCad,Pcbnew,8.0.4*%
%TF.CreationDate,2025-01-11T15:27:39+03:00*%
%TF.ProjectId,IoT Project,496f5420-5072-46f6-9a65-63742e6b6963,rev?*%
%TF.SameCoordinates,Original*%
%TF.FileFunction,Legend,Bot*%
%TF.FilePolarity,Positive*%
%FSLAX46Y46*%
G04 Gerber Fmt 4.6, Leading zero omitted, Abs format (unit mm)*
G04 Created by KiCad (PCBNEW 8.0.4) date 2025-01-11 15:27:39*
%MOMM*%
%LPD*%
G01*
G04 APERTURE LIST*
%ADD10C,0.120000*%
G04 APERTURE END LIST*
D10*
%TO.C,U2*%
X140050000Y-64785000D02*
X142000000Y-64785000D01*
X140050000Y-74905000D02*
X142000000Y-74905000D01*
X143950000Y-64785000D02*
X142000000Y-64785000D01*
X143950000Y-74905000D02*
X142000000Y-74905000D01*
X144700000Y-64840000D02*
X144460000Y-64510000D01*
X144940000Y-64510000D01*
X144700000Y-64840000D01*
G36*
X144700000Y-64840000D02*
G01*
X144460000Y-64510000D01*
X144940000Y-64510000D01*
X144700000Y-64840000D01*
G37*
%TO.C,C3*%
X136365000Y-77611252D02*
X136365000Y-77088748D01*
X137835000Y-77611252D02*
X137835000Y-77088748D01*
%TO.C,Q1*%
X135012500Y-64640000D02*
X135662500Y-64640000D01*
X135012500Y-67760000D02*
X135662500Y-67760000D01*
X136312500Y-64640000D02*
X135662500Y-64640000D01*
X136312500Y-67760000D02*
X135662500Y-67760000D01*
X134740000Y-68040000D02*
X134260000Y-68040000D01*
X134500000Y-67710000D01*
X134740000Y-68040000D01*
G36*
X134740000Y-68040000D02*
G01*
X134260000Y-68040000D01*
X134500000Y-67710000D01*
X134740000Y-68040000D01*
G37*
%TO.C,Q2*%
X133287500Y-75840000D02*
X133937500Y-75840000D01*
X133287500Y-78960000D02*
X133937500Y-78960000D01*
X134587500Y-75840000D02*
X133937500Y-75840000D01*
X134587500Y-78960000D02*
X133937500Y-78960000D01*
X133015000Y-79240000D02*
X132535000Y-79240000D01*
X132775000Y-78910000D01*
X133015000Y-79240000D01*
G36*
X133015000Y-79240000D02*
G01*
X132535000Y-79240000D01*
X132775000Y-78910000D01*
X133015000Y-79240000D01*
G37*
%TO.C,D2*%
X138490000Y-75350000D02*
X138490000Y-78650000D01*
X144000000Y-75350000D02*
X138490000Y-75350000D01*
X144000000Y-78650000D02*
X138490000Y-78650000D01*
%TD*%
M02*
