%TF.GenerationSoftware,KiCad,Pcbnew,8.0.4*%
%TF.CreationDate,2025-01-11T15:27:39+03:00*%
%TF.ProjectId,IoT Project,496f5420-5072-46f6-9a65-63742e6b6963,rev?*%
%TF.SameCoordinates,Original*%
%TF.FileFunction,Soldermask,Top*%
%TF.FilePolarity,Negative*%
%FSLAX46Y46*%
G04 Gerber Fmt 4.6, Leading zero omitted, Abs format (unit mm)*
G04 Created by KiCad (PCBNEW 8.0.4) date 2025-01-11 15:27:39*
%MOMM*%
%LPD*%
G01*
G04 APERTURE LIST*
G04 Aperture macros list*
%AMRoundRect*
0 Rectangle with rounded corners*
0 $1 Rounding radius*
0 $2 $3 $4 $5 $6 $7 $8 $9 X,Y pos of 4 corners*
0 Add a 4 corners polygon primitive as box body*
4,1,4,$2,$3,$4,$5,$6,$7,$8,$9,$2,$3,0*
0 Add four circle primitives for the rounded corners*
1,1,$1+$1,$2,$3*
1,1,$1+$1,$4,$5*
1,1,$1+$1,$6,$7*
1,1,$1+$1,$8,$9*
0 Add four rect primitives between the rounded corners*
20,1,$1+$1,$2,$3,$4,$5,0*
20,1,$1+$1,$4,$5,$6,$7,0*
20,1,$1+$1,$6,$7,$8,$9,0*
20,1,$1+$1,$8,$9,$2,$3,0*%
%AMFreePoly0*
4,1,6,0.500000,-0.850000,-0.500000,-0.850000,-0.500000,0.550000,-0.200000,0.850000,0.500000,0.850000,0.500000,-0.850000,0.500000,-0.850000,$1*%
G04 Aperture macros list end*
%ADD10RoundRect,0.250000X0.250000X0.475000X-0.250000X0.475000X-0.250000X-0.475000X0.250000X-0.475000X0*%
%ADD11RoundRect,0.250000X-0.262500X-0.450000X0.262500X-0.450000X0.262500X0.450000X-0.262500X0.450000X0*%
%ADD12RoundRect,0.250000X0.475000X-0.250000X0.475000X0.250000X-0.475000X0.250000X-0.475000X-0.250000X0*%
%ADD13RoundRect,0.250000X-0.250000X-0.475000X0.250000X-0.475000X0.250000X0.475000X-0.250000X0.475000X0*%
%ADD14C,2.000000*%
%ADD15RoundRect,0.250000X0.450000X-0.262500X0.450000X0.262500X-0.450000X0.262500X-0.450000X-0.262500X0*%
%ADD16RoundRect,0.250000X0.262500X0.450000X-0.262500X0.450000X-0.262500X-0.450000X0.262500X-0.450000X0*%
%ADD17RoundRect,0.375000X-0.625000X-0.375000X0.625000X-0.375000X0.625000X0.375000X-0.625000X0.375000X0*%
%ADD18RoundRect,0.500000X-0.500000X-1.400000X0.500000X-1.400000X0.500000X1.400000X-0.500000X1.400000X0*%
%ADD19R,1.700000X1.700000*%
%ADD20O,1.700000X1.700000*%
%ADD21RoundRect,0.102000X0.610000X-0.610000X0.610000X0.610000X-0.610000X0.610000X-0.610000X-0.610000X0*%
%ADD22C,1.424000*%
%ADD23RoundRect,0.250000X-0.475000X0.250000X-0.475000X-0.250000X0.475000X-0.250000X0.475000X0.250000X0*%
%ADD24RoundRect,0.250000X0.337500X0.475000X-0.337500X0.475000X-0.337500X-0.475000X0.337500X-0.475000X0*%
%ADD25RoundRect,0.243750X0.243750X0.456250X-0.243750X0.456250X-0.243750X-0.456250X0.243750X-0.456250X0*%
%ADD26R,0.550000X0.250000*%
%ADD27FreePoly0,180.000000*%
%ADD28R,0.900000X1.500000*%
%ADD29R,1.500000X0.900000*%
%ADD30C,0.600000*%
%ADD31R,3.800000X3.800000*%
%ADD32RoundRect,0.243750X-0.243750X-0.456250X0.243750X-0.456250X0.243750X0.456250X-0.243750X0.456250X0*%
%ADD33C,1.000000*%
%ADD34RoundRect,0.102000X1.250000X-0.300000X1.250000X0.300000X-1.250000X0.300000X-1.250000X-0.300000X0*%
%ADD35RoundRect,0.102000X1.250000X-1.000000X1.250000X1.000000X-1.250000X1.000000X-1.250000X-1.000000X0*%
%ADD36RoundRect,0.243750X-0.456250X0.243750X-0.456250X-0.243750X0.456250X-0.243750X0.456250X0.243750X0*%
G04 APERTURE END LIST*
D10*
%TO.C,C1*%
X131050000Y-76500000D03*
X129150000Y-76500000D03*
%TD*%
D11*
%TO.C,R7*%
X120475000Y-78000000D03*
X122300000Y-78000000D03*
%TD*%
D12*
%TO.C,C2*%
X129300000Y-67150000D03*
X129300000Y-65250000D03*
%TD*%
D13*
%TO.C,C8*%
X106100000Y-82450000D03*
X108000000Y-82450000D03*
%TD*%
%TO.C,C6*%
X98950000Y-82450000D03*
X100850000Y-82450000D03*
%TD*%
D14*
%TO.C,SW3*%
X130000000Y-57750000D03*
X136500000Y-57750000D03*
X130000000Y-62250000D03*
X136500000Y-62250000D03*
%TD*%
D15*
%TO.C,R5*%
X99100000Y-59450000D03*
X99100000Y-57625000D03*
%TD*%
D16*
%TO.C,R2*%
X104362500Y-82420000D03*
X102537500Y-82420000D03*
%TD*%
D17*
%TO.C,U1*%
X129500000Y-69500000D03*
X129500000Y-71800000D03*
D18*
X135800000Y-71800000D03*
D17*
X129500000Y-74100000D03*
%TD*%
D19*
%TO.C,J3*%
X128400000Y-81225000D03*
D20*
X125860000Y-81225000D03*
X123320000Y-81225000D03*
X120780000Y-81225000D03*
%TD*%
D14*
%TO.C,SW1*%
X154000000Y-63000000D03*
X147500000Y-63000000D03*
X154000000Y-58500000D03*
X147500000Y-58500000D03*
%TD*%
D21*
%TO.C,U4*%
X118572500Y-73300000D03*
D22*
X121112500Y-73300000D03*
X123652500Y-73300000D03*
X126192500Y-73300000D03*
X126192500Y-65670000D03*
X123652500Y-65670000D03*
X121112500Y-65670000D03*
X118572500Y-65670000D03*
%TD*%
D10*
%TO.C,C7*%
X111500000Y-82450000D03*
X109600000Y-82450000D03*
%TD*%
D23*
%TO.C,C4*%
X132200000Y-65250000D03*
X132200000Y-67150000D03*
%TD*%
D24*
%TO.C,C11*%
X124165000Y-75515000D03*
X122090000Y-75515000D03*
%TD*%
D19*
%TO.C,J4*%
X133720000Y-81200000D03*
D20*
X136260000Y-81200000D03*
X138800000Y-81200000D03*
X141340000Y-81200000D03*
%TD*%
D14*
%TO.C,SW2*%
X147500000Y-78000000D03*
X154000000Y-78000000D03*
X147500000Y-82500000D03*
X154000000Y-82500000D03*
%TD*%
D25*
%TO.C,D5*%
X125925000Y-78000000D03*
X124050000Y-78000000D03*
%TD*%
D15*
%TO.C,R9*%
X125400000Y-59687500D03*
X125400000Y-57862500D03*
%TD*%
D16*
%TO.C,R1*%
X142592500Y-72126666D03*
X140767500Y-72126666D03*
%TD*%
D10*
%TO.C,C10*%
X142650000Y-69453333D03*
X140750000Y-69453333D03*
%TD*%
D19*
%TO.C,J2*%
X112000000Y-58625000D03*
D20*
X109460000Y-58625000D03*
X106920000Y-58625000D03*
X104380000Y-58625000D03*
%TD*%
D13*
%TO.C,C12*%
X121550000Y-61300000D03*
X123450000Y-61300000D03*
%TD*%
%TO.C,C5*%
X140750000Y-66750000D03*
X142650000Y-66750000D03*
%TD*%
D11*
%TO.C,R6*%
X118137500Y-63650000D03*
X119962500Y-63650000D03*
%TD*%
D15*
%TO.C,R4*%
X114800000Y-59325000D03*
X114800000Y-57500000D03*
%TD*%
D26*
%TO.C,U5*%
X123700000Y-59300000D03*
X123700000Y-58800000D03*
X123700000Y-58300000D03*
X123700000Y-57800000D03*
X121350000Y-57800000D03*
X121350000Y-58300000D03*
X121350000Y-58800000D03*
X121350000Y-59300000D03*
D27*
X122525000Y-58550000D03*
%TD*%
D28*
%TO.C,U3*%
X97980000Y-80000000D03*
X99250000Y-80000000D03*
X100520000Y-80000000D03*
X101790000Y-80000000D03*
X103060000Y-80000000D03*
X104330000Y-80000000D03*
X105600000Y-80000000D03*
X106870000Y-80000000D03*
X108140000Y-80000000D03*
X109410000Y-80000000D03*
X110680000Y-80000000D03*
X111950000Y-80000000D03*
X113220000Y-80000000D03*
X114490000Y-80000000D03*
D29*
X115740000Y-76960000D03*
X115740000Y-75690000D03*
X115740000Y-74420000D03*
X115740000Y-73150000D03*
X115740000Y-71880000D03*
X115740000Y-70610000D03*
X115740000Y-69340000D03*
X115740000Y-68070000D03*
X115740000Y-66800000D03*
X115740000Y-65530000D03*
D28*
X114490000Y-62500000D03*
X113220000Y-62500000D03*
X111950000Y-62500000D03*
X110680000Y-62500000D03*
X109410000Y-62500000D03*
X108140000Y-62500000D03*
X106870000Y-62500000D03*
X105600000Y-62500000D03*
X104330000Y-62500000D03*
X103060000Y-62500000D03*
X101790000Y-62500000D03*
X100520000Y-62500000D03*
X99250000Y-62500000D03*
X97980000Y-62500000D03*
D30*
X105000000Y-74150000D03*
X106400000Y-74150000D03*
X104300000Y-73450000D03*
X105700000Y-73450000D03*
X107100000Y-73450000D03*
X105000000Y-72775000D03*
X106400000Y-72775000D03*
D31*
X105700000Y-72750000D03*
D30*
X104300000Y-72050000D03*
X105700000Y-72050000D03*
X107100000Y-72050000D03*
X105000000Y-71350000D03*
X106400000Y-71350000D03*
%TD*%
D10*
%TO.C,C9*%
X142600000Y-74800000D03*
X140700000Y-74800000D03*
%TD*%
D32*
%TO.C,D1*%
X134812500Y-66500000D03*
X136687500Y-66500000D03*
%TD*%
D15*
%TO.C,R3*%
X116850000Y-59325000D03*
X116850000Y-57500000D03*
%TD*%
D33*
%TO.C,J1*%
X150250000Y-72700000D03*
X150250000Y-68300000D03*
D34*
X147370000Y-72100000D03*
X147370000Y-71300000D03*
X147370000Y-70500000D03*
X147370000Y-69700000D03*
X147370000Y-68900000D03*
D35*
X147670000Y-74950000D03*
X147670000Y-66050000D03*
X153120000Y-66050000D03*
X153120000Y-74950000D03*
%TD*%
D36*
%TO.C,D3*%
X101200000Y-57600000D03*
X101200000Y-59475000D03*
%TD*%
%TO.C,D4*%
X119000000Y-57625000D03*
X119000000Y-59500000D03*
%TD*%
D11*
%TO.C,R8*%
X125175000Y-61600000D03*
X127000000Y-61600000D03*
%TD*%
M02*
