M48
; DRILL file {KiCad 8.0.4} date 2025-01-11T15:28:11+0300
; FORMAT={-:-/ absolute / inch / decimal}
; #@! TF.CreationDate,2025-01-11T15:28:11+03:00
; #@! TF.GenerationSoftware,Kicad,Pcbnew,8.0.4
; #@! TF.FileFunction,Plated,1,2,PTH
FMAT,2
INCH
; #@! TA.AperFunction,Plated,PTH,ViaDrill
T1C0.0079
; #@! TA.AperFunction,Plated,PTH,ViaDrill
T2C0.0118
; #@! TA.AperFunction,Plated,PTH,ComponentDrill
T3C0.0118
; #@! TA.AperFunction,Plated,PTH,ComponentDrill
T4C0.0343
; #@! TA.AperFunction,Plated,PTH,ComponentDrill
T5C0.0394
; #@! TA.AperFunction,Plated,PTH,ComponentDrill
T6C0.0433
%
G90
G05
T1
X4.7776Y-2.2953
X4.8701Y-2.315
T2
X3.8575Y-2.4606
X3.9575Y-2.4606
X3.9843Y-2.2677
X4.0075Y-2.4606
X4.0379Y-3.2461
X4.0575Y-2.4606
X4.1075Y-2.4606
X4.1075Y-3.1496
X4.1777Y-3.2441
X4.2618Y-2.5197
X4.3071Y-2.5197
X4.315Y-3.2461
X4.3898Y-3.2461
X4.4075Y-3.1496
X4.5039Y-2.5157
X4.5075Y-3.1496
X4.5197Y-2.3356
X4.5567Y-2.8799
X4.5567Y-2.9299
X4.5571Y-3.0295
X4.563Y-2.4154
X4.6043Y-2.4567
X4.622Y-2.3917
X4.6364Y-3.0308
X4.6378Y-3.0623
X4.6469Y-2.5101
X4.6585Y-2.4202
X4.7431Y-3.0709
X4.7933Y-2.502
X4.8067Y-2.973
X4.9134Y-2.6457
X4.937Y-2.2795
X4.9504Y-2.9783
X4.9813Y-2.9419
X4.9841Y-2.687
X5.0167Y-2.9783
X5.0167Y-3.0315
X5.0228Y-2.4699
X5.0236Y-2.5013
X5.0593Y-3.1007
X5.0906Y-2.6417
X5.0984Y-2.8268
X5.1227Y-3.0842
X5.2047Y-2.6437
X5.3031Y-2.5689
X5.31Y-3.0472
X5.3644Y-2.704
X5.3976Y-3.0079
X5.4173Y-2.9075
X5.4213Y-2.6988
X5.4232Y-2.7323
X5.4607Y-2.433
X5.4626Y-2.4902
X5.5275Y-2.4331
X5.6693Y-3.0315
X5.688Y-2.7748
X5.688Y-2.8248
T3
X4.1063Y-2.8366
X4.1063Y-2.8917
X4.1339Y-2.8091
X4.1339Y-2.8652
X4.1339Y-2.9193
X4.1614Y-2.8366
X4.1614Y-2.8917
X4.189Y-2.8091
X4.189Y-2.8652
X4.189Y-2.9193
X4.2165Y-2.8366
X4.2165Y-2.8917
T4
X4.6682Y-2.5854
X4.6682Y-2.8858
X4.7682Y-2.5854
X4.7682Y-2.8858
X4.8682Y-2.5854
X4.8682Y-2.8858
X4.9682Y-2.5854
X4.9682Y-2.8858
T5
X4.1094Y-2.3081
X4.2094Y-2.3081
X4.3094Y-2.3081
X4.4094Y-2.3081
X4.7551Y-3.1978
X4.8551Y-3.1978
X4.9551Y-3.1978
X5.0551Y-3.1978
X5.2646Y-3.1969
X5.3646Y-3.1969
X5.4646Y-3.1969
X5.5646Y-3.1969
T6
X5.1181Y-2.2736
X5.1181Y-2.4508
X5.374Y-2.2736
X5.374Y-2.4508
X5.8071Y-2.3031
X5.8071Y-2.4803
X5.8071Y-3.0709
X5.8071Y-3.248
X6.063Y-2.3031
X6.063Y-2.4803
X6.063Y-3.0709
X6.063Y-3.248
M30
